<?xml version="1.0" standalone="no"?>
<!DOCTYPE svg PUBLIC "-//W3C//DTD SVG 1.1//EN" "http://www.w3.org/Graphics/SVG/1.1/DTD/svg11.dtd" >
<svg xmlns="http://www.w3.org/2000/svg" xmlns:xlink="http://www.w3.org/1999/xlink" version="1.1">
<metadata></metadata>
<defs>
<font id="streamsterregular" horiz-adv-x="1636" >
<font-face units-per-em="2048" ascent="1638" descent="-410" />
<missing-glyph horiz-adv-x="638" />
<glyph horiz-adv-x="0" />
<glyph horiz-adv-x="682" />
<glyph unicode=" "  horiz-adv-x="638" />
<glyph unicode="&#x09;" horiz-adv-x="638" />
<glyph unicode="&#xa0;" horiz-adv-x="638" />
<glyph unicode="!" horiz-adv-x="839" d="M154 -61q-12 33 8 62.5t49 45.5q12 6 30.5 11t38 5t36 -6t22.5 -24q6 -16 1 -32.5t-16.5 -32t-26.5 -28t-28 -18.5q-12 -6 -28.5 -10t-34 -4t-31.5 7t-20 24zM397 294.5q-2 22.5 9 45.5q27 49 55 90q14 23 50 74t85 119.5t107.5 151.5t120 168t122 168t112.5 153.5 t92 124t60 77.5q41 51 83 101.5t85 99.5q20 23 41 46.5t43 45.5q2 2 11.5 12.5t20.5 20.5t21.5 17.5t14.5 5.5q4 -4 1 -13.5t-8 -22t-10.5 -22.5t-7.5 -12q-29 -55 -61.5 -109.5t-67.5 -107.5q-37 -57 -73.5 -112.5t-73.5 -110.5q-18 -27 -62.5 -89.5t-101.5 -141.5 t-119.5 -166t-118 -162.5t-95.5 -131t-50 -69.5q-39 -49 -76 -99.5t-76 -99.5q-6 -10 -19 -24.5t-27.5 -27.5t-29 -21.5t-26.5 -6.5q-29 6 -31 28.5z" />
<glyph unicode="&#x22;" horiz-adv-x="1075" d="M616.5 1238q-0.5 7 4 18.5t9.5 21.5l7 14q66 129 155 246t199 209q4 2 21.5 15.5t35 22.5t30 8t5.5 -26q-8 -27 -29.5 -55.5t-41.5 -54.5q-76 -98 -157 -177t-155 -163q-6 -6 -15 -18.5t-20.5 -25.5t-22.5 -24.5t-19 -13.5q-6 -4 -6.5 3zM904 1334q3 7 7 17.5t10.5 20.5 t8.5 14q29 57 66.5 113.5t78.5 110.5q43 59 95.5 117.5t107.5 105.5q2 2 20.5 16.5t38 25.5t31.5 12t6 -23q-8 -31 -28.5 -60.5t-40.5 -54.5q-78 -98 -160 -177t-154 -165q-18 -18 -44.5 -48t-41.5 -32q-4 0 -1 7z" />
<glyph unicode="#" horiz-adv-x="1796" d="M118 -261q3 7 7 11q12 29 30.5 53.5t37.5 49.5q88 117 181 227t187 221q-76 -14 -155.5 -25.5t-157.5 -9.5h-10.5t-16.5 2t-11 5t7 8q45 23 100.5 39t133.5 36q14 4 43.5 11.5t60.5 15.5t56.5 15.5t35.5 9.5q4 0 35 33.5t71 78.5t82 92t66 76q-25 -4 -88 -12t-134 -14.5 t-130.5 -6.5t-77.5 13q-4 4 4 9t19.5 10t22.5 8t13 3q90 25 182.5 44.5t196.5 39.5q10 2 24.5 5.5t28 6.5t24.5 5t13 2q37 39 80 86t89 95t93.5 94t88.5 85q27 23 51 45.5t51 42.5q4 2 18.5 13.5t30 19.5t26.5 10t9 -12q0 -23 -15.5 -47.5t-37.5 -56.5q-66 -90 -135.5 -171 t-141.5 -163q129 25 265.5 45t263.5 47q2 2 13 15.5t25.5 28.5t28 29.5t19.5 20.5q51 53 103 104.5t106 98.5q8 8 28.5 26.5t45 37t47 32.5t34.5 12t6 -20.5t-19 -42t-28.5 -46t-23.5 -34.5q-23 -29 -44 -56.5t-46 -56.5q-23 -31 -50.5 -62.5t-56.5 -62.5q55 8 109 13 q20 2 41.5 4t42.5 -2q18 -4 6.5 -11.5t-19.5 -11.5q-23 -10 -44 -17t-42 -15q-41 -12 -82 -24.5t-84 -21.5q-4 0 -30.5 -28.5t-61.5 -67.5t-71.5 -79t-59.5 -64q53 12 106.5 21.5t106.5 19.5q23 4 44.5 7t43.5 1q12 0 13.5 -5t-11.5 -13q-25 -16 -52.5 -25.5t-53.5 -20.5 q-74 -29 -147.5 -50t-149.5 -44q-2 -2 -30 -30.5t-72 -73.5t-97 -101.5t-107.5 -112.5t-104.5 -108.5t-87 -87.5t-74.5 -69.5t-78.5 -69.5q-8 -4 -15.5 -10t-15.5 -11q-10 -2 -8 5.5t7 18.5t11 20.5t6 11.5q39 59 78 106q92 117 186.5 229.5t192.5 227.5q-2 0 -32 -8 t-78 -19.5t-109.5 -26t-124 -28.5t-122.5 -27.5t-105 -21.5q-6 -2 -35 -33t-65 -67.5t-68.5 -71.5t-44.5 -47q-74 -78 -150 -154t-154 -151q-23 -20 -45 -41t-49 -37q-4 -2 -9 -7t-9 -1t-1 11zM860 461q139 35 275.5 64.5t275.5 64.5q14 2 21 10q41 39 79.5 86t85.5 98 q8 10 15.5 18.5t15.5 16.5q-135 -29 -266 -54.5t-266 -47.5q-37 -43 -78 -84q-39 -45 -79 -87t-79 -85z" />
<glyph unicode="$" horiz-adv-x="1353" d="M-510 -47q0 6 37 17.5t84 22.5t89 20.5t54 13.5q113 29 223.5 59.5t223.5 60.5q8 14 16 26.5t16 27.5q104 176 214 346t221 340q-23 0 -66 -1t-94 0t-104.5 7t-97.5 19.5t-71.5 37t-27.5 62.5q0 43 36 82t76 69q70 57 157 102.5t180.5 80t191.5 62.5t192 48q6 2 10.5 2 t8.5 2q2 0 12 12.5t21.5 26.5t21.5 27.5t14 17.5q8 12 21.5 28.5t28 31t27 24.5t20.5 10q4 0 4 -4q0 -18 -8.5 -39.5t-19.5 -43t-23.5 -41t-20.5 -33.5q10 2 43 6t60 4t30 -6q0 -6 -20.5 -14.5t-47 -17.5t-53 -16.5t-41.5 -11.5q-2 0 -13 -16t-15 -25q-59 -94 -118.5 -186 t-121.5 -184q63 -4 144 -9.5t156 -26t129.5 -59t66.5 -108.5q2 -10 2 -31q0 -61 -29 -117.5t-73 -105.5t-97 -91t-102 -75q-115 -74 -239 -130t-253 -101q-90 -33 -177 -60.5t-185 -48.5q-23 -29 -44.5 -59.5t-43.5 -59.5q-10 -12 -23.5 -29.5l-27 -35t-23.5 -28.5t-16 -11 q-2 0 -2 4v2l2 4q12 47 43.5 98.5t60.5 98.5q-53 -12 -121.5 -27.5t-142.5 -28t-148.5 -21.5t-142.5 -9q-23 0 -53.5 1t-30.5 7zM293 178q109 41 222.5 82t223 90t211 112.5t185.5 149.5q31 31 62.5 72t31.5 88q0 37 -44 57.5t-111.5 31.5t-146.5 15.5t-149 8.5 q-51 -76 -109.5 -162t-122 -178t-128 -185.5t-125.5 -181.5zM336 1026q39 -10 81 -12t95 -2h240q57 84 121.5 180t130.5 188q-92 -33 -181.5 -68.5t-177.5 -76.5q-84 -41 -166 -89t-143 -120z" />
<glyph unicode="%" horiz-adv-x="1247" d="M98 827q0 49 27 98.5t67.5 89.5t89 67.5t89.5 31.5q8 0 28.5 -2t20.5 -16q0 -10 -12.5 -15.5t-18.5 -9.5q-53 -33 -99 -78t-79 -98q-2 -2 -7 -10t-10.5 -18.5t-9.5 -21.5t-4 -18q0 -8 9.5 -10t17.5 -2q29 0 67.5 13.5t72.5 37t57.5 56t23.5 71.5q0 12 -5 22.5t-5 28.5 q0 8 4 9q12 0 20.5 -10.5t14.5 -24.5t9 -29.5t3 -23.5q0 -47 -27.5 -89t-68.5 -73t-89 -48.5t-87 -17.5q-18 0 -36 5.5t-32 17.5q-31 23 -31 67zM100 -31q0 8 9.5 28.5t21.5 42t22.5 39t12.5 21.5q72 111 148.5 216.5t154.5 211.5q119 160 244 321t266 296q10 10 24.5 23.5 t30 25.5t30.5 20.5t28 8.5q16 0 16 -21q0 -25 -17.5 -59.5t-41 -71.5t-48 -68.5t-36.5 -50.5q-41 -53 -81 -106.5t-83 -106.5q-129 -160 -262 -318.5t-275 -309.5q-29 -35 -67.5 -74t-83.5 -70q-8 -4 -9 -4q-4 0 -4 6zM715 98q0 25 10 56q18 47 50 90t72 74.5t86 51t93 19.5 h12.5t20.5 -3t19 -8t9 -16q-2 0 -9 3.5t-15 3.5q-29 0 -71 -19.5t-82 -54.5t-69.5 -83t-31.5 -106q31 2 79 24t96 55.5t88 76.5t56 90q4 10 4.5 23.5t4.5 13.5q18 0 26 -20.5t8 -36.5q0 -49 -31.5 -106.5t-81.5 -106.5t-114.5 -82t-130.5 -33q-37 0 -67.5 21.5t-30.5 72.5z " />
<glyph unicode="&#x26;" horiz-adv-x="1705" d="M-1 -117q1 19 9 36.5t20.5 34.5t22.5 32q59 78 123 150.5t131 142.5q78 80 158 156.5t164 150.5q41 37 84 74.5t92 84.5q0 47 5 89.5t11 85.5q37 197 138.5 372.5t259.5 302.5q78 63 170 110.5t192 70.5q27 6 57.5 7t57 -8.5t45 -29.5t18.5 -59t-15.5 -78t-39 -77 t-51 -74t-52.5 -66q-55 -72 -114.5 -139.5t-118.5 -133.5q-76 -84 -153.5 -162.5t-155.5 -156.5q-35 -35 -70 -69t-74 -68q0 -55 14.5 -112.5t37.5 -117.5q16 -41 36.5 -86t49.5 -80q2 0 6 1t24.5 8.5t63.5 21.5t121 41q86 29 172 54.5t174 37.5q16 2 40.5 3t39.5 -9 q4 -4 -6 -8q-14 0 -27.5 -4t-30.5 -9q-135 -41 -265 -98t-261 -106q78 -98 176 -177t213 -133q33 -16 66.5 -30.5t68.5 -34.5q10 -6 3 -8t-13 -2q-70 10 -133 32q-98 35 -185.5 87.5t-164.5 117.5q-29 25 -59 54.5t-58 56.5q-160 -68 -318.5 -133.5t-328.5 -126.5 q-29 -10 -78 -31t-102.5 -36t-102.5 -16t-74 27q-14 18 -13 37zM188 -39q102 29 200.5 64.5t197.5 72.5q96 35 189.5 69t189.5 69q-53 76 -90 159.5t-56 179.5q-166 -147 -327.5 -294.5t-303.5 -319.5zM926 864q174 174 332.5 341t269.5 300q41 49 79 100.5t72 110.5 q-61 -12 -119.5 -36.5t-111.5 -59.5q-90 -55 -176 -141t-157 -188.5t-121 -213t-68 -213.5z" />
<glyph unicode="'" horiz-adv-x="368" d="M526 776q-4 0 1 15.5t14.5 34t18.5 34t9 17.5q16 29 36 56.5t40 55.5q35 45 72 88t84 78q10 8 22.5 15.5t26.5 11.5q33 10 27 -21q-4 -25 -18.5 -46t-31.5 -40q-35 -45 -74.5 -85t-80.5 -81q-20 -20 -40 -38.5t-40 -39.5q-4 -4 -13.5 -12t-20.5 -18t-20.5 -17.5 t-11.5 -7.5z" />
<glyph unicode="(" horiz-adv-x="714" d="M-18 162q-10 96 24 198q31 106 82 208t115 200q66 104 141.5 204.5t161.5 198.5q82 100 172 192.5t188 182.5q49 41 97.5 81t99.5 77q41 29 79 51.5t77 40.5q4 4 19 9t19 1q2 -4 -4 -11t-14 -15t-16.5 -15.5t-10.5 -9.5q-14 -16 -29.5 -27.5t-31.5 -25.5l-123 -117 q-66 -63 -126 -126.5t-120 -135.5q-86 -94 -164.5 -193.5t-152.5 -203.5q-68 -98 -129.5 -194.5t-114.5 -196.5q-27 -51 -51.5 -102.5t-44.5 -104.5q-20 -49 -34.5 -99.5t-33.5 -97.5q-2 -8 -6 -19.5t-9 -20.5t-13.5 -12t-18.5 7q-16 12 -21 32.5t-7 43.5z" />
<glyph unicode=")" horiz-adv-x="1447" d="M279 20q-4 4 1 12.5t13 16.5t15 15.5t11 11.5q12 14 25.5 27.5t28.5 27.5q61 63 116 129q59 68 114.5 137.5t109.5 141.5q78 104 147.5 208.5t134.5 213.5q59 102 113.5 204.5t99.5 206.5q47 111 80 211q16 51 26.5 101.5t24.5 101.5q2 6 5.5 18.5t8.5 21.5t13 13t18 -4 q16 -12 22.5 -32.5t10.5 -39.5q10 -47 6 -98t-14 -104q-23 -104 -66 -210t-96 -210q-117 -219 -270 -430q-150 -209 -332 -398q-43 -47 -89 -90t-95 -84q-23 -20 -46.5 -38.5t-49.5 -37.5q-2 0 -14.5 -8t-28 -17t-28.5 -15.5t-15 -2.5z" />
<glyph unicode="*" horiz-adv-x="1587" d="M446 1063q-6 8 12.5 20.5t44 23.5t51.5 19.5t32 10.5q47 14 94 26.5t94 24.5q-37 27 -74.5 56.5t-64.5 66.5q-8 10 -13.5 27.5t17.5 13.5q23 -2 43 -11.5t41 -19.5q29 -14 57.5 -28.5t57.5 -30.5q4 -4 14 -8.5t22 -10.5q14 -8 31 -14q43 59 90 117.5t107 115.5 q18 16 40.5 37t47.5 27q12 2 14 -6.5t-2 -20.5t-10 -24.5t-8 -14.5q-31 -57 -68 -109.5t-74 -103.5q41 8 79 14.5t79 12.5q4 0 23.5 3t41 6t39 3t21.5 -6q2 -10 -17.5 -18.5t-23.5 -12.5q-37 -16 -70 -28q-37 -14 -73.5 -28t-73.5 -26q-12 -4 -24.5 -8t-24.5 -8 q43 -29 87 -57.5t85 -59.5q29 -20 66.5 -48t60.5 -62q-2 -6 -23.5 -1t-48 16t-50.5 21.5t-30 12.5q-59 27 -126.5 58.5t-114.5 58.5l-14 -18q-15 -17 -34.5 -41.5t-40 -51.5t-34.5 -43q-37 -45 -75 -90t-83 -82q-2 -2 -12 -11.5t-15 -2.5q-4 6 1.5 17t7.5 17 q12 25 25.5 49.5t27.5 47.5q31 55 65.5 108t69.5 107q-51 -12 -100 -22.5t-101 -16.5q-25 -4 -48 -6t-48 -2h-37.5t-32.5 14z" />
<glyph unicode="+" horiz-adv-x="1357" d="M436 424q-6 14 20.5 25.5t64.5 20.5t73 15.5t43 8.5q33 4 64.5 9t62.5 9q33 45 67.5 90t69.5 88q23 25 44.5 48.5t43.5 45.5q18 18 41 38t47 28q14 4 16.5 -3t-0.5 -18.5t-8.5 -22.5l-7.5 -15q-29 -51 -67 -107q-27 -41 -55.5 -80t-57.5 -80q76 6 133 6q100 -2 100 -12 q2 -8 -12 -13t-18 -9q-72 -23 -109 -33t-65 -19q-27 -6 -53.5 -12t-53.5 -10q-63 -80 -133 -164q-35 -45 -73 -90t-83 -80q-4 -4 -11 -10t-11 -2q-4 2 -1 13t9 23.5t12.5 23.5t8.5 16q14 27 28.5 52t30.5 50q23 37 46.5 74t47.5 73q-49 -4 -104.5 -7t-108.5 7 q-10 4 -23.5 8.5t-17.5 14.5z" />
<glyph unicode="," horiz-adv-x="622" d="M-71 -347l7.5 17.5t10.5 20.5t8 14q29 57 66.5 113.5t78.5 109.5q43 59 95.5 117.5t107.5 106.5q2 2 20.5 16t38 25.5t32 12.5t5.5 -24q-8 -31 -28.5 -60.5t-40.5 -53.5q-78 -98 -160 -177t-154 -165q-18 -18 -44.5 -48t-41.5 -32q-4 0 -1 7z" />
<glyph unicode="-" horiz-adv-x="1081" d="M291 324q-6 14 20.5 25t64.5 20.5t72.5 15.5t43.5 8q135 20 270 31q12 0 48 2t75 3t69.5 -1t30.5 -10q2 -8 -18.5 -16.5t-67.5 -24.5q-29 -10 -59.5 -17.5t-59.5 -15.5q-66 -16 -131 -27.5t-131 -17.5q-33 -4 -64.5 -5t-62.5 1q-12 0 -27.5 1t-30 4t-26.5 8t-16 16z" />
<glyph unicode="." horiz-adv-x="710" d="M86 27q-12 33 8.5 62.5t46.5 45.5q12 6 32 11.5t39 5.5t35.5 -6.5t22.5 -24.5q6 -16 1 -32.5t-16 -32t-26.5 -28t-27.5 -18.5t-28.5 -10t-34 -4t-32 7t-20.5 24z" />
<glyph unicode="/" horiz-adv-x="1353" d="M219 -119q-6 4 1 22.5t19.5 38t23.5 38t16 22.5q29 45 56 88t56 84q66 98 132.5 191.5t133.5 187.5q143 199 290 391.5t298 384.5q72 92 144.5 180t148.5 174q33 37 64.5 76t70.5 68q6 4 12.5 6t2.5 -8q-4 -20 -14.5 -39t-20.5 -35q-53 -98 -115.5 -189.5t-126.5 -183.5 q-68 -98 -136.5 -193t-139.5 -192q-121 -160 -243 -317.5t-247 -315.5q-59 -72 -119.5 -144.5t-119.5 -143.5q-6 -6 -34 -39t-59.5 -69t-59.5 -62.5t-34 -20.5z" />
<glyph unicode="0" horiz-adv-x="1449" d="M-44 331.5q5 67.5 20.5 133t33.5 125.5q39 129 94.5 250t124.5 235q66 111 143 213.5t169 194.5q80 80 170 149.5t194 112.5q2 2 8.5 4t8.5 -2q4 -4 -1.5 -8t-7.5 -6q-29 -29 -57.5 -52.5t-56.5 -50.5q-145 -129 -257 -279.5t-202 -312.5q-27 -47 -65.5 -124.5 t-79.5 -173t-76 -199t-51.5 -199.5t-7 -178t56.5 -131q41 -45 99 -50.5t127 20.5t144.5 74t151.5 108.5t147.5 126t131 125t103.5 107.5l66 72q90 100 168 208t144 225q18 31 48 83t61.5 113.5t61 128t48 130t23 116.5t-14.5 88q-29 49 -85 56.5t-127 -12t-147.5 -58.5 t-145 -82t-122 -80t-75.5 -53q-68 -51 -132.5 -104.5t-129.5 -106.5q-6 -6 -35 -32t-63 -54.5t-62.5 -50t-32.5 -17.5q-4 2 0 12.5t11 20.5t14.5 19.5t9.5 11.5q137 180 304 329.5t353 251.5q49 27 107.5 51.5t119 37t120 6t112.5 -41.5q43 -29 67.5 -70.5t35 -88.5 t8.5 -97.5t-13 -97.5q-59 -264 -193 -499.5t-311 -438.5q-90 -102 -188 -194.5t-207 -173.5q-104 -78 -223 -142.5t-248 -89.5q-55 -8 -108.5 -5t-99.5 19.5t-84 49t-62 86.5q-29 61 -36 127.5t-2 134z" />
<glyph unicode="1" horiz-adv-x="1259" d="M-594 -137q-2 4 4 8t10 6q27 14 54.5 22.5t54.5 16.5q80 23 163 44.5t177 43.5q94 23 189.5 46.5t195.5 45.5l61 99q66 104 134.5 206.5t138.5 204.5q158 229 337 470t345 464q-127 -70 -276.5 -148.5t-282.5 -136.5q-53 -23 -121 -48t-193 -68q-14 -4 -32.5 -9.5 t-34.5 -1.5q-4 2 1 7.5t11 10.5t13 9l7 4q12 6 26.5 14.5t45.5 26t84 46t144 75.5q111 59 219 119.5t219 126.5q57 35 112.5 68.5t110.5 70.5q29 18 57.5 37.5t59.5 38.5q20 12 44 6.5t38 -25.5q18 -27 8 -49t-27 -45q-53 -76 -108.5 -150.5t-112.5 -152.5 q-76 -104 -150.5 -207.5t-152.5 -208.5q-154 -211 -307.5 -417.5t-313.5 -411.5q123 29 242 54.5t242 47.5q57 10 112.5 20.5t112.5 18.5q27 4 51.5 7t50.5 3h10.5t16.5 -1t13 -4t-1 -9q-12 -16 -35.5 -25.5t-44.5 -17.5q-78 -29 -154.5 -53.5t-158.5 -48.5 q-125 -37 -249 -69t-251 -60q-18 -4 -35.5 -7.5t-33.5 -7.5q-10 -2 -15 -8q-23 -23 -42 -47.5t-46 -46.5q-4 -4 -12 -7t-4 9q4 23 16.5 43t22.5 39q-98 -20 -194.5 -37.5t-194.5 -34.5q-59 -8 -117.5 -15t-118.5 -11q-14 0 -36.5 -1.5t-44 0t-38 3.5t-16.5 8z" />
<glyph unicode="2" horiz-adv-x="1282" d="M-361 -117q1 6 7 13.5t15 12.5t13 7q27 14 52.5 24.5t46.5 18.5q14 12 30 25q12 10 26.5 22t25.5 23q182 182 365 358t368 356q98 96 195.5 192.5t193.5 197.5q98 98 190 202q18 20 51 56t67 77t60.5 81t32.5 67q4 20 -25.5 27.5t-67.5 7.5t-74.5 -5.5t-49.5 -7.5 q-131 -27 -253 -82t-232 -126q-88 -53 -167 -119t-161 -131q-6 -6 -10 -9q-4 -4 -6 -4t0 4q14 43 53 92.5t87 98.5t97 93t86 75q100 80 213 142.5t238 96.5q61 16 126.5 24.5t131.5 -1.5q63 -12 111.5 -52t52.5 -108q4 -53 -21.5 -98t-54.5 -86q-80 -106 -172 -201.5 t-188 -187.5q-98 -98 -197.5 -191.5t-204.5 -187.5q-195 -176 -392.5 -347t-401.5 -337q43 12 86 24.5t86 22.5q135 33 269 60.5t269 54.5q125 23 251 48t261 40q12 2 26.5 4t26.5 -2t0 -12.5t-16 -10.5q-33 -16 -67.5 -28.5t-76.5 -25.5t-94.5 -27.5t-117.5 -34.5 q-133 -41 -264.5 -78t-266.5 -72t-266 -61q-25 -4 -75 -14.5t-104 -18.5t-103.5 -8t-71.5 14q-10 6 -9 12z" />
<glyph unicode="3" horiz-adv-x="1411" d="M-498 -76q10 4 17.5 5t15.5 3q59 10 120.5 20.5t121.5 22.5q129 29 257 63t255 77t250 95t239 118q109 61 209 138t178 175q23 29 54.5 78t53 103.5t21.5 105.5t-41 84q-47 37 -111.5 49t-131.5 18q-68 4 -136.5 3t-136.5 -7q-66 -6 -130 -15t-130 -24q-10 -4 -21.5 -5 t-19.5 11t-1 21.5t18 13.5q33 12 64.5 24.5t62.5 24.5q127 53 247.5 116t237.5 136q53 35 105.5 72t101.5 78q12 10 37.5 32.5t47 47t27 48t-23.5 36.5q-86 25 -183.5 5t-195.5 -46q-61 -20 -120.5 -44t-117.5 -55q-49 -25 -95 -54.5t-91 -59.5q-2 -2 -9 -8.5t-9 -4.5 q-4 4 11 23.5t36.5 42t43 43t27.5 27.5q94 82 204 143t229 96q61 18 125.5 28.5t130.5 4.5q39 -4 74.5 -19.5t60 -41t36 -61.5t1.5 -79q-12 -47 -40 -84t-65 -67.5t-79 -55t-81 -45.5q-121 -66 -246.5 -118t-252.5 -105q80 16 160.5 29.5t162.5 11.5q76 0 155 -18.5 t136 -73.5q39 -37 55.5 -81t17.5 -92t-10.5 -97.5t-29.5 -94.5q-49 -117 -130 -211t-181 -172q-104 -80 -221 -141t-240 -108q-125 -49 -253 -85t-259 -63q-123 -23 -247 -38t-249 -15q-25 0 -48.5 1t-41.5 3t-27.5 5t-1.5 7z" />
<glyph unicode="4" horiz-adv-x="1294" d="M94 588q33 129 110 248.5t165 242.5q86 117 175 228.5t185 220.5q78 82 156 161.5t166 157.5q23 20 39 23q6 0 7 -6t-2 -13.5t-7.5 -14.5t-4.5 -9q-45 -78 -101 -154t-116 -155q-86 -117 -169 -229.5t-165 -229.5q-37 -55 -78.5 -114.5t-81.5 -121t-74 -126t-56 -132.5 q86 4 168 26.5t165 47.5q98 29 196.5 60.5t191.5 72.5q78 92 147.5 193.5t155.5 208.5q41 53 85 104t89 104q6 6 30.5 33t53 54.5t54.5 47t36 13.5q8 -6 1 -29.5t-21.5 -49.5t-28 -49.5t-17.5 -31.5q-80 -129 -173 -257t-206 -275q92 33 183.5 66.5t193.5 60.5q2 2 19.5 6 t13.5 -4q-10 -12 -27.5 -20.5t-31.5 -16.5q-55 -35 -111.5 -62.5t-114.5 -56.5q-55 -27 -110.5 -54.5t-114.5 -51.5q-4 -6 -11 -14.5t-11 -14.5q-90 -117 -178.5 -230.5t-180.5 -226.5q-41 -53 -85 -107.5t-87 -107.5q-39 -47 -79 -94t-85 -88q-8 -8 -19 -13.5t-5 13.5 q6 25 20 48.5t27 45.5q102 166 217 331t252 359q-117 -47 -237 -92t-245 -74q-49 -10 -106 -18t-104 14q-47 23 -57.5 66t-0.5 86z" />
<glyph unicode="5" horiz-adv-x="1390" d="M-264 -131q-4 2 10 9t33.5 15.5t37 15.5t21.5 9l234 80q123 43 243.5 90t237.5 105q125 57 242.5 123.5t226.5 150.5q47 33 95 75t88 90t70 103.5t40 116.5q2 41 -32 63.5t-81 31.5t-97 11.5t-77 2.5q-139 -2 -276.5 -20.5t-272.5 -43.5q-33 -8 -63.5 -13t-63.5 -14 q-23 -4 -45 -3t-39 24q-12 20 -2 51t29.5 62.5t41 60.5t34.5 45q74 102 154.5 197.5t170.5 185.5q-68 -12 -132 -23.5t-130 -15.5h-49.5t-46.5 10q-10 6 -9 12.5t7 13.5t15 12t14 7q51 29 109 47.5t122 34.5q199 59 394.5 98.5t398.5 79.5q63 10 128.5 23.5t131.5 24.5 q31 4 62.5 10t64.5 10q4 0 19 3t32.5 5t32 1t16.5 -7q0 -4 -8 -10t-18.5 -10t-21.5 -8.5t-13 -4.5q-59 -23 -122 -40t-128 -40q-90 -29 -178.5 -54t-178.5 -52q-33 -10 -68.5 -19.5t-83.5 -21.5t-112.5 -27.5t-155.5 -35.5q-90 -123 -182 -248t-170 -254q90 20 180.5 37.5 t184.5 27.5q61 8 134 12.5t145.5 1.5t138 -13.5t112.5 -30.5q49 -23 83 -65t40 -95q4 -43 -6 -85t-27 -83q-47 -117 -137 -208t-192 -163q-109 -78 -226.5 -140.5t-240.5 -115.5q-242 -102 -494 -164q-59 -16 -117.5 -28.5t-117.5 -22.5q-55 -8 -109 -12q-10 -2 -24.5 -2 t-26.5 4z" />
<glyph unicode="6" horiz-adv-x="1462" d="M-147 361.5q8 9.5 12 13.5q35 35 75 61.5t78 55.5q39 27 76 51t76 51q8 4 12 12t19 35q61 121 137 233.5t162 217.5q86 106 179 204.5t198 186.5q100 86 211.5 161.5t238.5 118.5q59 23 122.5 32t125.5 -1q59 -10 97 -50t44 -99q8 -74 -23.5 -144.5t-76.5 -128.5 q-43 -55 -98 -98q-4 -4 -20.5 -16.5t-20.5 -8.5t8 20.5t16 20.5q37 47 70 97.5t55 109.5q8 25 16.5 57.5t6.5 64.5t-17.5 57.5t-52.5 33.5q-53 12 -110.5 -1t-104.5 -32q-61 -25 -119.5 -58.5t-111.5 -72.5q-111 -80 -208.5 -173t-187.5 -195q-182 -205 -323 -435 q92 53 185 103.5t192 97.5q98 47 199.5 87t205.5 65q61 14 129 19t129 -17q59 -25 87 -79t18 -118q-10 -59 -36 -111.5t-59 -99.5q-29 -43 -58.5 -83t-62.5 -79q-170 -209 -393 -356q-111 -74 -234.5 -129t-256.5 -74q-78 -12 -162 -0.5t-145 66.5q-47 45 -63.5 103.5 t-12.5 121t21.5 123.5t37.5 115q-49 -27 -98 -53.5t-100 -53.5q-18 -10 -37 -19.5t-39 -15.5q-16 -4 -8 5.5zM233.5 179.5q16.5 -68.5 75 -105.5t172.5 -17q109 18 229.5 90t235.5 169.5t215.5 206t167.5 204.5q8 12 39 56t56.5 93.5t33.5 93.5t-24 56q-51 18 -126 7 t-161 -39.5t-177 -68.5t-176 -83t-157 -81t-119 -61t-92 -47t-90 -49q-16 -23 -27.5 -50.5t-23.5 -55.5q-35 -78 -51.5 -164t0 -154.5z" />
<glyph unicode="7" horiz-adv-x="1390" d="M-229 -141q-4 6 23.5 40.5t85 95t140 144.5t189.5 189q342 330 719 663.5t743 667.5q-276 -59 -514.5 -110.5t-415 -85t-279 -49t-104.5 -5.5q-4 12 106.5 48t308.5 91.5t471.5 126t598.5 150.5q29 8 53.5 -7t30.5 -44q10 -41 -20 -68q-113 -104 -230.5 -213t-242.5 -221 q-336 -305 -632 -567.5t-523 -454.5q-225 -193 -361.5 -297.5t-146.5 -93.5z" />
<glyph unicode="8" horiz-adv-x="1314" d="M-118 -2.5q-1 63.5 15.5 128t39.5 118.5q53 123 130.5 231.5t170.5 204.5q86 90 185 167t216 124q23 10 47.5 17t48.5 11q18 2 21 -2q0 -4 -5.5 -8t-9.5 -6l-36 -25q-51 -33 -97.5 -65.5t-93.5 -71.5q-100 -86 -186 -185t-158 -210q-10 -18 -38 -67.5t-57.5 -112 t-54 -130t-31.5 -126t9 -97t72 -43.5q59 -8 131.5 14.5t149.5 62.5t155 94.5t148.5 111.5t132 113.5t104.5 101.5q33 33 88 97.5t108.5 138t91.5 147.5t38 125t-52.5 68.5t-179.5 -17.5q-53 -16 -112.5 -40.5t-119 -52.5t-115.5 -58.5t-103 -57.5q-27 -14 -51.5 -28.5 t-51.5 -28.5q-14 -8 -28.5 -16.5t-30.5 -12.5q-16 -6 -10 5.5t12 17.5q16 18 34.5 35.5t39.5 34.5q96 82 201.5 150.5t221.5 115.5q-61 6 -102 48t-49 103q-8 70 17.5 139.5t60.5 129.5q86 133 206.5 235.5t274.5 161.5q57 25 123 31q59 8 116.5 -20.5t73.5 -94.5 q8 -43 -3 -92t-34.5 -98.5t-52 -94.5t-55.5 -78q-74 -96 -167 -178t-200 -141q43 2 84 -7t74 -31.5t53.5 -57.5t24.5 -84q4 -78 -24.5 -157t-69.5 -148q-133 -227 -338 -409.5t-455 -291.5q-43 -18 -96 -34.5t-109.5 -24.5t-114 -4t-106.5 26q-66 29 -93.5 82t-28.5 116.5z M839 1104q5 -35 29.5 -50.5t77.5 3.5q61 20 119.5 63t113 98.5t99.5 115t78 112.5q18 31 40.5 68.5t40 76.5t23.5 73t-7 55.5t-52 25.5t-113 -19q-113 -37 -200 -112.5t-158 -194.5q-10 -16 -26.5 -54t-33 -84t-26.5 -94t-5 -83z" />
<glyph unicode="9" horiz-adv-x="1159" d="M-248 -141.5q10 8.5 15 10.5q25 16 50 28.5t50 26.5q111 57 214 121t204 135q217 158 405.5 348.5t335.5 413.5q-82 -51 -167 -94t-177 -76q-80 -29 -169 -46t-175 5q-41 10 -76 31.5t-57 56.5q-29 51 -30 108.5t15 112.5q29 90 75 171t106 153q127 160 303 283 q109 78 229 129q59 25 121.5 41t128.5 16q59 0 116.5 -21.5t94.5 -68.5q41 -51 51 -113.5t4 -126.5q-6 -66 -24.5 -130t-42.5 -128q27 18 53.5 36.5t52.5 35.5q2 2 13.5 9t23.5 14.5t22.5 11.5t14.5 2q4 -4 -4 -13.5t-10 -13.5q-37 -41 -80 -79t-84 -72l-56 -43 q-8 -16 -15 -29.5t-15 -28.5q-16 -31 -32.5 -59.5t-35.5 -57.5q-72 -115 -155.5 -218t-178.5 -201q-180 -188 -391 -343t-450 -259q-53 -23 -107.5 -43.5t-112.5 -34.5q-12 -4 -26.5 -8.5t-26.5 -2.5q-10 2 0 10.5zM296 895q-1 -41 20.5 -69.5t74.5 -32.5q86 -6 186.5 23.5 t200 78.5t190 105.5t156.5 103.5q12 8 33 49t40.5 89t34.5 93t21 66q10 37 25.5 96t18.5 117.5t-15 101.5t-74 47q-53 4 -114.5 -14t-124 -52t-126 -80t-120.5 -95t-108.5 -99.5t-88.5 -91.5q-27 -29 -50 -58.5t-46 -60.5l-32.5 -52t-45 -81t-39 -94t-17.5 -90z" />
<glyph unicode=":" horiz-adv-x="837" d="M209 74q-12 33 8.5 62.5t46.5 45.5q12 6 31.5 11.5t39 5.5t36 -6.5t22.5 -24.5q6 -16 1 -32.5t-16 -32t-26.5 -28t-27.5 -18.5t-28.5 -10t-34 -4t-32 7t-20.5 24zM401 469q-12 33 8.5 62.5t47.5 46.5q12 6 31.5 11t39 5t36 -6.5t22.5 -24.5q6 -16 1 -32.5t-16.5 -32 t-27 -27.5t-27.5 -18t-28.5 -10.5t-34 -4.5t-31.5 7.5t-21 23.5z" />
<glyph unicode=";" horiz-adv-x="937" d="M23 -387q2 6 5 14t7 16.5t4 10.5q6 14 14 27.5t17 27.5q16 29 35.5 56.5t39.5 56.5q20 27 45 57.5t51.5 57t54.5 47t52 30.5q35 6 29 -20q-4 -25 -19.5 -46.5t-29.5 -41.5q-70 -84 -146 -158t-157 -139q-4 -2 -2 4zM467 260q-12 33 8.5 62.5t46.5 46.5q12 6 31.5 11t39 5 t36 -6.5t22.5 -24.5q6 -16 1 -32.5t-16 -32t-26.5 -27.5t-27.5 -18t-28.5 -10.5t-34 -4.5t-32 7.5t-20.5 23.5z" />
<glyph unicode="&#x3c;" horiz-adv-x="1331" d="M-98.5 656q-7.5 26 4.5 49q8 20 31 30q29 12 59.5 25.5t58.5 25.5q102 45 198.5 85t186.5 77q90 35 169 67t147 58q70 27 124 45.5t93 30.5q80 24 86 16q2 -8 -70 -51q-35 -23 -85 -49.5t-116 -60.5q-66 -35 -142.5 -73t-162.5 -81q-86 -41 -178 -85t-190 -91 q141 -70 260 -131.5t211 -114.5q111 -63 170 -106t53 -58q-8 -12 -77.5 8.5t-188.5 67.5q-117 47 -272.5 118.5t-336.5 159.5q-25 12 -32.5 38z" />
<glyph unicode="=" horiz-adv-x="1327" d="M315 211q-6 14 20.5 26.5t64.5 21.5t73 15.5t43 6.5q68 10 135.5 19t134.5 13q45 2 90.5 5t92.5 -1q6 0 22.5 -1t18.5 -11q2 -8 -26 -19.5t-64.5 -22.5t-70.5 -19t-44 -11q-66 -16 -131.5 -28t-130.5 -19q-33 -4 -65 -5t-62 1q-8 0 -23.5 1t-31 4t-27.5 8.5t-19 15.5z M444 467q-2 14 30 26.5t73 23.5t78 18.5t47 9.5q72 12 142.5 22.5t139.5 16.5q41 6 84 9t101 3q6 0 23.5 -1t13.5 -9v-2q-4 -6 -19.5 -11.5t-21.5 -9.5q-88 -33 -193 -57q-139 -37 -280 -55q-43 -6 -91.5 -10.5t-95.5 5.5q-8 4 -19.5 7.5t-11.5 13.5zM1176 584v2v-2z" />
<glyph unicode="&#x3e;" horiz-adv-x="2213" d="M731 188q-4 8 62 50q33 18 77.5 43.5t104.5 56.5q59 31 129 65.5t147 75.5q78 39 163 80t177 82q23 10 45.5 21.5t44.5 21.5q-104 57 -192 109.5t-154 95.5q-84 53 -127 91t-37 50q6 10 61.5 -5t147.5 -56q92 -39 214.5 -98.5t263.5 -137.5q23 -12 30.5 -37.5t-6.5 -48.5 q-8 -16 -40 -34.5t-70.5 -35t-74.5 -29.5t-55 -22q-92 -41 -179 -76.5t-169 -68.5t-153.5 -61.5t-134.5 -51.5q-61 -23 -111.5 -40t-85.5 -27q-74 -23 -78 -13z" />
<glyph unicode="?" horiz-adv-x="923" d="M156 43q-12 33 8 62.5t47 46.5q12 6 31.5 11t39 5t36 -6.5t22.5 -24.5q6 -16 1 -32.5t-16.5 -32t-26.5 -27.5t-28 -18q-12 -6 -28.5 -10.5t-34 -4.5t-31.5 7.5t-20 23.5zM389 362q-6 4 4 25t15 25q14 27 28.5 51t30.5 47q104 166 220 324.5t235 316.5q49 66 114.5 140.5 t133 152.5t129 156.5t100.5 150.5q2 2 5 9t6 13.5t5 11.5t0 3q-55 -16 -122.5 -52t-135 -77t-131 -83t-113.5 -71q-6 -4 -33.5 -20.5t-65.5 -39t-81 -48t-80 -45t-62.5 -30.5t-27.5 -7q-2 2 1 7t8.5 9t9.5 8t6 7q41 41 85 78.5t89 72.5q104 84 211.5 162t226.5 139 q47 27 104.5 50.5t110.5 6.5q23 -6 39.5 -22t24.5 -39q10 -29 5 -57.5t-16 -57.5q-25 -63 -61.5 -120.5t-77.5 -110.5q-80 -111 -168 -217.5t-176 -212.5q-117 -141 -234.5 -281.5t-244.5 -271.5q-37 -39 -76 -76q-4 -4 -19.5 -17.5t-21.5 -9.5z" />
<glyph unicode="@" horiz-adv-x="1888" d="M96 74q6 111 40 212t81 199q98 197 233.5 369t294.5 320q86 82 179.5 154.5t197.5 131.5q66 39 153 78t182 65.5t191.5 31.5t178.5 -25q74 -29 137.5 -91.5t81.5 -140.5q23 -86 15.5 -165.5t-36.5 -159.5q-35 -100 -82 -194.5t-104 -182.5q-127 -195 -286 -350.5 t-386 -278.5q-37 -18 -82 -29.5t-83.5 -4.5t-64.5 38t-24 96q0 25 10.5 77t30 117t48 132.5t69.5 122.5q-68 -59 -131 -127t-141 -127q-29 -23 -68 -37t-74 8q-37 25 -38 67t12 77q27 84 89 164.5t140 150.5t166 124t168 85q25 8 56.5 16.5t63.5 10.5t61.5 -4.5t51.5 -26.5 q2 -2 6.5 -7t7.5 -9.5t2 -8.5t-9 -2q-29 10 -56 13q-92 -8 -171 -61.5t-146 -110.5q-76 -66 -143.5 -137.5t-129.5 -153.5q-18 -25 -35.5 -50.5t-27.5 -54.5q59 29 107.5 56.5t90.5 57.5t80.5 63.5t81.5 74.5q4 4 27 22.5t54.5 42t68.5 50t71.5 48t62.5 34t42 8.5 q10 -4 2 -17.5t-16 -19.5q-72 -53 -132.5 -131t-107.5 -162t-81 -167t-52 -148.5t-21.5 -106.5t11.5 -39q33 2 77 28t89 59.5t84 68.5t61 53q162 145 290 322.5t220 384.5q14 39 34.5 86t36 98t26 102.5t5 99.5t-28 88t-69.5 69q-39 23 -82 29.5t-86 4.5 q-141 -2 -285.5 -68.5t-278.5 -164.5t-252 -212t-204 -210q-82 -92 -152.5 -190.5t-129.5 -204.5q-53 -92 -93 -194.5t-53 -207.5q-8 -70 1 -137t50 -125q29 -41 73 -64.5t95.5 -32.5t104.5 -9t102 6q129 16 252 58t242 93t233.5 109.5t229.5 122.5q76 41 157 88 q2 2 19.5 11t36 19.5t35 17.5t18.5 5q2 -4 -5 -11t-16.5 -15.5t-18.5 -14.5t-11 -8l-99 -74q-53 -37 -106 -70.5t-109 -68.5q-111 -68 -224.5 -128t-231.5 -110q-113 -49 -239 -89t-255 -40q-100 0 -187 27t-149.5 81t-96.5 137t-28 194z" />
<glyph unicode="A" d="M-461 453q2 6 24.5 11t49.5 10t51.5 8t34.5 5q166 27 333 50.5t359 54.5q59 10 118.5 18t119.5 19q41 43 81 87t81 85q162 172 330.5 333.5t355.5 321.5q92 78 184 155t188 148q57 45 118 89t126 85q27 17 59 21q3 0 5 1q28 0 49 -32q12 -18 12 -36.5t-8 -37t-21.5 -35 t-25.5 -32.5q-86 -123 -157 -261.5t-157 -314.5q-51 -109 -99 -216t-95 -218q51 8 100 13.5t100 11.5q2 0 24 2t43.5 2t35.5 -1t2 -7q-4 -4 -15.5 -8.5t-52.5 -16.5q-66 -16 -132 -32.5t-132 -28.5q-59 -141 -119.5 -290t-124.5 -317q-55 -152 -112.5 -301t-114.5 -309 q-23 -53 -39 -103.5t-45 -103.5q-2 -4 -5 -3t-3 5q18 125 47 254t68 264q31 109 63.5 214.5t67.5 211.5q37 115 75.5 226.5t79.5 222.5q-141 -20 -279 -47t-286 -49q-6 -2 -36.5 -6.5t-65.5 -10.5q-41 -8 -92 -16q-123 -129 -245 -256t-251 -262q-35 -39 -71 -77t-72 -77 q-31 -29 -54.5 -49.5t-23.5 -15.5q0 6 8 21t18.5 32.5t20.5 34t18 28.5q111 154 229.5 302.5t252.5 295.5q-154 -16 -308.5 -36.5t-326.5 -34.5q-80 -7 -163 -11q-44 -2 -89 -2q-40 0 -80 2q-2 0 -18.5 2.5t-12.5 6.5zM813 655q102 14 200.5 29.5t200.5 30.5 q70 10 138.5 19.5t140.5 19.5q2 10 14.5 38.5t27.5 68.5t34.5 85t37 87t33 77t23.5 55q25 55 56.5 125t66.5 140.5t69.5 138t63.5 121.5q-135 -102 -279.5 -225.5t-288 -257.5t-280.5 -274t-258 -278z" />
<glyph unicode="B" horiz-adv-x="2129" d="M-498 -530q-4 4 10.5 6t16.5 2q66 4 134.5 14t137.5 21q231 37 461 90t453 128.5t441 178t429 237.5q147 98 286.5 227.5t231.5 282.5q19 45 31 93q4 17 4 34q0 32 -14 62q-18 39 -48 65.5t-67 44t-77 28.5t-77 17q-101 16 -202 16q-69 1 -137 -7q-170 -18 -334 -60 q-111 -129 -223.5 -255t-223.5 -251q-6 -6 -38.5 -42.5t-78 -87t-97.5 -106.5t-97 -103.5t-76 -78t-33 -26.5q-6 4 4.5 24.5t25.5 44t29.5 44t18.5 24.5q104 141 206.5 279.5t213.5 277.5q47 61 96 122t101 122q-41 -8 -79 -16.5t-77 -18.5q-72 -16 -143.5 -32.5 t-149.5 -32.5q-6 -2 -19.5 -3t-11.5 3t11.5 9t19.5 11t18.5 10t12.5 4q123 51 241.5 87t249.5 69q12 14 22.5 26.5t22.5 26.5q76 92 154 180.5t160 174.5q39 41 78 78.5t82 72.5q2 2 13 11.5t24.5 16.5t24.5 12t15 1q0 -23 -12 -45t-22 -43q-76 -121 -166 -231.5 t-181 -221.5q111 35 203 77t195 91q92 47 171 109.5t132 155.5q7 17 7 32q0 47 -60 85q-80 51 -247 61q-31 2 -64 2q-147 0 -345 -36q-242 -44 -540 -167q-53 -23 -101.5 -47.5t-97.5 -52.5q-2 0 -11.5 -5.5t-19.5 -10.5t-19 -8l-9 -3q-2 2 7 10.5t20 17.5t21.5 16t12.5 9 q92 66 191.5 123.5t203.5 106.5q156 70 307.5 110.5t283.5 56.5q80 9 152 9q47 0 89 -4q108 -10 178 -43q41 -18 71.5 -51t46.5 -73q13 -34 13 -71q0 -7 -1 -14q-3 -45 -30 -88q-55 -88 -136 -158t-167 -125q-49 -33 -98 -61.5t-105 -55.5h54q98 -2 196.5 -7t194.5 -36 q82 -27 149 -84t92 -149q11 -41 10 -81q0 -54 -19 -106q-34 -92 -83 -167q-66 -98 -148.5 -183.5t-176.5 -156.5q-92 -72 -192.5 -135.5t-205.5 -116.5q-223 -111 -457.5 -190t-476.5 -128q-221 -47 -448 -71q-181 -19 -361 -18q-46 0 -92 1q-43 2 -60 4t-26 9z" />
<glyph unicode="C" horiz-adv-x="1941" d="M180 -45q0 76 16.5 153.5t41.5 147.5q86 225 218 421.5t292 377.5q160 178 342 333.5t397 266.5q59 29 139 59q80 32 165 48q64 12 126 12q21 0 41 -2q82 -6 149 -48q61 -44 80 -106q13 -43 13 -88q0 -20 -2 -42q-8 -68 -39 -133t-68 -114q-33 -45 -71 -84t-83 -74 q-2 -2 -13 -9t-23.5 -15t-22.5 -12.5t-10 0.5q2 0 2 2t2 4l6 6q33 43 57.5 73.5t43 57.5t35 53.5t32.5 59.5q20 39 42 91q20 52 24 103q0 7 1 14q-1 43 -19 79q-22 42 -87 63q-35 6 -69 6q-24 0 -48 -3q-58 -7 -115 -24.5t-111 -41t-105 -48.5q-211 -111 -390.5 -275.5 t-332.5 -346.5q-76 -92 -150 -188.5t-137.5 -199t-114.5 -212t-82 -226.5q-16 -56 -20 -122v-17q0 -57 24 -109q34 -52 90 -72q54 -19 114 -19h6q64 1 129 15.5t114 28.5q184 63 349 157.5t318.5 212.5t299 255t292.5 285q2 2 9.5 9t15.5 15t14.5 12.5t8.5 2.5 q-2 -14 -14.5 -38t-24.5 -42q-53 -82 -117 -165t-131 -155q-158 -172 -337 -314.5t-384 -254.5q-80 -41 -188 -87t-220 -70q-78 -17 -153 -17q-33 0 -67 3q-108 11 -191 83q-59 51 -84 119.5t-25 144.5z" />
<glyph unicode="D" horiz-adv-x="2021" d="M-387 -383q-2 2 27.5 7t65.5 11.5t68.5 10.5t37.5 4q236 43 498.5 117.5t524 182t504 246t439.5 308.5q115 96 225.5 196.5t204.5 197.5t167.5 188.5t112.5 171t39 146t-51 114.5q-61 51 -172 74.5t-247 28.5q-42 2 -87 2q-96 0 -200 -8q-152 -11 -293.5 -27.5t-261 -36 t-195.5 -31.5q-170 -29 -325.5 -63t-323.5 -62h-9.5t-3.5 4t17 12q152 59 284 106.5t283 88.5q471 133 956 139q117 0 240 -13.5t234 -66.5q111 -55 174 -149q49 -74 49 -172q0 -28 -4 -58q-16 -90 -66.5 -186t-119 -188.5t-147.5 -177.5t-149 -154q-262 -248 -571 -434.5 t-649 -315.5q-207 -76 -406.5 -123t-365.5 -71q-166 -26 -283 -34q-86 -6 -130 -6q-15 0 -26 1q-2 0 -12 2t-22.5 5t-21.5 6t-9 7zM327 128q5 13 9 22q33 55 58.5 95t50 76.5t50 73.5t60.5 86q147 195 295.5 387.5t312.5 374.5q57 66 114.5 127.5t127.5 116.5q6 4 16.5 12 t21.5 15.5t22.5 10.5t21.5 -1q8 -8 7 -19.5t-6 -24t-11.5 -23.5t-8.5 -17q-41 -74 -90 -142.5t-108 -146.5q-154 -190 -316.5 -371.5t-322.5 -365.5q-70 -72 -133.5 -143.5t-135.5 -143.5q-8 -8 -18 -14t-16 -2t-1 17z" />
<glyph unicode="E" horiz-adv-x="1896" d="M2 -227q10 47 39 99t61.5 99t64.5 85t48 59q197 246 406.5 474t427.5 455q-43 -10 -87 -17t-88 -13q-4 0 -34.5 -5t-65.5 -8.5t-62.5 -3.5t-27.5 9q0 2 4 5t8 5q104 45 218 74.5t237 58.5q61 66 123.5 128t128.5 122q25 23 61.5 56.5t67.5 45.5q8 4 6 -7t-10 -26.5 t-17.5 -31t-11.5 -19.5q-41 -59 -83 -114.5t-89 -110.5q117 25 232.5 48.5t232.5 39.5q4 0 33.5 5t64.5 8t64 3t31 -6q2 -8 -25 -19t-60.5 -22.5t-64.5 -19.5t-37 -10q-139 -41 -279.5 -71t-279.5 -69q-84 -100 -166 -196.5t-166 -194.5q-96 -115 -194.5 -225.5t-195.5 -224 t-188 -231.5t-173 -243q17 -1 34 -1q74 1 147 15q89 18 179 38q252 57 498 135t493 151q86 27 172 55.5t176 45.5h9q2 -4 -9.5 -12.5t-15.5 -10.5q-76 -39 -150.5 -70.5t-152.5 -66.5q-236 -98 -474.5 -187t-486.5 -159q-53 -14 -116.5 -33.5t-131 -33t-133.5 -15.5h-11 q-59 0 -107 18q-52 17 -68 55q-9 23 -10 50q0 17 4 35zM969 1536q6 10 20 18q55 29 137 46.5t150 31.5q131 27 260 48.5t260 39.5q260 37 517 70t517 59q4 0 28 2t51.5 4.5t50 1.5t26.5 -6q-2 -6 -14.5 -11t-26.5 -10t-27.5 -8t-15.5 -3q-217 -59 -437 -98.5t-440 -84.5 q-131 -27 -261 -48t-261 -42q-6 -2 -50 -6t-105.5 -9t-129.5 -9q-70 -4 -126 -5h-21q-43 0 -71 3q-36 4 -31 16z" />
<glyph unicode="F" horiz-adv-x="1228" d="M-196 -686q3 10 8.5 23.5t11.5 25.5l8 16q84 141 178 273.5t193 263.5q166 221 334 436t342 432q-98 -18 -196.5 -36.5t-197.5 -28.5q-4 0 -15 -1t-22.5 -1t-19.5 2t-2 6q16 14 47 28.5t68 27t72.5 22.5t62.5 16q59 16 120.5 31.5t123.5 30.5q4 2 11 3t13 3q8 2 14 4 q14 16 37 41q18 23 46 55.5t67 79.5q86 104 173 206.5t179 203.5q-246 -43 -489.5 -82t-491.5 -60q-59 -6 -117 -9q-20 -1 -40 -1q-39 0 -78 4q-10 2 -23.5 4t-21.5 10q-6 8 6 15.5t16 9.5q20 10 48 18.5t53 14.5q127 35 253.5 58.5t255.5 45.5q190 33 380 61.5t380 53.5 q8 4 23.5 18.5t32 29.5t34 28.5t31.5 15.5q10 2 10 -9t-4 -25.5t-10 -28t-8 -15.5q135 18 269 36t269 34q117 14 238 29.5t240 19.5q2 0 16 -1t12 -5q-4 -6 -14 -8t-14 -6q-168 -47 -345.5 -82t-379.5 -74q-12 -2 -34 -6t-50.5 -10.5t-61.5 -12.5t-63 -12q-76 -14 -162 -33 q-20 -33 -43 -64.5t-47 -64.5q-80 -113 -164 -219t-170 -215q4 2 9 2t9 2q61 12 124 23.5t128 21.5q57 10 113.5 19.5t116.5 13.5h13h24.5t22.5 -2t7 -6q-4 -8 -14 -12.5t-18 -8.5q-66 -25 -132.5 -44t-134.5 -36q-35 -10 -92 -23t-115 -26q-68 -14 -141 -30 q-25 -29 -47 -54q-18 -23 -34.5 -42t-22.5 -27q-90 -106 -177 -213t-178 -213q-174 -209 -346 -414t-350 -410q-10 -10 -29.5 -33.5t-43 -49t-46 -46t-37.5 -26.5q-4 -2 -1 8z" />
<glyph unicode="G" horiz-adv-x="2035" d="M229 -113q-4 38 -4 76q0 74 15 151q24 115 69 228t105.5 218.5t122.5 195.5q131 207 295.5 393t351.5 342q84 68 183 137.5t207.5 122.5t222.5 81q78 19 155 19q35 0 71 -4q53 -8 103.5 -28.5t85.5 -69.5q33 -47 39 -105q2 -18 2 -37q0 -39 -9 -79q-12 -58 -38.5 -114 t-59.5 -101q-33 -47 -71.5 -90t-81.5 -78q-2 -2 -12.5 -10.5t-22.5 -15.5t-23.5 -12t-11.5 -1q0 6 15.5 25.5t41 54.5t57 82t62.5 108q25 49 43 110q13 47 13 93q0 14 -1 27q-4 49 -31.5 80.5t-80.5 42.5q-17 1 -34 1q-103 0 -202 -32q-116 -37 -222.5 -98.5t-204 -140.5 t-179.5 -156q-184 -168 -333.5 -360.5t-276.5 -405.5q-39 -66 -86 -156t-81 -187.5t-42 -193.5q-1 -16 -1 -31q0 -78 34 -143q31 -63 104 -78q40 -9 86 -9q34 0 72 5q86 12 172 42t145 56q219 98 412.5 240.5t370.5 306.5q80 72 155.5 149.5t147.5 159.5 q-53 -18 -106.5 -33.5t-106.5 -31.5q-109 -35 -219.5 -65.5t-221.5 -59.5q-12 -2 -54 -13.5t-88 -21.5t-85 -16t-47 2q-10 10 22.5 30.5t79.5 42.5q94 41 192.5 77t199.5 67q113 35 227.5 69.5t228.5 63.5q76 16 151 34.5t150 28.5q16 2 40 3t32 -7q0 -10 -11.5 -18 t-21.5 -14q-27 -14 -63.5 -28.5t-76.5 -29l-80 -29t-73 -28.5q-6 -10 -12 -21.5t-20 -31.5q-59 -92 -125 -177t-142 -165q-166 -178 -348 -328t-401 -258q-66 -37 -153 -74t-179 -59.5t-184 -22.5t-170 39t-126 106.5t-59 157.5z" />
<glyph unicode="H" horiz-adv-x="1757" d="M-43 -530q-6 4 4 26.5t25.5 49t29 49t17.5 26.5q90 141 185 279.5t192 275.5q82 115 163.5 229.5t165.5 227.5q-123 -14 -244.5 -31.5t-246.5 -26.5q-48 -4 -96 -7q-11 -1 -22 -1q-37 0 -73 8q-4 2 -12 4.5t-2 10.5q8 10 27.5 16t35.5 10q104 29 209 47.5t211 38.5 q74 12 148 23.5t147 24.5q35 47 69 93t68 93q72 94 142.5 186t142.5 185q92 117 184.5 228.5t204.5 205.5q23 18 33 10q6 -6 4 -16.5t-4 -14.5q-57 -133 -142 -253.5t-171 -237.5q-82 -117 -165 -227.5t-167 -223.5q205 29 409.5 59.5t409.5 61.5q35 43 65.5 87t63.5 89 q166 223 338 445.5t369 421.5q12 10 30.5 24t30.5 10q10 -8 0 -31.5t-16 -35.5q-49 -98 -108.5 -185.5t-121.5 -177.5q-111 -156 -224.5 -309.5t-229.5 -306.5q86 16 149.5 25.5t134.5 19.5q2 0 14.5 2t26 3t24.5 1t13 -2q2 -6 -15.5 -12t-21.5 -9q-92 -29 -185 -49 t-187 -41q-154 -205 -306.5 -403.5t-312.5 -396.5q-86 -109 -170 -214.5t-178 -205.5q-6 -4 -19.5 -18.5t-21.5 -10.5q-4 2 -1 11.5t7 19.5t10.5 19t8.5 14q94 166 202.5 321.5t214.5 310.5q92 129 182.5 256t182.5 254q-47 -10 -93 -18t-91 -19q-168 -35 -335 -64.5 t-337 -57.5q-35 -47 -72 -93.5t-72 -93.5q-174 -227 -347 -449.5t-359 -439.5q-4 -4 -21.5 -25.5t-38 -44t-39 -39t-26.5 -11.5z" />
<glyph unicode="I" horiz-adv-x="1464" d="M-415 -395.5q3 6.5 11.5 12.5t16.5 10l12 6q29 12 58.5 20.5t60.5 16.5q164 39 329 66.5t330.5 50.5t331.5 43t334 47q61 8 101 14.5t66 9.5t42.5 4t30.5 1h11t7 -4q2 -6 -25.5 -17.5t-62.5 -23t-65.5 -19.5t-36.5 -10q-158 -41 -323 -80t-332 -72.5t-336 -59.5t-334 -38 q-18 -2 -49 -3q-16 0 -31.5 -0.5t-32.5 0.5q-33 1 -63.5 4t-45.5 11q-8 4 -5 10.5zM392.5 -116.5q2.5 12.5 6.5 20.5q10 23 24.5 46t29.5 46q35 53 70.5 105.5t74.5 105.5q78 111 159 218t163 216q166 217 333.5 427t348.5 415q-135 -23 -270.5 -48.5t-270.5 -45t-271 -29.5 q-68 -5 -137 -5t-137 5q-12 2 -26.5 7t-4.5 17q10 14 36 24.5t56.5 20t60.5 15.5t48 10q86 18 196.5 37.5t227.5 39t228.5 37t199.5 31t142.5 20.5t56.5 7q23 23 48 46.5t54 35.5q16 8 20.5 1t2.5 -19.5t-8.5 -26.5t-8.5 -21q117 12 228.5 29t222 35t223.5 36.5t231 35.5 q2 0 11.5 1t18.5 1t17.5 -1t8.5 -5t-6.5 -8.5t-15.5 -7.5t-16 -6t-9 -3q-221 -78 -472 -130t-524 -106q-74 -100 -158.5 -210.5t-174 -223t-179.5 -224.5t-172 -212q-129 -154 -256 -308.5t-266 -307.5q-35 -37 -68.5 -75t-82.5 -75q-16 -6 -13.5 6.5z" />
<glyph unicode="J" horiz-adv-x="1458" d="M-541 -434q-8 8 16.5 7t57.5 1q82 0 183.5 14.5t205 39t200.5 57t171 71.5q281 152 508 344.5t422.5 413.5t367.5 468t344 509q-74 -14 -188.5 -31.5t-237.5 -36t-239.5 -35t-196.5 -28.5q-141 -16 -282.5 -28.5t-282.5 -12.5q-6 0 -29.5 1t-50.5 3t-49.5 7t-24.5 13 q-6 10 9.5 17.5t21.5 9.5q98 33 207.5 54.5t214.5 37.5q115 18 227.5 33.5t229.5 32.5q63 8 171.5 22.5t223.5 30.5t221.5 30.5t167.5 22.5q59 74 111.5 139.5t121.5 135.5q4 4 12.5 11t14.5 3q4 -2 1 -10t-5 -12q-29 -66 -65.5 -128.5t-77.5 -127.5q45 6 124.5 18t167 25.5 t167 25.5t124.5 17q6 0 35 4t70 9t87 10t86 8q30 2 52 2h14q25 -1 25 -5t-8 -8t-37 -14q-78 -25 -157 -45.5t-161 -38.5q-63 -14 -154 -32.5t-186.5 -37t-184.5 -37t-146 -33.5q-160 -264 -322 -519t-348 -485t-407.5 -430t-499.5 -353q-96 -51 -218 -98.5t-253 -78 t-261 -37.5q-27 -2 -53 -2q-99 0 -186 23q-20 4 -39.5 13.5t-32.5 19.5z" />
<glyph unicode="K" horiz-adv-x="1286" d="M74 -270q-2 4 6 32q8 23 17 43.5t20 42.5q23 49 46 97.5t48 95.5q53 100 106.5 199.5t106.5 197.5q43 80 90 167t90 165q-16 70 -29.5 122t-23.5 124q-2 12 -4 37.5t4 36.5q2 6 8 0.5t12.5 -13.5t12.5 -17t8 -13q23 -41 41 -83t37 -83q4 8 9 16t9 16q113 201 228.5 398.5 t244.5 390.5q31 45 61.5 89t65.5 85q4 4 16.5 19.5t27 31t27.5 24.5t19 1q12 -16 -4 -54t-28 -67q-33 -72 -69 -143.5t-77 -143.5q-111 -201 -227.5 -397.5t-235.5 -394.5q96 96 172 170.5t143.5 136t131 114t135.5 104.5t156 109.5t194 129.5q100 66 206.5 122t209 101 t199 78.5t180.5 54.5q50 10 104 18q24 4 46 4q28 0 55 -6q4 -2 6 -2l2 -4q-6 -6 -23.5 -9t-27.5 -7q-20 -4 -41 -10.5t-41 -12.5q-102 -33 -199.5 -75t-194.5 -89q-100 -47 -196 -100t-193 -111q-59 -35 -123.5 -80t-124 -90t-107.5 -82.5t-73 -58.5q-135 -109 -263 -224.5 t-249 -240.5q-12 -14 -24.5 -26.5t-24.5 -26.5q10 -29 25.5 -69t29.5 -72q86 -211 173 -420t192 -410q47 -92 102.5 -188t132.5 -168q37 -33 74 -53q4 -2 10.5 -6.5t6.5 -8.5q0 -14 -26 -11t-62.5 18.5t-77.5 40t-72 53.5q-80 78 -140.5 171t-115.5 189 q-111 199 -193.5 406.5t-154.5 425.5q-25 -29 -48.5 -54.5t-45.5 -54.5q-72 -84 -134.5 -171t-125.5 -181q-29 -45 -57.5 -89t-57.5 -89q-25 -41 -56.5 -85t-56.5 -71l-10 -10t-10 -2z" />
<glyph unicode="L" horiz-adv-x="1882" d="M35 -303q-3 13 -3 27q0 36 20 72q26 50 50 91q74 117 160 224.5t174 212.5q176 211 357.5 412.5t369.5 402.5q182 197 367 385q76 78 151.5 154.5t155.5 148.5q2 2 15.5 13t29.5 23.5t29.5 19.5t15.5 1q4 -8 -3 -19.5t-11 -17.5q-70 -113 -154 -216t-168 -204 q-172 -211 -347 -413.5t-353 -407.5q-92 -106 -182.5 -210.5t-182.5 -213.5q-47 -53 -91 -107.5t-87 -109.5q-43 -53 -84 -108.5t-74 -114.5q129 0 253 27.5t247 58.5t243 66.5t243 70.5q166 49 330.5 104.5t330.5 102.5q2 0 20.5 6t39 12.5t37 9.5t18.5 -1q2 -2 -2 -6 q-10 -8 -21.5 -14.5t-21.5 -12.5q-80 -35 -160 -71t-160 -70q-119 -49 -237.5 -95.5t-239.5 -89.5q-193 -72 -388.5 -135t-397.5 -96q-35 -7 -80 -11q-18 -2 -37 -1q-26 -1 -52 3q-44 6 -78 28t-42 69z" />
<glyph unicode="M" horiz-adv-x="2154" d="M-135 -487q-4 0 1 12t12 27.5t17.5 32t16.5 26.5q45 72 93 141.5t101 138.5q143 195 297 381.5t320 366.5q328 360 688 694q47 45 92 86t92 82q18 14 37 26.5t45 8.5q23 -6 39.5 -24.5t16.5 -41.5q0 -16 -6.5 -27t-12.5 -24q-49 -96 -101 -190t-106 -195 q-109 -199 -215 -400.5t-209 -406.5q92 137 209 257t240 233q276 252 568 475t597 438q59 45 127 86t129 88q20 12 43 15q18 4 39 -4.5t33 -28.5t11 -44t-15 -44q-51 -68 -108.5 -132.5t-108.5 -129.5q-74 -92 -147.5 -185.5t-145.5 -189.5q-137 -180 -270.5 -364.5 t-253.5 -379.5q-61 -96 -119 -195t-103 -206q-18 -47 -32.5 -95t-22.5 -100q-2 -4 -1.5 -20t-6.5 -18q-8 -2 -13.5 11t-7.5 17q-10 25 -12 52.5t0 56.5q10 111 48 214t85 202q47 100 101.5 194t111.5 186q66 104 146 218t165 228t169.5 222.5t160.5 204.5 q-80 -53 -169 -119.5t-181 -135.5t-181 -136.5t-165 -122.5q-193 -141 -375 -286.5t-352 -311.5q-76 -72 -144.5 -149.5t-121.5 -168.5q-6 -10 -12.5 -20t-10.5 -21q-12 -14 -17 5.5t-3 29.5q10 68 33.5 133.5t43.5 130.5q88 236 200 456t233 450q-356 -344 -692 -700.5 t-658 -731.5q-39 -43 -76 -85t-76 -85q-10 -12 -28.5 -30.5t-35.5 -36t-30.5 -29.5t-15.5 -12z" />
<glyph unicode="N" horiz-adv-x="1708" d="M-276 -721q4 14 13 33.5t19.5 38t14.5 24.5q59 111 127.5 217.5t138.5 210.5q145 217 301 422t319 406q113 133 226.5 262t232.5 256q59 59 114.5 122.5t121.5 123.5q24 19 54 37q16 9 32 10q15 0 30 -8q31 -23 31 -60q0 -20 -8 -37.5t-16 -36.5q-78 -156 -142.5 -316.5 t-124.5 -324.5q-29 -84 -56.5 -165.5t-49.5 -165.5q-23 -84 -41.5 -166t-28.5 -166q82 55 148.5 126t134.5 144q178 193 345 389.5t341 395.5q59 63 145 150t178.5 177t180.5 175t151 143q63 59 128 113.5t132 107.5q59 47 127 86t142 55q8 -2 6 -6t-7.5 -8t-11.5 -7t-8 -5 q-78 -39 -131 -99q-80 -78 -170 -169t-185 -190t-191.5 -202.5t-188.5 -204t-179 -195.5t-161 -177q-104 -117 -204.5 -234t-205.5 -233q-39 -43 -96 -110.5t-119.5 -136.5t-127 -129.5t-120.5 -90.5q-16 -10 -32.5 -5t-32.5 17q-31 37 -37 111q-3 32 -3 64q0 44 5 91 q8 82 23.5 160t25.5 125q39 168 89.5 329.5t111.5 321.5l-2 -2q-117 -117 -225.5 -239.5t-216.5 -249.5q-225 -260 -443.5 -526.5t-421.5 -546.5q-35 -53 -74.5 -100.5t-78.5 -100.5q-10 -10 -21.5 -26.5t-23.5 -18.5q-8 0 -4 14z" />
<glyph unicode="O" horiz-adv-x="1710" d="M221 -102q-3 29 -3 59q0 35 4 69q7 66 22 128q33 135 90 263t129 245q74 117 160 223t184 196q86 88 179 162t198 131q49 23 103 45.5t110 32.5q10 2 22.5 3t20.5 -3t-5.5 -11t-15.5 -11q-23 -12 -42 -22.5t-42 -23.5q-100 -59 -192 -134.5t-176 -164.5 q-92 -92 -175 -195.5t-155 -215.5q-78 -111 -145.5 -231.5t-118.5 -256.5q-20 -52 -38 -120q-17 -64 -17 -127v-7q1 -66 28 -119t94 -73q40 -14 82 -14q26 0 52 6q68 14 131 41q109 47 204 115.5t185 148.5q131 111 273 251t276.5 300t246 335t181.5 357q18 45 31.5 98.5 t14.5 105.5v6q1 49 -15 94q-16 48 -56 85q-50 45 -112 61q-54 14 -111 13h-15q-63 -4 -125.5 -18.5t-121.5 -36.5q-117 -35 -226.5 -86.5t-214.5 -116.5q-102 -66 -189 -141.5t-177 -157.5q-6 -4 -13.5 -9.5t-13.5 -7.5q-8 -2 -3 8.5t5 12.5q41 78 100.5 147.5t120.5 128.5 q92 90 197.5 159t222.5 118q117 47 242 69q68 12 135 11q56 0 113 -8q59 -10 118.5 -31t106.5 -68q47 -45 72.5 -106t31.5 -129q2 -23 1 -46q0 -100 -28 -206q-34 -131 -94.5 -258t-136.5 -244t-147 -211q-82 -111 -173 -209t-190 -190q-84 -80 -180 -161t-201.5 -148.5 t-217 -116.5t-226.5 -68q-38 -6 -75 -6q-33 0 -67 5q-70 11 -130 56q-49 43 -73 99.5t-30 120.5z" />
<glyph unicode="P" horiz-adv-x="1505" d="M-154 1257q4 10 15.5 18.5t17.5 12.5q47 35 93 66.5t94 60.5q121 76 274.5 151.5t327.5 141.5t360 115t372 73q134 17 265 16q49 0 99 -2q180 -9 337 -61q49 -16 98.5 -40.5t90.5 -60.5t66.5 -83t25.5 -104q-12 -84 -54 -156t-102.5 -133.5t-131.5 -112.5t-138 -94 q-217 -135 -467 -223q-72 -27 -148.5 -49.5t-154.5 -38.5q-8 -8 -26.5 -31t-41 -48.5t-43 -50t-31.5 -36.5q-180 -205 -356 -405.5t-358 -403.5q-43 -47 -86 -93t-88 -94q-18 -20 -38 -40.5t-42 -38.5l-6 -5q-7 -6 -13 -11t-11 -7t-5 2q4 12 11 27.5t18 29.5q49 80 105 155 t112 151q160 217 325.5 428t339.5 422q-37 -6 -73.5 -12.5t-73.5 -10.5q-101 -16 -203 -24q-66 -5 -134 -4q-36 0 -73 1q-10 2 -19 3t-16 6q-4 2 4.5 7t19.5 9t22.5 7t13.5 3q31 6 89 20.5t130 30t146.5 33t137 32.5t104.5 27.5t46 16.5q25 27 42.5 47.5t31.5 37.5 t28.5 33.5t32.5 37.5q86 100 174 197t185 190q31 31 68.5 61.5t68.5 52.5q6 4 19.5 12.5t17.5 0.5q6 -12 -6.5 -41t-29.5 -59.5t-35.5 -57.5t-24.5 -35q-76 -109 -158 -210t-166 -204q182 57 365.5 127t343.5 179q51 35 97 72.5t87 82.5q23 25 43 56q19 30 29 64q7 24 7 47 q0 9 -1 19q-4 32 -29 64q-41 49 -102.5 74.5t-120.5 40.5q-130 31 -268 32h-23q-126 0 -246 -10q-276 -18 -547 -80q-258 -59 -502.5 -150t-480.5 -212q-27 -14 -52 -27.5t-52 -25.5q-2 -2 -13.5 -6.5t-9.5 -2.5z" />
<glyph unicode="Q" horiz-adv-x="1724" d="M258 -78v25q0 108 31 211q35 116 82 221q104 229 245.5 430t311.5 371q115 117 243.5 218t272.5 169q45 20 93 35.5t95 19.5q12 -2 10 -6t-10 -10q-31 -16 -62.5 -33t-62.5 -35q-137 -86 -257 -196.5t-230 -233.5q-84 -92 -159 -188.5t-146 -200.5q-72 -104 -138.5 -210 t-119.5 -220q-23 -43 -45.5 -96.5t-38 -109.5t-20.5 -113q-1 -16 -1 -32q0 -39 8 -75q16 -51 54.5 -73.5t84.5 -27.5q15 -1 30 -1q31 0 63 7q47 9 82 19q111 37 212 101.5t195 136.5q8 4 19.5 13t21.5 17t23 21q-10 41 -22.5 81t-22.5 79q-23 72 -40.5 147.5t-29.5 153.5 q-2 10 -4 21t0 22q2 10 7 6t10.5 -12.5t10.5 -17.5t5 -11q47 -98 81 -202.5t74 -205.5q170 150 326 320t293 358q49 68 105.5 151t100.5 174t69 186q14 57 14 115q0 37 -6 75q-16 90 -67.5 138t-120.5 66q-50 14 -106 14q-22 0 -46 -2q-82 -8 -162 -27t-150.5 -46 t-115.5 -47q-408 -190 -748 -504q-33 -29 -63.5 -61.5t-65.5 -61.5q-4 -4 -10 -8t-10 -4t0 11t6 13q20 37 49 76q59 88 131 164t147 143q88 78 185.5 146.5t201.5 120.5q209 100 435 135q85 12 170 12q32 0 64 -2q116 -6 220 -68q74 -47 114 -128t44 -177q1 -16 1 -32 q0 -58 -11 -115q-15 -74 -40.5 -144.5t-58 -138t-67.5 -129.5q-59 -109 -131 -208t-150 -191q-82 -92 -166 -177t-174 -163q-39 -33 -76.5 -65.5t-78.5 -61.5q29 -72 55.5 -140.5t54.5 -142.5q43 -113 91.5 -223.5t107.5 -216.5q25 -47 55.5 -93t71.5 -77q10 -10 20.5 -16.5 t20.5 -12.5q14 -8 7 -12t-15 -4q-25 -4 -48.5 7t-44.5 26q-43 33 -78.5 76.5t-68.5 91.5q-33 53 -60.5 105t-54.5 108q-55 113 -101 230.5t-87 238.5q-86 -59 -170 -111.5t-174 -93.5q-55 -25 -119.5 -47.5t-131.5 -31.5q-30 -4 -60 -4q-36 0 -71 6q-65 11 -118 54 q-45 39 -66.5 94.5t-23.5 116.5z" />
<glyph unicode="R" horiz-adv-x="1781" d="M-27 1284q4 8 25.5 25.5t52.5 39t63.5 42t59.5 36.5q123 78 268.5 149t304 129t323.5 100q165 41 329 59q108 12 213 12q54 0 106 -3q156 -9 295 -54q90 -29 150.5 -78t84.5 -111q13 -35 13 -74q-1 -30 -9 -62q-18 -73 -85 -148q-59 -70 -133 -128.5t-152 -107.5 q-100 -63 -205.5 -112.5t-216.5 -88.5q-61 -23 -123.5 -38t-126.5 -37q18 -31 43 -87.5t58 -128.5q61 -147 128.5 -310t135.5 -322q72 -158 145.5 -314.5t159.5 -289.5q43 -59 84 -106.5t100 -78.5q6 -4 7 -6q1 -10 -21 -11h-5q-21 0 -60 9q-49 14 -95.5 54t-81.5 81 q-111 127 -195.5 285t-156.5 323q-72 162 -130 330t-105 326q-18 72 -30.5 129t-19.5 94q-29 -35 -57.5 -66.5t-56.5 -66.5q-319 -367 -645 -731q-55 -59 -112.5 -122t-117.5 -118q-2 -2 -16 -14t-16 -6q0 12 8 24.5t18 28.5q49 70 96 139.5t99 136.5q147 197 297.5 387.5 t306.5 380.5q-35 -6 -68 -11t-67 -9q-78 -10 -161 -18.5t-163 -8.5q-14 0 -40.5 1t-37.5 10q-4 2 3.5 6t17.5 8t19 7t14 3q25 6 48 11l46 10q68 14 128 27.5t119.5 26.5t122 29.5t129.5 38.5q18 25 55.5 66t65.5 76q78 92 158 179t166 171q20 18 40.5 37.5t41.5 36.5 q4 2 14 11t21.5 17.5t22.5 12.5t18 0q10 -10 -0.5 -36t-28 -53.5t-34.5 -52t-23 -32.5q-70 -98 -144 -190.5t-149 -184.5q166 53 330.5 114.5t310.5 159.5q31 20 63.5 45t63 52.5t55.5 59.5t39 66q18 37 18 68q1 18 -5 32q-14 42 -50.5 71.5t-84.5 48t-91 30.5 q-111 27 -226 27h-16q-123 -2 -243 -8q-246 -14 -496 -74q-231 -53 -453.5 -134t-433.5 -192q-23 -12 -47.5 -24t-48.5 -23q-6 -2 -10 -4q-10 -4 -11 -4z" />
<glyph unicode="S" horiz-adv-x="1974" d="M-125 -242v11q0 26 7 53q9 33 22 63q41 92 112.5 172t143.5 152q8 8 23.5 21.5t31.5 26.5t28.5 21.5t16.5 6.5q4 -4 -2 -13.5t-6 -11.5q-27 -39 -55.5 -77t-59.5 -79q-8 -10 -28.5 -37.5t-45 -64.5t-49 -78t-39 -77.5t-15.5 -66.5t22 -42q30 -18 66 -18q3 0 6 -1 q33 0 65 5q84 8 191.5 36.5t220 68.5t224 85t203.5 86q139 61 273.5 130t265.5 146q104 66 205.5 137.5t187.5 159.5q20 25 58.5 64t73 86t58.5 99q18 39 17 78q0 13 -2 26q-8 47 -70.5 71.5t-160.5 33.5q-81 7 -179 7h-45q-124 -2 -256.5 -8t-261.5 -12q-97 -4 -181 -4h-55 q-106 2 -180.5 16t-99.5 49q-12 18 -12 41q0 42 42 104q66 94 241 212q256 162 542 245q73 17 141 29q58 10 122 10h22q27 -2 56.5 -5t57 -11t51 -24.5t38.5 -43.5q10 -22 10 -42q-1 -16 -7 -32q-14 -36 -45.5 -66t-70.5 -53.5t-65 -37.5q-16 -8 -29.5 -12t-24.5 -7 q8 6 46 39t73 73t47 77q3 8 3 15q0 25 -34 36q-35 12 -68.5 12t-68.5 -4q-37 -4 -73.5 -10t-71.5 -16q-145 -37 -278.5 -104.5t-260.5 -145.5q-66 -43 -131 -92t-113 -115q47 -16 122 -22.5t156 -6.5t159 1t133 1q85 0 191 1h30q92 0 184 -5q108 -6 206.5 -25.5t166.5 -62.5 q67 -42 93 -114q11 -30 11 -68q0 -51 -20 -115q-35 -109 -107.5 -194.5t-156.5 -155.5q-100 -84 -209 -155.5t-225 -135.5q-135 -74 -270.5 -137t-274.5 -119q-139 -53 -277.5 -98t-281.5 -80q-73 -18 -147 -32q-58 -11 -116 -12q-16 0 -32 1q-37 2 -74 8t-67 25 q-33 20 -47.5 48t-16.5 60z" />
<glyph unicode="T" horiz-adv-x="985" d="M-154 1290q10 14 58.5 30.5t110 32t127 28t108.5 20.5q246 45 488.5 84t488.5 76q80 10 156.5 22t154.5 23q23 25 45.5 49t48.5 47q2 2 20.5 17.5t39 30.5t39 24.5t22.5 -0.5t-3 -30t-19.5 -43.5t-26.5 -44t-21 -30.5q117 18 235 33.5t236 32.5q121 16 240 32.5t240 32.5 q109 12 216 27.5t220 19.5q8 0 18.5 1t16.5 -3t-15 -12q-35 -10 -73 -21q-47 -10 -92.5 -19t-92.5 -19q-299 -61 -603 -118t-638 -120q-16 -20 -28 -39q-10 -16 -21.5 -30.5t-17.5 -22.5q-78 -104 -157 -204.5t-159 -203.5q-80 -98 -159.5 -198.5t-163.5 -200.5 q-166 -199 -329 -396.5t-333 -394.5q-61 -70 -121.5 -141.5t-128.5 -134.5q-2 -2 -10 -10.5t-17 -15.5t-17.5 -11t-8.5 2q0 12 7 25.5t14 23.5q47 78 97 152t101 145q152 211 304.5 415t310.5 406q80 100 159.5 201t159.5 203q80 100 162 199.5t166 197.5l-21 -4 q-22 -4 -52 -8t-62.5 -10t-57.5 -11q-244 -41 -486.5 -78.5t-490.5 -60.5q-81 -10 -163 -16q-50 -4 -98 -4q-32 0 -64 2q-4 0 -14.5 1t-21.5 3t-19.5 6t-4.5 10z" />
<glyph unicode="U" horiz-adv-x="1705" d="M108 -199q1 31 7 60q14 49 38.5 96t51.5 92q129 223 274.5 436t288.5 426q72 106 141.5 213t132.5 217q14 27 39 67t44.5 84t28.5 86q4 16 4 32q0 24 -9 45q-2 4 -4 10t-2 10q-2 6 5 5t9 -3q10 -6 17.5 -16t11.5 -21q15 -31 16 -69q0 -19 -4 -39q-12 -62 -35 -117 q-68 -174 -155.5 -338t-186.5 -319q-35 -55 -72.5 -113.5t-87 -133.5t-114 -175t-152.5 -238q-35 -55 -67.5 -110.5t-61.5 -114.5q70 31 134.5 70t127.5 80q219 141 429 293.5t415 312.5q199 152 391 317q10 8 25.5 20.5t29 25t24.5 22.5t13 14q59 80 118 156t120 155 q78 100 158 197.5t164 196.5q31 35 62.5 74.5t66 77.5t71.5 73t78 57q6 4 16.5 9t16.5 1q8 -6 5 -18t-7 -22q-43 -88 -98.5 -173.5t-114.5 -162.5q-72 -102 -145.5 -201.5t-149.5 -200.5q-158 -211 -317.5 -413.5t-325.5 -407.5q-158 -199 -313.5 -393.5t-321.5 -386.5 q-18 -20 -36.5 -41t-37.5 -41q-12 -14 -24.5 -27.5t-26.5 -23.5q-6 -4 -7 1t1 9q59 117 133 223.5t145 212.5q147 213 298 423t305 421q-176 -166 -357.5 -319.5t-374.5 -301.5q-104 -80 -208.5 -156.5t-215.5 -148.5q-53 -35 -106 -69.5t-113 -61.5q-23 -10 -48 -20.5 t-51 -12.5t-49.5 5.5t-41.5 31.5q-16 20 -15 51z" />
<glyph unicode="V" horiz-adv-x="1304" d="M340 -524q8 61 23.5 129.5t29.5 128.5q29 117 55.5 232.5t53.5 228.5q29 127 53.5 252.5t42.5 250.5q16 119 26 237q5 57 4 115q0 61 -5 121q-4 55 -19.5 103.5t-30.5 101.5q-4 14 3.5 13.5t18.5 -9t22.5 -19.5t13.5 -15q16 -23 28.5 -48.5t20.5 -54.5q39 -111 42 -231 q1 -40 1 -80q0 -79 -4 -156q-10 -129 -31.5 -254t-50.5 -248q-29 -119 -61.5 -233.5t-71.5 -230.5q-10 -35 -22.5 -67t-22.5 -67q16 31 34.5 57.5t36.5 53.5q72 104 142.5 204.5t142.5 198.5q154 211 310.5 414t316.5 406q160 201 320.5 394t326.5 388q61 66 117.5 133.5 t120.5 130.5q18 18 35.5 36t35.5 30q10 6 8 -8q-6 -23 -30.5 -58t-46.5 -74q-31 -51 -64 -101t-67 -97q-143 -211 -292 -415t-302 -408q-309 -416 -635 -816q-78 -94 -158 -188l-160 -188q-41 -45 -78.5 -88t-78.5 -87q-4 -4 -27 -27.5t-48.5 -50t-47 -46t-27.5 -17.5 q-4 2 -4 10.5v12.5z" />
<glyph unicode="W" horiz-adv-x="1923" d="M37 -522q10 25 21.5 52.5t21.5 53.5q115 248 244 481.5t270 471.5q68 115 139.5 225t149.5 221q72 111 149.5 214t165.5 202l20.5 20.5t35 32.5t34 28.5t19.5 8.5t-1.5 -15.5t-9.5 -19.5q-25 -53 -56.5 -103.5t-59.5 -103.5q-72 -115 -142.5 -223.5t-134.5 -224.5 q-137 -229 -265 -461t-245 -451q197 199 390.5 399.5t394.5 405.5q94 92 187 186.5t191 186.5q66 63 135.5 129t137.5 127q23 18 41 30.5t28 4.5q2 0 -2 -11.5t-12 -24.5t-16 -27.5t-15 -22.5q-88 -147 -151.5 -310t-122.5 -317q-41 -129 -82 -256t-74 -254 q78 104 163 207.5t173 206.5q178 209 360.5 410.5t377.5 396.5q141 137 287.5 273t293.5 265q8 6 34 26.5t54.5 42t55 38t36.5 14.5q0 -4 -19.5 -26.5t-44 -49t-48 -51t-29.5 -31.5q-41 -43 -86 -88t-84 -92q-186 -197 -367.5 -392.5t-361.5 -401.5q-215 -266 -441.5 -524.5 t-430.5 -530.5q-14 -20 -28.5 -42t-37.5 -32q-39 -6 -58.5 2t-25.5 26.5t-1 44t15 54.5q63 217 133 434t162 422q53 123 108.5 241t129.5 226q-102 -111 -199.5 -220.5t-202.5 -223.5q-178 -205 -359 -411t-361 -404q-98 -102 -191.5 -203.5t-191.5 -210.5q-37 -55 -86 -111 q-12 -18 -38 -23t-40 1q-23 8 -33 30.5t-4 51.5z" />
<glyph unicode="X" horiz-adv-x="1470" d="M-203 -596q-6 6 7.5 27.5t33 47t38 48t22.5 27.5q117 141 237.5 272t243.5 266q160 176 321.5 347t325.5 341q-2 71 -2 142q0 89 3 179q5 161 22 322q4 55 10 109.5t16 107.5q4 27 9.5 58t21.5 53q8 14 15 -1t9 -24q20 -156 22.5 -311t8.5 -313q2 -47 2 -91t2 -87 q160 160 320 316.5t327 309.5q47 41 93.5 81t95.5 79q4 4 24.5 20.5t49 37t59.5 42t59.5 38t48 23.5t25.5 -3q4 -6 0 -17.5t-8 -15.5q-45 -59 -96.5 -111.5t-100.5 -109.5q-174 -182 -349 -359.5t-353 -357.5q-47 -47 -93 -91t-93 -91q2 -27 3 -56.5t3 -58.5 q10 -127 20 -248t27 -243q16 -111 41.5 -221.5t85.5 -209.5q4 -6 13 -22t5 -21q-14 -12 -36.5 3.5t-45 40t-42 50t-25.5 38.5q-29 47 -49.5 100t-38.5 106q-35 113 -54.5 232t-29.5 239q-4 33 -7.5 67t-7.5 69q-104 -104 -205.5 -205t-207.5 -205q-90 -90 -179.5 -177 t-181.5 -175q-86 -82 -169 -162t-175 -160q-4 -4 -22.5 -20.5t-39 -33.5t-38 -29.5t-21.5 -8.5z" />
<glyph unicode="Y" horiz-adv-x="1857" d="M-399 -829q4 4 19 7t32.5 5t34 4t24.5 2q127 14 249 42t241 73q250 96 467 249.5t409 337.5q203 193 380 403t343 433q156 209 302.5 420t293.5 422q-59 -61 -119.5 -119.5t-122.5 -118.5q-201 -188 -407.5 -365.5t-421.5 -349.5q-160 -127 -327 -255t-351 -220 q-23 -12 -48.5 -22t-51 -13.5t-49 4t-41.5 31.5q-16 29 -16.5 57.5t10.5 57.5q12 41 30.5 79t40.5 73q47 80 101.5 155.5t107.5 151.5q78 111 158 216t158 214q45 63 92 127.5t92 130t84 135.5t69 141q10 27 15.5 54.5t-2.5 54.5q-2 6 -5 13t-3 11q0 6 6 4.5t10 -4.5 q18 -10 26.5 -29.5t11.5 -42t0 -45t-5 -38.5q-25 -121 -87.5 -236.5t-125.5 -218.5q-109 -178 -225.5 -346t-233.5 -340q-41 -57 -78 -114.5t-70 -116.5q78 43 154 92t150 100q303 205 590.5 426t568.5 455q147 123 291.5 250t269.5 274q14 16 28.5 32.5t30.5 33.5 q2 2 10.5 9t12.5 3q6 -4 0 -17.5t-8 -17.5q-84 -182 -195 -354t-223 -357q-143 -233 -296 -456t-325 -436q-174 -215 -364.5 -411t-413.5 -360q-211 -156 -449.5 -268t-502.5 -139q-69 -7 -138 -7h-17q-77 1 -154 15q-2 0 -9.5 2t-14.5 5t-12 5t-1 7z" />
<glyph unicode="Z" horiz-adv-x="1941" d="M37 -317q-6 23 1 44t19 42q16 29 38 52t44 48q47 51 95.5 98t97.5 94q104 96 208.5 186.5t213.5 180.5q217 180 437 348t449 328q221 158 447.5 303t468.5 272q-129 -39 -257 -71.5t-257 -61.5q-135 -33 -268.5 -60.5t-268.5 -51.5q-104 -20 -207.5 -39t-207.5 -29 q-6 0 -13.5 -1t-15.5 3q-4 0 -2 3t4 5q33 18 73 30.5t74 23.5l246 73q264 78 524.5 150.5t528.5 138.5q66 16 130 30.5t130 28.5q8 2 39 8.5t64.5 11.5t61.5 6t32 -11q2 -8 -5.5 -16.5t-18.5 -16.5t-22.5 -14.5t-17.5 -8.5q-29 -16 -58.5 -28.5t-58.5 -22.5 q-29 -12 -53.5 -23.5t-50.5 -27.5q-86 -47 -168 -101.5t-164 -109.5q-111 -78 -219.5 -156.5t-218.5 -160.5q-387 -291 -752.5 -599.5t-722.5 -643.5q-51 -47 -100 -94.5t-96 -100.5q168 10 335.5 42t333.5 66q129 27 256 54.5t256 56.5q59 12 116.5 25.5t117.5 23.5 q37 8 72.5 14.5t72.5 10.5q6 0 4 -3t-7 -6t-12 -7.5t-9 -4.5q-43 -18 -93 -34q-55 -20 -111 -39t-114 -37q-29 -10 -102.5 -34t-176 -55.5t-223 -66.5t-243.5 -64.5t-239 -51t-209 -25.5q-17 -1 -34 -1q-71 0 -121 14q-62 18 -73 63z" />
<glyph unicode="[" horiz-adv-x="972" d="M4 -22.5q14 26.5 29 49.5q16 31 33.5 60.5t35.5 57.5q70 121 141.5 239t145.5 234q74 119 148.5 234t152.5 231q25 35 58.5 85.5t70.5 104.5t74 107.5t65.5 95.5t46 67.5t15.5 25.5q-6 0 -47 -5t-87 -9.5t-84 -4.5t-36 9q2 8 12 14t24.5 12t27 10t18.5 7q61 23 123.5 39 t124.5 32q129 27 258 43q6 0 42 5t75.5 9.5t72.5 5.5t35 -5q0 -4 -13.5 -10.5t-29.5 -12.5t-32.5 -11t-18.5 -7q-123 -43 -248 -76q-4 0 -27.5 -5t-49 -10.5t-47 -10.5t-21.5 -7l-20 -37q-21 -37 -52 -93t-70 -125t-76.5 -135.5t-69.5 -121.5t-48 -86 q-139 -240 -284.5 -473.5t-299.5 -462.5q104 29 206.5 57.5t207.5 57.5q57 16 113.5 30.5t115.5 26.5q2 0 12.5 3t12.5 -1t-15.5 -12t-40 -17.5t-43 -17.5t-24.5 -10q-121 -51 -241 -98.5t-243 -94.5q-33 -12 -63.5 -23t-60.5 -24q-25 -10 -51.5 -17t-47.5 19 q-20 25 -6 51.5z" />
<glyph unicode="\" horiz-adv-x="1003" d="M146.5 1799q-3.5 18 0.5 34q2 10 6.5 6t8.5 -8q23 -35 38 -76t31 -80q39 -92 73 -184t67 -186q68 -199 131 -395.5t123 -397.5q27 -92 48 -169t39.5 -142.5t33 -125t26.5 -116.5q0 -4 5 -21.5t8 -38t4.5 -36t-5.5 -17.5q-8 -2 -23.5 28t-31.5 68t-29.5 71.5t-15.5 41.5 q-29 76 -57.5 151t-55.5 152q-92 258 -175 517.5t-156 523.5q-25 92 -47.5 183t-38.5 183q-4 16 -7.5 34z" />
<glyph unicode="]" horiz-adv-x="1705" d="M0 -100q-4 0 4 6t19.5 13t21.5 13.5t12 6.5q53 25 106.5 46t108.5 44l246 92q10 4 40 15t60 24q37 12 76 28q14 25 21.5 36.5t19.5 31.5q72 119 143.5 236.5t147.5 234.5q47 76 112.5 173t136.5 198.5t139.5 200t123.5 175t88 122.5t33 44q-78 -18 -153.5 -33.5 t-153.5 -25.5q-68 -8 -142.5 -17.5t-148.5 -2.5h-11.5t-5.5 4q2 4 7.5 5t9.5 5q33 14 70.5 26.5t95.5 28.5q125 37 252 62q63 14 132.5 22t133.5 12q20 23 32.5 37.5t34.5 28.5q2 0 -2 -8t-10 -18.5t-13 -21.5t-9 -15q2 0 15 1t27.5 1t26 -2.5t13.5 -8.5q0 -6 -16.5 -15 t-39 -17.5t-43 -15.5t-28.5 -9q-57 -86 -122 -193.5t-131.5 -219t-131 -222t-119.5 -205.5q-72 -117 -142.5 -233.5t-144.5 -233.5q-8 -12 -31.5 -53t-52.5 -87t-56.5 -85t-41.5 -45q-14 -8 -29.5 -12t-30.5 -8q-33 -10 -65.5 -18.5t-65.5 -18.5q-123 -35 -243.5 -67 t-243.5 -54q-14 -4 -38 -8t-44 0z" />
<glyph unicode="^" horiz-adv-x="0" d="M-2951 -367q223 61 459.5 79t468.5 34q551 37 1092.5 66.5t1092.5 52.5q272 12 573 25.5t609.5 27.5t609.5 26.5t573 22.5q154 4 307.5 10.5t309.5 6.5h30.5h44t38 -2.5t14.5 -6.5t-23.5 -6t-49.5 -5t-55.5 -5t-41.5 -4q-193 -23 -388.5 -36t-388.5 -23 q-541 -39 -927.5 -66t-662 -45t-462 -30.5t-323.5 -20.5q-549 -35 -1087.5 -64.5t-1089.5 -48.5q-117 -2 -214.5 -5t-184.5 -3t-165.5 4t-158.5 16z" />
<glyph unicode="_" horiz-adv-x="1191" d="M70 -15.5q2 5.5 11 10.5t21.5 8t16.5 5q90 23 180 35t178 23q131 14 262 24q51 4 103.5 7t101.5 -7q4 -2 11.5 -4t7.5 -6q0 -8 -20.5 -17.5t-48.5 -16.5t-53.5 -13t-31.5 -8q-59 -12 -118.5 -21.5t-119.5 -17.5q-49 -6 -115.5 -14.5t-135 -12.5t-132 -2t-106.5 16 q-14 6 -12 11.5z" />
<glyph unicode="`" horiz-adv-x="555" d="M-82 1073q6 -4 50 -10t106.5 -16.5t137.5 -23.5t142.5 -27.5t121 -32t73.5 -33.5q31 -25 36 -41.5t-5.5 -24.5t-31 -9t-38.5 5q-37 6 -80 19.5t-89 30t-91 34t-84 31.5t-80 29.5t-77 29t-60.5 23.5t-30.5 16z" />
<glyph unicode="a" horiz-adv-x="675" d="M-60.5 51q-0.5 29 7.5 51q20 72 66 142.5t95.5 129t90.5 97.5t53 49q37 35 87 72t107.5 66.5t118 48t115.5 18.5q29 0 63.5 -8t51.5 -31q2 -2 6 -9t-2 -5q-32 8 -63 8q-22 0 -44 -4q-52 -10 -100.5 -35t-93.5 -60.5t-88 -68.5q-37 -31 -80 -74t-84 -95t-79 -110.5 t-67 -119.5q82 53 173.5 121.5t177.5 132.5q41 35 89 68.5t93 70.5q12 10 31.5 25.5t39 28.5t35 24.5t21.5 11.5q16 4 26.5 -7t6.5 -26q0 -4 -8.5 -14t-18.5 -22.5t-19.5 -22.5t-11.5 -15q-33 -37 -72.5 -86t-77.5 -95t-65.5 -80.5t-36.5 -45.5q18 12 50 33t51 35 q57 39 116.5 74.5t122.5 68.5q4 4 20.5 12.5t20.5 4.5q0 -2 -6 -11q-25 -25 -53.5 -47t-56.5 -45q-94 -68 -203 -157q-35 -25 -62.5 -52.5t-60.5 -56.5q-8 -6 -25.5 -19.5t-21.5 -17.5q-16 -16 -43 -11t-41 23q-16 20 -11 45t15 48q23 51 48.5 96t55.5 92 q-31 -27 -59.5 -53.5t-56.5 -48.5q-45 -41 -90.5 -78t-94.5 -74q-12 -10 -29.5 -22.5t-35 -19.5t-35.5 -7t-35 12q-23 16 -23.5 45z" />
<glyph unicode="b" horiz-adv-x="669" d="M-72 49q53 92 118 188.5t126 184.5q104 150 210.5 302.5t217.5 299.5t221.5 287.5t227.5 283.5q33 37 63.5 73t63.5 71q6 6 17 18t23.5 23.5t22.5 18.5t16 5q10 -6 -13 -53t-69.5 -121t-107.5 -167t-127 -189t-131.5 -189.5t-118.5 -168t-88 -124t-41 -57.5 q-8 -12 -27.5 -37.5t-45 -60.5t-55.5 -75t-60 -81q82 76 151.5 126t124.5 78t94 36t58 0q27 -10 25.5 -43t-9.5 -57q-29 -86 -92.5 -183.5t-140.5 -183.5q2 2 3 2t3 2q61 35 116.5 69.5t122.5 80.5q4 2 20.5 10t18.5 4q-47 -57 -112.5 -108.5t-126.5 -94.5 q-86 -59 -178.5 -113.5t-198.5 -85.5q-16 -4 -36.5 -8t-40 -8t-35 -5t-21.5 1q-16 4 -20.5 18.5t5.5 26.5q4 6 28 18.5t34 16.5q98 49 182 121.5t170 171.5q23 31 48.5 68.5t50 75.5t46 76t35.5 71q-68 -23 -148.5 -83.5t-158.5 -132t-143.5 -144.5t-102.5 -122 q-29 -35 -68.5 -88t-64.5 -90q-12 -18 -33.5 -22.5t-33.5 4.5q-22 16 -22 37q0 12 7 26z" />
<glyph unicode="c" horiz-adv-x="563" d="M-22 117q8 55 34.5 111.5t61.5 107.5t59 78q37 45 96.5 100t129 103.5t139 81t129.5 32.5q31 0 55.5 -17.5t28.5 -47.5q4 -29 -7.5 -56.5t-31 -55.5t-43 -51.5t-45.5 -41.5q-49 -41 -89 -64.5t-57 -31.5q-10 -6 -18 -9q-6 -4 -11.5 -4t-2.5 4q4 10 14 16.5t18 12.5 q29 20 59.5 49t58.5 61.5t47.5 69.5t25.5 76q-41 -10 -77 -35.5t-71 -54.5q-47 -41 -106.5 -94.5t-114.5 -114.5t-99 -126.5t-59 -131.5q68 6 133.5 31.5t127 59.5t121 74t116.5 77q37 29 65.5 47t59.5 43q16 14 34.5 26.5t20.5 6.5q0 -4 -20.5 -27t-42.5 -45 q-102 -102 -208 -186.5t-241 -155.5q-29 -12 -62.5 -26.5t-69.5 -20.5q-17 -3 -33 -3q-19 0 -37 4q-34 7 -62 36q-27 30 -27 72q0 10 1 20z" />
<glyph unicode="d" horiz-adv-x="718" d="M-52.5 41q-0.5 29 7.5 53q31 92 82 169t108.5 139.5t111.5 108.5t91 75q39 27 90 56.5t108.5 53t115.5 34.5q28 5 55 5q29 0 55 -6q61 84 113.5 160t113.5 158q84 111 167 219t169 215q59 76 122 150.5t130 142.5q2 2 12.5 13t21.5 21.5t21.5 17.5t14.5 3q2 -2 -1 -12.5 t-8.5 -21.5t-10.5 -21.5t-7 -14.5q-59 -115 -131 -223.5t-143 -216.5q-78 -115 -157 -226.5t-161 -224.5q-125 -174 -250.5 -347t-263.5 -341q20 14 48 33.5t44 30.5q57 41 126 82t130 73q4 4 21.5 12.5t19.5 4.5q-4 -8 -30.5 -31t-59 -48.5t-63.5 -49t-41 -31.5 q-55 -43 -116.5 -98.5t-115.5 -102.5q-27 -23 -41 -36t-45 -29q-16 -6 -29 -6q-26 0 -46 20q-16 20 -9 50t15 52q20 49 59 109.5t70 106.5q-76 -70 -172 -147t-183 -142q-12 -10 -29.5 -22.5t-34.5 -20.5t-35.5 -8t-35.5 12q-23 18 -23.5 47zM106 100q76 57 160 116.5 t168 129.5t163 154t146 188h-9q-39 0 -82 -16q-48 -18 -93 -45t-84 -57.5t-65 -53.5q-20 -16 -59.5 -60t-84.5 -101.5t-89 -124.5t-71 -130z" />
<glyph unicode="e" horiz-adv-x="573" d="M-18 96q12 117 75.5 211t141.5 178q39 41 82 77t90 69q45 33 94 58.5t102 41.5q25 8 53.5 9t53.5 -11q45 -27 45 -72v-7q-4 -50 -39 -103q-16 -23 -32.5 -43.5t-35.5 -40.5q-74 -80 -166 -135q-66 -37 -131 -64.5t-149 -50.5q-45 -59 -66 -131q59 0 131 27.5t143.5 69.5 t141.5 88t127 83q4 2 26.5 18.5t48 36t36.5 26.5l32 22q4 -4 -12 -22.5t-37.5 -41t-42 -42t-24.5 -23.5q-82 -72 -168 -140.5t-189 -126.5q-49 -29 -102 -52t-111 -25q-49 0 -87 32q-32 27 -32 68q0 8 1 16zM205 266q70 18 136.5 54t122.5 85.5t100 111t69 132.5 q-109 -51 -197 -133t-174 -174q-20 -23 -31.5 -39t-25.5 -37z" />
<glyph unicode="f" horiz-adv-x="288" d="M-457 -668q-6 2 4 31q16 47 37 90t43 86q25 47 69 122t97 163t113.5 184t116 184.5t101.5 161t75 117.5q104 170 214.5 338t229.5 334q-164 -25 -336 -37h-14h-20.5t-19.5 2t-11 8t5 12.5t17 11.5t19.5 9t11.5 4q57 18 116.5 30.5t129.5 24.5q2 0 19.5 3t42 8.5t53 10.5 t57.5 9q57 74 113.5 152.5t119 152.5t134 138.5t159.5 111.5q23 10 46.5 13t39.5 -4t24.5 -25.5t0.5 -51.5q-16 -35 -38 -61.5t-67 -60.5q14 35 24.5 66.5t20.5 66.5q-12 -6 -23.5 -14.5t-21.5 -18.5q-102 -92 -185 -201.5t-169 -236.5q84 10 185.5 20t189.5 18.5 t148.5 12.5t60.5 2q2 -8 -31 -21.5t-87 -27t-124 -28.5t-142.5 -28.5t-143 -25.5t-124.5 -21q-47 -72 -99 -146.5t-118 -172.5q-37 -55 -74.5 -110.5t-80.5 -119t-93.5 -135t-111.5 -159.5q-14 -23 -49 -73t-78 -115.5t-91 -138.5t-91 -138.5t-77 -115.5t-50 -73 q-51 -70 -101.5 -139.5t-103.5 -136.5q-4 -4 -12.5 -15.5t-18.5 -21.5t-19.5 -18.5t-11.5 -6.5z" />
<glyph unicode="g" horiz-adv-x="636" d="M-1037 -1047.5q11 5.5 17 9.5q27 10 52.5 17t52.5 17q125 45 237.5 112t216 147.5t197.5 173t182 190.5q51 57 113.5 135t126 163t126 171t115.5 162q10 14 19.5 29.5t19.5 29.5q-31 -27 -60.5 -53.5t-60.5 -52.5q-45 -41 -107.5 -80t-109.5 -74q-12 -10 -29.5 -22.5 t-35 -20.5t-35.5 -9t-35 11q-23 20 -23.5 48t5.5 55q20 74 69.5 143.5t101.5 125.5t95 95t55 49q70 57 129.5 97.5t139.5 74.5q33 14 77.5 23.5t89.5 10.5h8q40 0 74 -8q37 -9 58 -32q2 -4 5 -9t-3 -3q-25 2 -57.5 2t-69.5 -6t-75 -18.5t-71 -30.5q-35 -20 -70.5 -48 t-76.5 -63q-20 -18 -65.5 -60t-97.5 -98.5t-101 -122t-78 -127.5q125 80 259 176.5t263 202.5q12 10 31.5 28.5t40 37t38 33t23.5 14.5q16 4 26.5 -7.5t6.5 -27.5q0 -2 -20.5 -34.5t-53 -85t-73.5 -115t-82 -124t-78 -114.5t-62 -84q-150 -209 -319.5 -400.5t-372.5 -350.5 q-104 -82 -218 -150t-238 -113q-55 -20 -115 -33.5t-119 -17.5q-12 0 -25.5 -1t-27.5 3q-16 4 -5 9.5z" />
<glyph unicode="h" horiz-adv-x="731" d="M-70 33q4 16 14.5 31.5t20.5 29.5q72 115 160 246t166 242q78 115 158.5 225.5t162.5 220.5q84 111 167 219.5t169 214.5q59 76 122 151t130 142q4 4 13.5 14.5t19.5 20.5t20.5 16t14.5 4q2 -2 2 -10q-4 -23 -18.5 -47t-26.5 -47q-49 -84 -100.5 -165t-104.5 -163 q-78 -117 -156 -228.5t-157 -223.5q-98 -139 -211 -291t-215 -289q41 35 98 78t118.5 87t120 85t101.5 74q27 20 61 40q22 13 45 13q13 0 27 -4q25 -8 36 -31.5t1 -46.5t-31.5 -45.5t-38.5 -42.5q-43 -51 -93 -106.5t-91 -108.5q-39 -51 -73 -106.5t-56 -114.5 q84 68 161.5 128t170.5 120q18 12 37.5 23t42.5 20q14 4 8 -3.5t-11 -11.5q-10 -10 -21 -19t-22 -20q-78 -61 -146.5 -126.5t-143.5 -131.5q-23 -23 -46.5 -44t-48.5 -40q-23 -16 -49 -17t-43 25q-14 25 -11 59t9 58q10 51 43 109.5t73 116t83 111.5t74 101 q-66 -47 -140.5 -99t-155.5 -118.5t-165 -149.5t-170 -190q-10 -14 -23.5 -28.5t-31.5 -16.5q-25 -2 -40.5 17.5t-9.5 42.5z" />
<glyph unicode="i" horiz-adv-x="333" d="M-64 49q5 29 15 51q20 51 63 116t97.5 132.5t113 132t109.5 115.5t88 84t49 37q14 6 23 2q4 -2 7 -6t-1 -13q-27 -49 -64 -106t-80 -119.5t-89 -129t-89 -136.5q18 14 49 35.5t49 34.5q59 39 117 76.5t121 72.5q4 4 21.5 12.5t19.5 3.5v-3t-6 -7q-76 -70 -155 -130 t-156 -126q-33 -29 -81 -74t-79 -73q-12 -10 -27.5 -21.5t-33 -18.5t-35 -5t-35.5 18q-16 16 -11 45zM559 950q-4 12 -4 24q1 20 13 38q20 30 46 45q12 8 31 13t38 5t35.5 -6.5t24.5 -24.5q6 -16 1 -33.5t-16 -32.5t-25.5 -27.5t-28.5 -18.5q-12 -6 -29.5 -9t-34 -2t-31 7 t-20.5 22z" />
<glyph unicode="j" horiz-adv-x="407" d="M-1293 -1073q11 6 17 8q27 10 52.5 17.5t52.5 17.5q125 45 237.5 112.5t216 148.5t197.5 173t182 188q45 49 96.5 115t105.5 137.5t109.5 146.5t104.5 144q117 164 237 340q-88 -61 -176 -117.5t-180 -113.5q-8 -4 -23.5 -11.5t-17.5 -3.5q0 4 6 11q25 27 53.5 49 t57.5 45q10 8 52 41t100.5 76t125 91t127 86t106.5 58q31 13 48 13q9 0 14 -3q10 -6 -14.5 -53t-68.5 -115.5t-98 -148.5t-104.5 -151.5t-88 -124t-46.5 -64.5q-158 -225 -337 -432t-396 -377q-104 -82 -218 -150.5t-238 -113.5q-55 -20 -115 -33.5t-119 -17.5 q-12 0 -26.5 -1t-26.5 3q-16 4 -5 10zM563 950q-4 12 -4 24q0 20 13 38q20 30 46 45q12 8 31 13t38.5 5t36 -6.5t24.5 -24.5q6 -16 0.5 -33.5t-16.5 -32.5t-25.5 -27.5t-28.5 -18.5q-12 -6 -29.5 -9t-34 -2t-31 7t-20.5 22z" />
<glyph unicode="k" horiz-adv-x="561" d="M-55.5 21.5q-10.5 21.5 0.5 44.5q45 88 110 178q43 66 87 132t91 132q0 16 1.5 35.5t3.5 36.5q2 10 6 25.5t14 19.5q10 2 20.5 -10.5t14.5 -20.5q78 111 156.5 219.5t160.5 218.5q82 111 165 219.5t169 214.5q59 74 121.5 148t130.5 145l12.5 12.5l21.5 21.5t21.5 17.5 t14.5 4.5q4 -4 -1 -18.5t-14.5 -33t-18.5 -35t-13 -22.5q-57 -100 -121 -197.5t-131 -199.5q-78 -115 -157 -226.5t-159 -224.5q-70 -96 -146.5 -199.5t-146.5 -201.5q2 -4 2 -6t2 -7q49 39 119 90.5t141.5 100.5t136 88t107.5 55q6 4 14.5 3t2.5 -11q-6 -12 -15.5 -21.5 t-17.5 -19.5q-45 -45 -101.5 -92t-117 -90t-124 -82t-124.5 -66q-2 -2 -4 -2t-2 -2q31 -104 62.5 -213.5t60.5 -218.5q4 -10 4 -24.5t-17 -12.5q-14 2 -25 9.5t-22 15.5q-25 20 -42 46t-33 54q-33 57 -62 134t-45 143q-53 -72 -103.5 -142.5t-107.5 -136.5 q-12 -16 -29.5 -32.5t-33.5 -16.5q-29 0 -39.5 21.5z" />
<glyph unicode="l" horiz-adv-x="313" d="M-66 47v6q0 25 16 55q18 32 32 56q113 178 243 354q102 137 191.5 261t187.5 255q82 111 165 219.5t171 214.5q61 74 121.5 150t128.5 143q2 2 12 12.5t21.5 21.5t22 17.5t14.5 4.5q4 -4 0.5 -13.5t-8.5 -20.5t-10 -21.5t-7 -14.5q-63 -115 -134 -223.5t-143 -216.5 q-78 -115 -156.5 -226.5t-158.5 -224.5q-104 -145 -210.5 -286.5t-213.5 -284.5q-16 -23 -33.5 -45.5t-33.5 -44.5q141 100 286 188q2 2 13.5 9t26 14.5t26.5 12.5t16 3t-5 -9t-19 -18q-37 -33 -75 -62.5t-75 -60.5q-55 -43 -108.5 -86t-106.5 -90q-20 -16 -39.5 -34.5 t-40.5 -36.5q-16 -14 -34.5 -24.5t-41.5 -2.5q-39 12 -41 49z" />
<glyph unicode="m" horiz-adv-x="1060" d="M-70 6q0 70 36 137.5t77 130.5q16 27 51 70t79 94t93 105.5t95.5 102.5t84 87t60.5 58q8 6 6 -6.5t-9 -31t-15.5 -36t-10.5 -19.5q-29 -53 -65.5 -106t-76.5 -107.5t-78 -107.5t-69 -109q78 63 151 129t139.5 123.5t128 103.5t116.5 72q27 12 59 -2q23 -14 29 -38.5 t-8 -47.5q-53 -74 -113.5 -139.5t-116.5 -136.5q106 66 201.5 146.5t192.5 162.5q29 25 61.5 51.5t71.5 38.5q14 4 28.5 4t28.5 -8q23 -12 30 -37.5t-9 -48.5q-14 -23 -32 -42t-34 -40q-20 -27 -41.5 -51.5t-44.5 -48.5q-43 -49 -83 -101.5t-75 -105.5q-47 -68 -75 -141 q41 31 84 60.5t86 59.5q8 6 50 34t90 58.5t88 53t44 16.5q2 -2 -8 -11t-23.5 -20.5t-26 -22.5t-18.5 -15q-23 -20 -46 -39t-46 -37q-53 -41 -106.5 -85t-106.5 -89q-14 -12 -31.5 -30.5t-29.5 -29.5q-20 -20 -47 -34.5t-54 8.5q-10 8 -14 19t-8 24q-4 31 2 62.5t16 64 t24.5 62.5t28.5 56q29 57 77 125t87 117q-72 -45 -139.5 -98t-134.5 -111q-10 -8 -48 -43t-82 -69.5t-85 -60t-56 -15.5q-12 8 -2.5 36.5t30 69.5t48 87t55 89t50 77t32.5 48q-150 -106 -282.5 -238t-253.5 -288q-8 -10 -15.5 -21.5t-19.5 -17.5q-25 -10 -47.5 3.5 t-24.5 39.5z" />
<glyph unicode="n" horiz-adv-x="729" d="M-72 43v6q0 33 36 99q40 72 107.5 161.5t154.5 186t180 174.5q20 16 44.5 35.5t43.5 23.5q4 0 -3.5 -12t-19.5 -29.5t-25.5 -36t-21.5 -30.5q-39 -53 -63.5 -88t-47 -68t-50 -71t-75.5 -99q72 57 153 123.5t161 130t152.5 115t129.5 77.5q29 12 60 -4q23 -12 29 -37.5 t-11 -46.5q-31 -47 -85 -100t-97 -102t-83 -100.5t-75 -106.5q-20 -33 -41.5 -68t-34.5 -74q41 33 84 63t86 58q6 4 28 18.5t51.5 34t62.5 41t61.5 38t48 25.5t21.5 5t-8.5 -14.5t-23.5 -21.5t-26.5 -21.5t-15.5 -12.5q-23 -18 -46.5 -36.5t-47.5 -36.5 q-66 -53 -139.5 -103.5t-139.5 -115.5q-10 -8 -21 -17.5t-24.5 -15.5t-27 -6t-27.5 12q-25 16 -24 53t14.5 79t32 81t30.5 61q29 55 76 121t84 115q-70 -43 -130 -79t-121.5 -85t-127 -119.5t-141.5 -185.5q-8 -10 -16.5 -21.5t-20.5 -15.5q-23 -10 -46.5 3t-23.5 40z" />
<glyph unicode="o" horiz-adv-x="620" d="M0 137q8 53 29.5 101.5t54.5 95.5q29 41 72 90t97 97t116.5 92t126.5 73t126 40q25 4 50 4q36 0 69 -9q27 -8 43.5 -27.5t14.5 -17.5q-6 2 -17.5 5t-31.5 5q-10 1 -21 1l-57 -8q-39 -11 -78 -32.5t-79 -51.5t-81 -63q-18 -16 -67.5 -65t-99.5 -113.5t-88 -135.5t-38 -128 q59 8 139 58.5t156 119t137.5 145t83.5 140.5q8 20 10.5 39.5t-3.5 42.5q-4 12 -5 14q2 8 17.5 -9t21.5 -42q9 -32 9 -64q0 -62 -32 -126q-48 -98 -133 -182.5t-186.5 -146t-183.5 -81.5q-28 -8 -54 -8t-50 8q-42 16 -58 57q-12 30 -12 60q0 11 2 22z" />
<glyph unicode="p" horiz-adv-x="729" d="M-813 -1118q-2 10 2 22.5t8 22.5q8 20 16.5 39.5t18.5 38.5q61 123 134 236.5t145 228.5q55 86 110 170t115 170q31 43 71.5 102t86 121.5t89.5 123t78.5 108.5t56.5 78l21 30q47 59 86 108q35 41 64.5 79t40.5 48q2 2 17 17.5t34.5 35t42 38t39.5 26.5q14 8 22 4 q10 -4 7 -18q-8 -35 -18.5 -61.5t-24 -51.5t-28.5 -49.5t-36 -56.5q10 10 19.5 17t17.5 15q82 76 156.5 123t135 71.5t104.5 30t63 -3.5q31 -14 29.5 -50t-22 -82t-52 -98t-64.5 -98t-59.5 -80t-34.5 -44l-43 -51q59 41 118.5 80.5t125.5 74.5q4 4 21.5 12.5t19.5 4.5 q2 -2 -7 -11q-49 -53 -110.5 -102t-124.5 -92q-98 -68 -195.5 -122t-179.5 -75q-16 -4 -36.5 -9t-40 -8t-35 -5t-21.5 0q-16 4 -20.5 18.5t6.5 26.5q4 6 27.5 18.5t31.5 16.5q2 2 13.5 7t24.5 12t26.5 14.5t21.5 13.5q39 27 80 62.5t79 73.5t73.5 76t64.5 70q47 61 92 134 t74 139q-53 -8 -118.5 -48t-137.5 -100.5t-145.5 -135.5t-140 -150.5t-124 -148.5t-96.5 -130q-84 -123 -166 -242.5t-168 -242.5q-86 -125 -175 -251t-185 -245q-20 -25 -41 -49.5t-45 -44.5q-6 -4 -18.5 -11.5t-16.5 9.5z" />
<glyph unicode="q" horiz-adv-x="653" d="M-396 -1064q3 15 10 32.5t14 34t12 22.5q41 92 97 181t109 176q74 119 151 234.5t155 231.5q12 18 39.5 60.5t60.5 92.5t68.5 104.5t65.5 100.5t50.5 76.5t24.5 34.5q-31 -27 -60.5 -52t-60.5 -54q-45 -41 -104.5 -79t-106.5 -75q-12 -10 -29.5 -22t-35 -20.5t-36 -9.5 t-34.5 13q-23 18 -24 46t5 55q35 96 95.5 182t136.5 160t163 134t179 105q29 12 73 23.5t90 14.5q13 1 25 1q32 0 61 -6q41 -8 64 -33q2 -2 5 -10t-3 -6q-8 2 -20.5 6t-24.5 4q-10 1 -20 1q-38 0 -78 -12q-51 -15 -102.5 -43t-98.5 -60.5t-82 -63.5q-20 -16 -60 -55 t-86 -90.5t-90 -112.5t-73 -125q123 80 256 174t258 205q12 10 30.5 26.5t35 31t32 25.5t21.5 11q16 4 26.5 -7t6.5 -26q0 -2 -19.5 -30.5t-49.5 -74.5t-69 -103.5t-77 -116.5q-29 -47 -58.5 -93t-60.5 -94q-49 -78 -102.5 -154.5t-106.5 -154.5q-82 -117 -161 -231.5 t-163 -229.5q-59 -84 -120.5 -166.5t-129.5 -160.5q-4 -4 -12 -13.5t-19.5 -19.5t-21.5 -16.5t-16 0.5q-8 6 -5 21z" />
<glyph unicode="r" horiz-adv-x="487" d="M-180 164q-2 4 31.5 30.5t85 67.5t113 90t115.5 98.5t93 92.5t45 71q-1 14 -1 29q0 23 2 49q3 43 32 76q25 27 59.5 27t50.5 -37q9 -20 8 -39q0 -17 -6 -32q-14 -34 -30 -64q-4 -10 -8 -18.5t-4 -20.5q4 -29 15 -54.5t25 -54.5q11 -29 11 -56q1 -11 -1 -21 q-6 -36 -34 -70q-25 -35 -51.5 -71t-51.5 -71q47 31 92.5 64t92.5 63q6 4 34.5 23.5t62.5 39t60.5 35t30.5 9.5q2 -4 -16.5 -20.5t-43 -38t-49 -41t-32.5 -27.5q-33 -25 -64.5 -50.5t-64.5 -49.5q-49 -41 -94 -82t-90 -86l-27.5 -27.5t-30.5 -24.5q-29 -16 -59.5 -2.5 t-32.5 47.5q-1 6 -1 12q1 27 15 54q18 33 33 57q47 78 98.5 151t96.5 150q8 12 3 31t-9 35q-68 -61 -154 -126t-162 -116t-130 -79.5t-58 -22.5z" />
<glyph unicode="s" horiz-adv-x="438" d="M-176 165q0 8 54 49q58 44 141 108.5t170 142.5t141 153q18 29 36.5 56.5t41.5 56.5q23 23 50 39t60 16q29 0 49.5 -20t22.5 -49q2 -23 -8.5 -41.5t-25.5 -33.5t-32.5 -29.5t-27.5 -32.5q-20 -35 -36 -74t-28 -78q-12 -43 -23.5 -83t-21.5 -81q-20 -72 -63 -135t-109 -98 q-68 -34 -134 -34q-10 0 -20 1q-41 6 -67 22q-2 0 -12.5 6.5t-21.5 12.5t-18.5 13t-4.5 11q2 4 22.5 -3t24.5 -7q27 -8 59 -8q59 4 104 39q39 29 71 76t38 94q8 47 15.5 97t13.5 104q-51 -47 -127 -100.5t-148 -97.5q-72 -43 -126 -71q-44 -23 -56 -23q-4 0 -4 2z" />
<glyph unicode="t" horiz-adv-x="327" d="M-65.5 67.5q6.5 24.5 19.5 48t23 40.5q20 35 41 65.5t43 63.5q78 117 159 227.5t161 224.5q23 31 60.5 82t81.5 110.5t93.5 124t94.5 124.5q-47 -4 -102.5 -10.5t-111 -10.5t-106.5 -7t-90 -3q-82 0 -82 14q-2 6 18.5 14.5t57.5 18.5q106 31 235 47t256 39q37 47 61.5 80 t31.5 39q80 100 160.5 200.5t172.5 190.5q2 2 11.5 10t18.5 13.5t14.5 3.5t-1.5 -17q-27 -59 -58.5 -112.5t-69 -111.5t-83 -125t-100.5 -151q66 8 135.5 15.5t141.5 15.5q190 18 360 35.5t352 34.5q70 6 124 10t93 6q40 3 60 3t20 -3q0 -2 -78 -18q-37 -8 -91 -17.5 t-122 -21.5q-180 -29 -349 -56.5t-359 -56.5q-94 -14 -183.5 -26.5t-173.5 -22.5q-61 -92 -109 -161.5t-65 -92.5q-76 -106 -152.5 -209.5t-154.5 -208.5q-66 -86 -129 -171t-125 -173q72 51 145.5 99.5t149.5 95.5q16 10 32.5 18t33.5 17q18 8 18 4q0 -6 -23.5 -27.5 t-54 -46.5t-59.5 -46.5t-39 -29.5q-53 -43 -106.5 -86t-106.5 -90q-20 -16 -39.5 -34.5t-40.5 -37.5q-16 -14 -34.5 -24t-43.5 -2q-29 10 -36 30.5t-0.5 45z" />
<glyph unicode="u" horiz-adv-x="708" d="M-14 150q16 40 38.5 77t34.5 58q53 82 120 154.5t140 131.5q41 35 88.5 66t100.5 47q2 0 9 2t14.5 2t11.5 -1t-2 -7q-8 -10 -17.5 -16.5t-19.5 -16.5q-23 -18 -42.5 -38.5t-39.5 -43.5q-43 -49 -85 -105.5t-83 -115.5t-80 -118.5t-76 -114.5q166 106 329 245.5t337 278.5 q25 20 59.5 47t48.5 31q16 2 26.5 -9.5t6.5 -25.5q-2 -8 -18.5 -28.5t-22.5 -28.5t-29.5 -39t-57.5 -74t-71.5 -92t-71.5 -94.5t-58.5 -80t-30.5 -46.5q2 2 30.5 21.5t68.5 48t87 60t88 57.5t70 40t33 8t-12.5 -19.5t-20.5 -17.5q-92 -78 -182 -145q-53 -43 -105.5 -90 t-103.5 -95l-49 -43q-10 -8 -20.5 -14t-22.5 -10q-25 -4 -45.5 11.5t-24.5 39.5q-4 27 8 56.5t27 54.5q31 61 67.5 114.5t91.5 122.5q-57 -47 -110 -94t-107 -94q-45 -41 -90 -80t-92 -76q-12 -10 -29.5 -22.5t-35 -20.5t-36 -8t-34.5 12q-26 19 -26 56q-1 39 16 82z" />
<glyph unicode="v" horiz-adv-x="542" d="M35 66q0 23 8 51t21.5 59t26.5 59.5t24 51.5q41 86 87 171t99 171q14 23 29.5 46t38.5 40q8 8 11 4t3 -13.5t-2 -19.5t-2 -14q-8 -45 -30.5 -103.5t-49.5 -120t-52.5 -120t-41.5 -103.5q20 25 77.5 81t133.5 127t158.5 144.5t153.5 134t118 95.5t53 29q2 -2 -5 -14.5 t-42 -54.5t-105.5 -125t-197.5 -224q-92 -102 -181 -191.5t-188 -185.5q-18 -18 -35.5 -33.5t-46.5 -11.5q-27 4 -46 23.5t-17 46.5z" />
<glyph unicode="w" horiz-adv-x="782" d="M-39.5 36q6.5 23 19.5 46q29 55 63 115q33 57 65.5 113.5t67.5 111.5q33 53 65.5 106.5t73.5 100.5q4 4 11.5 13t15.5 11q4 0 4 -8t-2 -10q-4 -29 -14.5 -55.5t-20.5 -53.5q-23 -59 -47 -119.5t-53 -119.5q61 57 135 125.5t144.5 130t128 106.5t83.5 53q29 10 31 -12 t-11 -61t-38 -89.5t-49.5 -98.5t-43 -87t-22.5 -55q88 86 176 170t181 170q35 33 70.5 64.5t70.5 62.5q2 2 10 9t18.5 14.5t18.5 12.5t10 3t-3 -10.5t-11 -17.5t-12 -17t-9 -10q-29 -37 -58.5 -72t-57.5 -70q-76 -90 -154 -177t-155 -175q-53 -61 -108.5 -121.5 t-113.5 -124.5q-10 -10 -19 -16t-24 -10q-25 -4 -45 12t-22 43q-2 14 3 25.5t9 23.5q35 104 84 203.5t104 212.5q-12 -8 -16 -12q-72 -57 -129 -118t-109.5 -122.5t-103.5 -126t-109 -131.5q-16 -20 -41.5 -20.5t-44.5 16.5q-23 23 -16.5 46z" />
<glyph unicode="x" horiz-adv-x="479" d="M-139 -27q6 10 20.5 25.5t26.5 28.5q29 31 58.5 61.5t58.5 58.5q47 47 94 93.5t96 93.5q2 14 7 61t11.5 104.5t13.5 114t13 88.5q2 6 5 22.5t14 6.5q10 -10 13 -22.5t7 -22.5q16 -61 22.5 -124.5t6.5 -127.5q125 111 268 213q47 33 98 65.5t103 59.5q4 2 18.5 9t18.5 3 q6 -8 -20 -40.5t-59.5 -70.5t-65.5 -70l-38 -38q-45 -47 -92 -93t-94 -91q-4 -4 -22.5 -20.5t-42 -37t-46 -40t-35.5 -27.5q-2 -2 -6 -29.5t-8 -46.5q-4 -31 -12 -67.5t-31 -108.5q-4 -8 -7 -20.5t-13 -16.5q-6 -4 -10.5 7.5t-7.5 25.5t-4 27.5t-1 17.5q-4 33 -5 64.5 t-3 62.5q-72 -51 -146.5 -97t-152.5 -87q-10 -4 -17.5 -8.5t-17.5 -8.5q-4 -2 -12 -5t-4 7z" />
<glyph unicode="y" horiz-adv-x="641" d="M-1051 -1092q-4 4 14.5 11.5t22.5 9.5q41 10 81 25.5t79 31.5q123 51 234.5 124t213 159t194.5 183t179 196q92 104 176 212.5t164 223.5q49 66 95.5 137.5t105.5 155.5q-53 -45 -105.5 -91t-105.5 -93q-45 -41 -90 -80t-92 -76q-12 -10 -28.5 -22.5t-35 -20.5t-37 -8 t-34.5 12q-23 18 -23 47t6 55q12 45 32.5 87t47.5 83q53 82 119.5 155t140.5 132q43 35 89 65.5t100 47.5q2 0 9 2t14 2t11 -1t-2 -7q-8 -10 -17 -16.5t-20 -16.5q-23 -18 -42 -39t-37 -43q-88 -98 -161 -206.5t-145 -219.5q31 20 61 40.5t58 41.5q57 41 112.5 81t108.5 81 q6 6 33 28.5t62.5 54t76.5 68.5t80 71t72 62.5t49 42.5q4 4 16.5 14.5t27.5 22.5t30.5 22.5t23.5 16.5q4 2 19.5 9t17.5 -5q0 -10 -6 -20.5t-10 -20.5q-8 -14 -15.5 -27.5t-17.5 -27.5q-12 -20 -53 -79.5t-98.5 -139.5t-120 -167t-116.5 -162t-91 -124t-39 -53 q-160 -219 -341 -422t-402 -362q-109 -78 -227 -142.5t-249 -99.5q-41 -10 -84 -18.5t-86 -8.5h-23t-22 6z" />
<glyph unicode="z" horiz-adv-x="604" d="M-63 -18q-14 31 5 53t40 43q66 66 143.5 134.5t159.5 136t166 130t163 115.5q-31 -4 -78 -11.5t-98 -15.5t-98 -15t-78 -13q-4 0 -11 -2t-15.5 -3.5t-13.5 -1.5t-5 3q2 4 16 12q25 12 49.5 21.5t49.5 19.5q63 25 125.5 47t128.5 45q31 10 62.5 20.5t62.5 20.5 q25 8 48.5 0t31.5 -37q4 -23 -4.5 -38t-24.5 -28q-55 -41 -109.5 -83.5t-107.5 -92.5q-80 -76 -159 -151.5t-159 -151.5q63 18 127 34.5t127 33.5q31 8 61.5 15t63.5 11q8 2 19.5 4.5t19.5 0.5q6 -2 -3 -9.5t-19 -11.5q-59 -29 -120 -55.5t-120 -50.5q-59 -27 -120.5 -52.5 t-121.5 -52.5q-29 -10 -55.5 -22.5t-54.5 -24.5q-16 -6 -28.5 -10t-29.5 0q-29 10 -36 33z" />
<glyph unicode="{" horiz-adv-x="0" d="M-3654 -365.5q0 9.5 6.5 17.5t18.5 8q74 10 137.5 14t134.5 15q371 41 760 74.5t789 58.5q281 16 556 32.5t556 28.5l2924 99h180h47.5t47.5 -5q2 0 7 -1t1 -3q-8 -4 -16.5 -4t-16.5 -2q-291 -41 -572.5 -61.5t-561 -31.5t-560 -19.5t-565.5 -24.5q-139 -8 -298 -16.5 t-326.5 -17.5t-341 -17t-342 -17.5t-327.5 -17.5t-298 -16q-172 -8 -304 -15.5t-245 -14.5t-217.5 -14.5t-221 -14.5t-256 -16t-321.5 -20q-86 -6 -168 -12t-184 -10q-12 0 -17.5 7t-5.5 16.5z" />
<glyph unicode="|" horiz-adv-x="899" d="M296 191.5q-1 80.5 1 160.5q0 174 4 344t12 344q10 203 25 404q8 94 17.5 188t25.5 187q4 16 6 33.5t10 31.5q4 8 8.5 3t6.5 -9q10 -41 10 -85t2 -85q4 -98 5 -197.5t-1 -199.5q-4 -209 -10 -416t-19 -416q-10 -147 -19 -288.5t-30 -280.5q0 -4 -2 -22.5t-5 -38t-8 -35 t-11 -15.5q-8 2 -13.5 35t-7.5 74t-3 78t-1 45q-2 80 -3 160.5z" />
<glyph unicode="}" horiz-adv-x="0" d="M-1841 -277.5q-2 9.5 2 15.5t10 10t10 4q254 29 511 56.5t519.5 50t534.5 42t559 31.5q90 4 217 9.5t273.5 10.5t301 11t300 11.5t272.5 8.5t219 3q123 2 247 3t247 -9h10t17.5 -1.5t16.5 -3.5t7 -4t-6 -4t-14.5 -3t-16.5 -2l-8 -1q-88 -12 -175 -19.5t-173 -11.5 q-90 -6 -217 -13t-271.5 -15t-298 -16.5t-299 -16.5t-272.5 -15.5t-217 -11.5q-80 -4 -219.5 -14t-313.5 -22.5t-369.5 -25.5t-388 -26.5t-369.5 -25t-314.5 -18.5t-223.5 -9t-94 4q-12 8 -14 17.5z" />
<glyph unicode="~" horiz-adv-x="964" d="M61 502q-4 16 4.5 32.5t18.5 28.5q27 33 63.5 51.5t77.5 28.5t83 13t79 3q61 4 122.5 0t123.5 0q51 4 90 12.5t65 18.5q31 11 54 25q4 -4 0 -11.5t-10.5 -15.5t-12.5 -14l-8 -8q-45 -45 -106.5 -63.5t-122.5 -29.5q-86 -14 -169 -18t-167 -16q-37 -6 -72 -16.5t-70 -30.5 q-14 -4 -28.5 -7.5t-14.5 17.5z" />
<glyph unicode="&#xa1;" horiz-adv-x="735" d="M174 14.5q2 10.5 7 21.5t11.5 21.5t8.5 14.5q29 55 60.5 109.5t64.5 107.5q35 57 71.5 113.5t73.5 111.5q16 27 60 90.5t100.5 143t118 166.5t116 164t93 131.5t49.5 70.5q37 51 73.5 101.5t73.5 99.5q8 10 18.5 26.5t23.5 29.5t28.5 22.5t31.5 3.5q29 -8 32 -30t-7 -44 q-27 -49 -55 -90q-18 -31 -72.5 -111t-128.5 -184.5t-156 -222t-157.5 -224t-135 -188.5t-85.5 -117q-41 -51 -82 -101t-84 -101q-20 -23 -40 -46.5t-42 -46.5q-4 -4 -13.5 -13t-19.5 -20.5t-20.5 -18.5t-14.5 -3q-4 2 -2 12.5zM1342.5 1829.5q5.5 17.5 16.5 33t26.5 28 t27.5 18.5t28.5 11t34 5t32 -7t20.5 -24q12 -33 -8 -62.5t-47 -45.5q-12 -6 -31 -12.5t-38.5 -6.5t-35.5 6.5t-25 22.5q-6 16 -0.5 33.5z" />
<glyph unicode="&#xa2;" horiz-adv-x="1093" d="M58.5 135.5q-9.5 63.5 0.5 118.5q12 66 38 126t59 118q33 59 70.5 113.5t78.5 107.5q84 100 182.5 190t214.5 150q27 12 61 24.5t68.5 19.5t68.5 10t61 -3q10 10 18 18.5t18 16.5q8 6 17.5 11t7.5 -7q-2 -14 -8 -25.5t-13 -25.5q31 -10 46.5 -44t19.5 -69 q-4 -66 -39 -125t-88 -98q-2 -2 -10 -7t-16.5 -10.5t-14.5 -6.5t-4 5q4 16 14.5 30.5t20.5 29.5q31 43 47 86q6 14 11 34.5t5 41t-7 37t-28 22.5q-20 -33 -40.5 -64.5t-40.5 -62.5q-135 -203 -278.5 -398.5t-289.5 -392.5q82 16 156 53.5t145 84.5q53 35 105.5 75.5 t99.5 83.5q45 41 86 82l82 82q4 4 16.5 15.5t18.5 7.5q4 -4 0 -15.5t-10.5 -24.5t-13.5 -24.5t-9 -15.5q-51 -78 -111.5 -149.5t-132.5 -133.5q-51 -45 -103 -83t-112 -70q-55 -31 -114.5 -53.5t-122.5 -30.5q-35 -4 -68 0q-16 -18 -29.5 -35.5t-27.5 -36.5 q-14 -16 -30.5 -33.5t-31.5 -34.5q-6 -6 -6 -1.5t3 11.5t7.5 16t6.5 11q14 29 31.5 56.5t33.5 56.5q-35 10 -63 35q-47 37 -56.5 100.5zM176 218q-4 -40 9.5 -72.5t60.5 -43.5q127 193 255 382.5t263 373.5q31 43 61.5 84t63.5 82q-39 -8 -75 -24.5t-69 -34.5 q-57 -35 -109 -77t-99 -89q-94 -94 -175.5 -202.5t-136.5 -231.5q-12 -27 -28.5 -67t-20.5 -80z" />
<glyph unicode="&#xa3;" horiz-adv-x="1314" d="M-68 664q4 16 27 21t39 11q115 27 238.5 49.5t291.5 38.5q49 53 90 101q35 39 69 75.5t46 49.5q88 98 179.5 195.5t195.5 189.5q49 45 102.5 85t112.5 68q29 10 58.5 17.5t58.5 -0.5q37 -10 52 -39t16 -66t-7 -78t-18 -75q-10 -31 -24.5 -65t-37.5 -75q-8 -14 -10 -1.5 t-2 20.5q2 27 11.5 66.5t15.5 80.5t6 80t-17 66q-6 8 -21 3t-22 -9q-86 -41 -155.5 -114t-132.5 -140q-92 -104 -184.5 -207t-184.5 -207q111 10 217.5 16t216.5 2q2 0 10.5 -1t15.5 -3t11 -5t-2 -7q-12 -6 -58 -15.5t-107.5 -19.5t-131.5 -20.5t-127 -19.5t-95 -16t-38 -11 q-47 -53 -92 -105.5t-92 -105.5q-86 -104 -174.5 -209t-165.5 -224q53 4 104 17.5t105 30.5q174 47 340.5 109.5t334.5 123.5q29 10 54.5 18.5t52.5 18.5q10 4 25.5 10t25.5 2q-20 -20 -50 -35.5t-58 -29.5q-170 -90 -345.5 -169t-357.5 -141q-59 -23 -124.5 -42t-131.5 -23 q-18 0 -38.5 4t-37 14.5t-26 27.5t-2.5 44q10 57 47 110.5t71 100.5q80 113 166 220.5t178 213.5q-29 -4 -61.5 -6t-58.5 -6q-92 -10 -183.5 -21.5t-183.5 -11.5q-4 0 -17.5 3t-9.5 20z" />
<glyph unicode="&#xa4;" horiz-adv-x="995" d="M-33 184q14 25 47 62t70 76.5t74 78.5t59 68q-33 35 -33 88q0 39 13.5 78t35 77t47 72.5t52.5 65.5q-10 8 -24.5 21.5t-27 28.5t-21.5 31.5t-9 31.5q0 12 12 12q10 0 27.5 -10.5t34 -23.5t31 -26.5t20.5 -19.5q59 55 136 103.5t155 48.5q16 0 38.5 -4.5t22.5 -20.5 q0 -6 -10 -12t-24.5 -14.5t-30 -14.5t-23.5 -12q-72 -41 -136.5 -102.5t-115.5 -131.5q-6 -8 -21.5 -30.5t-29.5 -48t-25.5 -52t-11.5 -45.5q0 -20 24.5 -25.5t41.5 -5.5q43 0 108.5 22.5t127 62.5t105.5 96.5t44 126.5q0 23 -7 51q-6 -4 -23.5 -14.5t-29.5 -10.5 q-18 0 -17 11.5t10 26.5t23.5 31.5t24.5 29.5q2 4 22.5 22t46 39.5t50.5 39t37 17.5q8 0 8 -8t-9 -23.5t-20.5 -31t-23 -28.5t-17.5 -19q-12 -14 -24.5 -28.5t-28.5 -27.5q35 -53 35 -116t-33 -121t-80 -101q4 -4 18.5 -18t30 -33.5t27.5 -38t12 -30.5t-12 -13 q-12 0 -31.5 12.5t-38 28t-33 30.5t-18.5 24q-66 -49 -142.5 -83t-156.5 -34q-23 0 -44 2t-40 10q-2 0 -40 -39t-87 -87t-97 -88t-69 -40q-10 0 -6 6z" />
<glyph unicode="&#xa5;" horiz-adv-x="1335" d="M-23 473q0 10 16.5 17.5t26.5 13.5q109 53 224.5 87t238.5 64q23 33 34 48.5t22 29.5q-113 -29 -225.5 -54.5t-229.5 -41.5q2 0 -9.5 -1t-25.5 -2t-26.5 -1t-12.5 4q0 14 32 25.5t50 19.5q129 51 261 90t270 74q33 41 53 68.5t43 52.5q-76 143 -125 295q-4 12 -12.5 36.5 t-16.5 53t-14 58.5t-6 52q0 10 2 19.5t6 9.5q6 0 16.5 -10.5t19.5 -23.5t16 -24.5t9 -13.5q47 -80 85 -173t67 -187q111 121 250 223t276 180q4 2 24.5 14.5t47.5 26t52.5 24.5t37.5 11q2 0 6 -2t4 -6q0 -8 -11 -22.5t-24.5 -29t-26.5 -26.5t-18 -16q-90 -86 -191 -161 t-198 -147q-49 -37 -102 -71.5t-109 -63.5q0 -4 4.5 -29.5t4.5 -48.5q0 -25 -9 -24q-10 0 -19 11t-13 18q-4 -12 -10.5 -23.5t-12.5 -22.5q84 20 167 38t169 34q43 8 88 16.5t96 8.5q4 0 10.5 -1t6.5 -5q0 -6 -26 -17.5t-57.5 -24t-60 -21.5t-32.5 -11q-104 -35 -208 -67.5 t-210 -55.5q-10 -20 -21.5 -39.5t-23.5 -40.5q55 10 115.5 22.5t117.5 12.5q10 0 23.5 -2t13.5 -6q0 -6 -21.5 -17.5t-27.5 -13.5q-6 -4 -50 -18.5t-94.5 -31t-90.5 -30.5l-40 -14q-29 -47 -80 -129t-115.5 -181.5t-140 -212t-155.5 -221.5q-12 -16 -27.5 -9t-15.5 24 q0 23 14.5 53.5t24.5 52.5q72 154 154.5 294t177.5 282q-43 -10 -91.5 -23.5t-100.5 -26t-104.5 -20.5t-101.5 -8q-4 0 -19.5 1t-15.5 7z" />
<glyph unicode="&#xa7;" horiz-adv-x="1531" d="M-334 -217q0 53 30 106.5t58 94.5q12 20 36 55t50.5 68.5t51 57t38.5 23.5q2 0 2 -2q0 -16 -11 -32.5t-21 -28.5q-16 -25 -42 -66t-51.5 -87t-44 -93t-18.5 -84q0 -29 13.5 -38t39.5 -9q45 0 94.5 11.5t98.5 29.5t96 39.5t90 42.5q236 102 466 238.5t419 314.5 q18 18 51 52t63.5 74t54 81t23.5 76q0 39 -33.5 60t-119.5 21q-84 0 -165 -11t-161 -25.5t-159.5 -25.5t-159.5 -11q-29 0 -63 5t-61.5 18.5t-46 36t-18.5 59.5q0 39 16.5 75.5t41 70.5t55.5 63.5t59 54.5q123 113 272.5 197.5t305.5 158.5q59 29 119.5 60.5t124 58t131 44 t139.5 17.5q27 0 54.5 -5t49 -17.5t35.5 -29.5t14 -42q0 -23 -18 -52.5t-44 -56t-55.5 -45t-54.5 -18.5v2v2q6 16 24.5 33.5t38 37t36 42t18.5 49.5q0 27 -53 27q-29 0 -64.5 -6.5t-68.5 -14.5t-57.5 -16t-32.5 -11q-80 -33 -153 -75.5t-140 -91.5q-63 -45 -128 -98.5 t-108 -123.5q16 0 29.5 -1t30.5 -1q25 0 47 1t51 1q150 16 292 29.5t296 13.5q61 0 127.5 -7t122 -28.5t93.5 -61t42 -107.5q0 -53 -22.5 -99.5t-58.5 -88.5t-81 -79t-90 -71q-117 -86 -239 -164t-244 -154q-141 -80 -288 -169t-300.5 -172t-314 -155.5t-328.5 -119.5 q-35 -10 -81 -21.5t-93 -11.5q-27 0 -53.5 7t-47 22.5t-34 39t-13.5 56.5zM385 842q2 -6 43 -6q88 0 172 13t168 28.5t168 29t172 13.5q49 0 99 -8.5t90 -31t64.5 -60.5t24.5 -97t-26.5 -117.5t-61.5 -109.5q84 55 165 111.5t159 117.5q18 14 52 40t67 56.5t57.5 63.5 t24.5 63q0 31 -28 49.5t-68.5 29.5t-88 14t-84.5 3q-160 0 -323.5 -22.5t-325.5 -22.5q-23 0 -58.5 2.5t-69.5 12.5t-58.5 31.5t-24.5 62.5q0 45 31 86q-47 -35 -103.5 -78t-107.5 -89t-87 -94t-42 -91z" />
<glyph unicode="&#xa8;" horiz-adv-x="526" d="M43 879q-12 29 4 56.5t39 43.5q12 6 28.5 12t35 8t34 -4t23.5 -20q6 -14 3 -29.5t-13.5 -30t-22.5 -25.5t-24 -18q-20 -12 -56.5 -17t-50.5 24zM303 911q-12 27 4.5 53.5t38.5 43.5q10 6 26.5 12t33 8t32 -3t23.5 -19q12 -29 -10.5 -58.5t-42.5 -42.5q-23 -12 -57 -16 t-48 22z" />
<glyph unicode="&#xa9;" horiz-adv-x="1331" d="M291 911q-8 78 18.5 153t65.5 140q39 61 89 114.5t109 92.5q16 10 30.5 18.5t31.5 14.5q2 0 8 2t13.5 4t11.5 2t2 -4q-8 -10 -21.5 -18.5t-23.5 -18.5q-12 -10 -25.5 -21.5t-26.5 -23.5q-113 -102 -172 -244q-16 -37 -25 -74.5t-14 -78.5q-2 -33 7.5 -70t44.5 -51 q23 -10 50.5 -8t55 10t53 20.5t48.5 22.5q72 39 135 88t121 106q57 59 107 125t85 142q23 49 29 104t-25 103q-23 33 -55.5 47t-69.5 14t-74.5 -8t-68.5 -21q-66 -27 -125 -62.5t-115 -78.5q-31 -23 -60.5 -48.5t-58.5 -53.5q-25 -23 -48 -48.5t-48 -50.5q-10 -8 -15 -9 t1 13q6 16 14 29.5t19 28.5q20 29 41.5 55.5t44.5 50.5q49 53 104 101.5t119 85.5q66 41 140.5 69.5t152.5 24.5q80 -4 136.5 -56.5t70.5 -130.5q10 -51 0.5 -100t-31.5 -96q-33 -74 -80 -138.5t-100 -123.5q-117 -123 -254 -207q-61 -37 -135 -66.5t-150 -19.5 q-59 10 -95 50t-42 99zM483 1079q-4 37 11.5 74t31.5 68q39 68 91.5 122t115.5 97q29 20 65 37.5t72 21.5q37 2 56.5 -23.5t5.5 -60.5q-12 -35 -41 -61.5t-57 -48.5q-29 -23 -66 -43q-2 -2 -16.5 -8.5t-10.5 -0.5q16 20 34 39t34 37q16 20 29.5 42t23.5 44q-41 -20 -85 -52 t-84 -71t-73.5 -83t-54.5 -87q-4 -6 -11 -24.5t1 -22.5q4 -4 13.5 -3t15.5 3q68 12 129 49t118 76q29 20 54.5 40t54.5 40q12 10 18.5 15t16.5 12q4 2 7 1t-1 -5q-25 -29 -77 -76t-113.5 -93.5t-121 -82t-98.5 -39.5q-35 -4 -59.5 13t-28.5 54z" />
<glyph unicode="&#xad;" horiz-adv-x="1081" d="M291 324q-6 14 20.5 25t64.5 20.5t72.5 15.5t43.5 8q135 20 270 31q12 0 48 2t75 3t69.5 -1t30.5 -10q2 -8 -18.5 -16.5t-67.5 -24.5q-29 -10 -59.5 -17.5t-59.5 -15.5q-66 -16 -131 -27.5t-131 -17.5q-33 -4 -64.5 -5t-62.5 1q-12 0 -27.5 1t-30 4t-26.5 8t-16 16z" />
<glyph unicode="&#xae;" horiz-adv-x="1949" d="M799 942q2 78 31.5 150.5t70.5 136.5q20 31 52 67.5t79 75.5t109.5 77t146.5 67q18 6 49 13t62 8t57.5 -7t36.5 -35q8 -23 -2 -47q-10 -29 -37 -48.5t-51 -33.5q-92 -49 -199 -72q23 -70 48.5 -139.5t58.5 -134.5q82 70 152.5 152.5t115.5 181.5q23 47 29 102t-25 105 q-23 33 -55.5 47t-69.5 14t-74.5 -8t-68.5 -21q-66 -27 -125.5 -62.5t-114.5 -78.5q-31 -23 -60.5 -48.5t-58.5 -53.5q-25 -23 -48 -48.5t-48 -50.5q-10 -8 -15 -9t1 13q6 16 14 29.5t19 28.5q20 29 41.5 55.5t44.5 50.5q49 53 104 100.5t119 86.5q66 41 140.5 69.5 t152.5 24.5q80 -4 136.5 -56.5t70.5 -130.5q14 -76 -10.5 -145.5t-63.5 -132.5q-49 -84 -114.5 -156.5t-141.5 -134.5q8 -12 28 -26q0 -2 3 -3l4 -4q0 -4 -8.5 -3t-10.5 1q-16 6 -35 21l-55 -43q-57 -39 -129 -76q-53 -25 -112.5 -42t-118.5 -3q-66 12 -95.5 63.5 t-29.5 112.5zM871.5 953.5q0.5 -11.5 0.5 -21.5q4 -33 21.5 -59.5t56.5 -30.5q35 -4 71 6t69 26q47 20 92 50t88 61q2 2 9 6t3 8q-12 18 -32.5 57.5t-37.5 69.5q-16 35 -30.5 68t-28.5 68q-25 -25 -49.5 -50.5t-48.5 -52.5q-27 -29 -52.5 -56.5t-52.5 -55.5 q-16 -18 -33.5 -38t-35.5 -36q-10 -8 -9.5 -19.5zM874 995q12 16 24.5 35t27.5 35q35 51 72.5 99t74.5 98q6 8 15.5 21t19.5 26.5t18 22.5l7 9q0 4 -4.5 22.5t4.5 27.5q10 10 19 5t13 -14q37 39 76 76q-14 -4 -27.5 -9t-27.5 -11q-37 -14 -72 -43q-126 -108 -196 -262 q-31 -68 -44 -138zM1249 1376q29 10 55.5 22.5t55.5 26.5q16 8 32.5 18.5t28.5 24.5q-23 10 -54.5 8t-68.5 -6q-2 0 -4 -1t-6 -1q8 -10 5 -22t-11 -25.5t-17.5 -26t-15.5 -18.5z" />
<glyph unicode="&#xb4;" horiz-adv-x="563" d="M-74 859q-4 13 21 38q16 18 75.5 41t139.5 46.5t170 48t166.5 44t130 32.5t59.5 17q-2 -4 -27.5 -17t-63.5 -29.5t-84 -37t-87 -38.5t-89 -40t-99.5 -42.5t-99.5 -39t-89 -30.5q-23 -8 -50.5 -11t-48 1t-24.5 17z" />
<glyph unicode="&#xb6;" horiz-adv-x="1705" d="M-286 -519q3 7 8.5 17t10.5 20l5 9q18 35 40.5 65.5t45.5 63.5q94 129 193.5 254t201.5 248q106 127 213 252t215 249q-86 0 -184 9.5t-187 50.5q-49 20 -82.5 58t-31.5 91q4 45 29.5 86t54.5 76q53 59 116.5 106.5t131.5 90.5q70 43 141.5 84t148.5 78q147 76 298 139 t309 119q74 27 147.5 50t147.5 46q154 45 315.5 86t351.5 63q4 0 19.5 3t34 4.5t33 1t14.5 -6.5q0 -4 -12.5 -10t-29 -12t-32 -10t-19.5 -4q-92 -29 -183 -57.5t-189 -57.5q-61 -20 -96 -31.5t-52.5 -17.5t-23 -8.5t-5.5 -4.5q-12 -27 -29.5 -51t-35.5 -53 q-47 -66 -94 -128.5t-94 -123.5q-102 -129 -204 -255t-206 -253q47 10 95 22.5t95 26.5q39 10 76 23.5t76 23.5q18 4 13 -5t-13 -15q-16 -12 -33.5 -21.5t-34.5 -19.5q-80 -41 -161 -74q-16 -6 -51 -19.5t-70 -25.5t-61 -21l-25 -10q-12 -16 -24.5 -31.5t-24.5 -31.5 q-53 -61 -106.5 -125.5t-106.5 -126.5q-98 -119 -197.5 -235.5t-208.5 -227.5q-10 -12 -23.5 -24.5t-25.5 -22.5q-6 -6 -13.5 -11t-15.5 -7q-6 -2 -4 6t7 19.5t10 20.5l6 9q35 66 76.5 125t82.5 119q94 133 189.5 262t193.5 258q-10 -2 -35.5 -3t-35.5 -11 q-55 -66 -108.5 -122.5t-108.5 -121.5l-267 -295q-106 -117 -210.5 -235.5t-210.5 -237.5q-27 -29 -51.5 -56.5t-53.5 -54.5q-25 -31 -51 -49q-8 -18 -23 -18q-4 0 -1 7zM281 868q-4 -14 4 -24t21 -17.5t28.5 -12.5t25.5 -9q84 -23 173.5 -34t185.5 -11q10 0 14 1t12 11 q29 39 63 75t75 77q53 59 105 117.5t108 115.5q49 55 101 109.5t112 103.5q10 10 22 19.5t27 13.5q14 6 12 -7.5t-6 -21.5q-41 -57 -99.5 -135t-123 -161t-129 -163.5t-119.5 -142.5q35 4 53 6q12 14 22.5 27.5t18.5 23.5q20 29 42 54.5t44 54.5q41 53 81 103.5t81 103.5 q84 104 168 204.5t174 198.5q18 20 34.5 39t35.5 39q-29 -10 -61 -21.5t-60 -25.5q-154 -57 -304.5 -120.5t-301.5 -135.5q-74 -37 -148 -77t-145 -83q-70 -41 -137.5 -86t-127.5 -102q-25 -23 -48 -47.5t-33 -59.5z" />
<glyph unicode="&#xbf;" horiz-adv-x="1433" d="M5 142.5q3 27.5 11 52.5q25 63 62 120.5t78 110.5q152 211 320.5 410.5t340.5 394.5q41 47 81 91t81 87q18 20 36.5 38.5l37.5 37.5q4 4 17 16t24 10h2q6 -4 -4.5 -24.5t-14.5 -24.5q-43 -82 -95 -157.5t-105 -153.5q-133 -190 -271.5 -370.5t-279.5 -362.5 q-25 -31 -60 -72t-70.5 -86t-66.5 -89t-47 -81q184 98 353 198.5t356 209.5q8 6 28.5 17t43 22.5t40 18.5t19.5 3q4 -6 -24 -33.5t-64.5 -58.5t-70.5 -57.5t-40 -32.5q-102 -80 -208.5 -158t-229.5 -143q-47 -27 -104.5 -50.5t-112.5 -7.5q-29 8 -43.5 28t-18.5 44.5t-1 52z M1144 1769.5q5 16.5 16 32t26.5 27.5t27.5 18t29 10.5t34 4.5t31.5 -7.5t20.5 -23.5q12 -33 -8.5 -62.5t-46.5 -46.5q-12 -6 -31.5 -12t-39 -6t-36 7.5t-22.5 25.5q-6 16 -1 32.5z" />
<glyph unicode="&#xc0;" d="M-461 453q-4 -4 12.5 -6.5t18.5 -2.5q86 -4 169 0.5t163 10.5q172 14 326.5 34.5t308.5 36.5q-133 -147 -252 -295.5t-230 -302.5q-8 -12 -18 -28.5t-20.5 -34t-18.5 -32.5t-8 -21q0 -4 23.5 16t54.5 49q37 39 72.5 77t70.5 77q129 135 251 262t245 256q51 8 92 16 q35 6 65.5 10.5t36.5 6.5q147 23 285.5 49t279.5 47q-41 -111 -79.5 -222.5t-75.5 -226.5q-35 -106 -68 -211.5t-63 -214.5q-39 -135 -68 -264t-47 -254q0 -4 3 -5t5 3q29 53 45.5 103.5t38.5 103.5q57 160 114.5 309.5t112.5 300.5q63 168 124 316.5t120 290.5 q66 12 132.5 28.5t131.5 32.5q41 12 52.5 16t15.5 9q12 6 -2 7t-35.5 1t-43 -2t-24.5 -2q-51 -6 -100 -11.5t-100 -13.5q47 111 95 218.5t99 215.5q86 176 157 314.5t157 261.5q12 16 25.5 32.5t21.5 35t8 37t-12 36.5q-23 35 -54.5 32t-58.5 -22q-66 -41 -126 -85t-118 -89 q-96 -72 -188 -148.5t-184 -154.5q-186 -160 -355.5 -321.5t-330.5 -333.5q-41 -41 -81 -85t-81 -87q-59 -10 -118.5 -18.5t-119.5 -18.5q-193 -31 -359.5 -54.5t-332.5 -50.5q-10 -2 -34.5 -5t-51.5 -8t-49.5 -10t-24.5 -11zM813 655q121 137 258 277.5t280.5 274.5 t288 257t279.5 226q-29 -53 -63.5 -121t-69.5 -138.5t-66.5 -140t-56.5 -125.5q-8 -20 -23.5 -55t-33 -77t-37 -87t-34.5 -85t-27.5 -68.5t-14.5 -38.5q-72 -10 -140.5 -19.5t-138.5 -19.5q-102 -14 -200.5 -29.5t-200.5 -30.5zM1975 2253q-5 16 5.5 24.5t31 9.5t38.5 -6 q37 -6 80 -19t89 -29.5t91 -34t84 -31.5q39 -16 80 -30.5t77 -28t60.5 -23.5t30.5 -17q-6 2 -50 9.5t-106.5 17.5t-137.5 23.5t-142.5 28t-121 32t-73.5 33.5q-31 25 -36 41z" />
<glyph unicode="&#xc1;" d="M-461 453q2 6 24.5 11t49.5 10t51.5 8t34.5 5q166 27 333 50.5t359 54.5q59 10 118.5 18t119.5 19q41 43 81 87t81 85q162 172 330.5 333.5t355.5 321.5q92 78 184 155t188 148q57 45 118 89t126 85q27 18 58.5 21.5t54.5 -31.5q12 -18 12 -36.5t-8 -37t-21.5 -35 t-25.5 -32.5q-86 -123 -157 -261.5t-157 -314.5q-51 -109 -99 -216t-95 -218q51 8 100 13.5t100 11.5q2 0 24 2t43.5 2t35.5 -1t2 -7q-4 -4 -15.5 -8.5t-52.5 -16.5q-66 -16 -132 -32.5t-132 -28.5q-59 -141 -119.5 -290t-124.5 -317q-55 -152 -112.5 -301t-114.5 -309 q-23 -53 -39 -103.5t-45 -103.5q-2 -4 -5 -3t-3 5q18 125 47 254t68 264q31 109 63.5 214.5t67.5 211.5q37 115 75.5 226.5t79.5 222.5q-141 -20 -279 -47t-286 -49q-6 -2 -36.5 -6.5t-65.5 -10.5q-41 -8 -92 -16q-123 -129 -245 -256t-251 -262q-35 -39 -71 -77t-72 -77 q-31 -29 -54.5 -49.5t-23.5 -15.5q0 6 8 21t18.5 32.5t20.5 34t18 28.5q111 154 229.5 302.5t252.5 295.5q-154 -16 -308.5 -36.5t-326.5 -34.5q-80 -6 -163 -10.5t-169 -0.5q-2 0 -18.5 2.5t-12.5 6.5zM813 655q102 14 200.5 29.5t200.5 30.5q70 10 138.5 19.5t140.5 19.5 q2 10 14.5 38.5t27.5 68.5t34.5 85t37 87t33 77t23.5 55q25 55 56.5 125t66.5 140.5t69.5 138t63.5 121.5q-135 -102 -279.5 -225.5t-288 -257.5t-280.5 -274t-258 -278zM2003 2054q49 33 129 75t168 85t175 82t153 65q20 8 44.5 14.5t43 3.5t24.5 -16.5t-8 -42.5 q-10 -20 -68.5 -48.5t-140.5 -59.5t-174 -61.5t-170 -54t-128 -36t-48 -6.5z" />
<glyph unicode="&#xc2;" d="M-461 453q2 6 24.5 11t49.5 10t51.5 8t34.5 5q166 27 333 50.5t359 54.5q59 10 118.5 18t119.5 19q41 43 81 87t81 85q162 172 330.5 333.5t355.5 321.5q92 78 184 155t188 148q57 45 118 89t126 85q27 18 58.5 21.5t54.5 -31.5q12 -18 12 -36.5t-8 -37t-21.5 -35 t-25.5 -32.5q-86 -123 -157 -261.5t-157 -314.5q-51 -109 -99 -216t-95 -218q51 8 100 13.5t100 11.5q2 0 24 2t43.5 2t35.5 -1t2 -7q-4 -4 -15.5 -8.5t-52.5 -16.5q-66 -16 -132 -32.5t-132 -28.5q-59 -141 -119.5 -290t-124.5 -317q-55 -152 -112.5 -301t-114.5 -309 q-23 -53 -39 -103.5t-45 -103.5q-2 -4 -5 -3t-3 5q18 125 47 254t68 264q31 109 63.5 214.5t67.5 211.5q37 115 75.5 226.5t79.5 222.5q-141 -20 -279 -47t-286 -49q-6 -2 -36.5 -6.5t-65.5 -10.5q-41 -8 -92 -16q-123 -129 -245 -256t-251 -262q-35 -39 -71 -77t-72 -77 q-31 -29 -54.5 -49.5t-23.5 -15.5q0 6 8 21t18.5 32.5t20.5 34t18 28.5q111 154 229.5 302.5t252.5 295.5q-154 -16 -308.5 -36.5t-326.5 -34.5q-80 -6 -163 -10.5t-169 -0.5q-2 0 -18.5 2.5t-12.5 6.5zM813 655q102 14 200.5 29.5t200.5 30.5q70 10 138.5 19.5t140.5 19.5 q2 10 14.5 38.5t27.5 68.5t34.5 85t37 87t33 77t23.5 55q25 55 56.5 125t66.5 140.5t69.5 138t63.5 121.5q-135 -102 -279.5 -225.5t-288 -257.5t-280.5 -274t-258 -278zM1741 2042q61 23 141 54.5t165 61t169 53t156 30.5q43 4 69.5 -13.5t43 -45.5t24.5 -58.5t12 -50.5 v-8.5v-13.5t-2 -12t-4 -5q-10 4 -18.5 15t-16.5 17q-41 53 -59.5 73t-40.5 24q-154 -33 -314.5 -72t-324.5 -49z" />
<glyph unicode="&#xc3;" d="M-461 453q2 6 24.5 11t49.5 10t51.5 8t34.5 5q166 27 333 50.5t359 54.5q59 10 118.5 18t119.5 19q41 43 81 87t81 85q162 172 330.5 333.5t355.5 321.5q92 78 184 155t188 148q57 45 118 89t126 85q27 18 58.5 21.5t54.5 -31.5q12 -18 12 -36.5t-8 -37t-21.5 -35 t-25.5 -32.5q-86 -123 -157 -261.5t-157 -314.5q-51 -109 -99 -216t-95 -218q51 8 100 13.5t100 11.5q2 0 24 2t43.5 2t35.5 -1t2 -7q-4 -4 -15.5 -8.5t-52.5 -16.5q-66 -16 -132 -32.5t-132 -28.5q-59 -141 -119.5 -290t-124.5 -317q-55 -152 -112.5 -301t-114.5 -309 q-23 -53 -39 -103.5t-45 -103.5q-2 -4 -5 -3t-3 5q18 125 47 254t68 264q31 109 63.5 214.5t67.5 211.5q37 115 75.5 226.5t79.5 222.5q-141 -20 -279 -47t-286 -49q-6 -2 -36.5 -6.5t-65.5 -10.5q-41 -8 -92 -16q-123 -129 -245 -256t-251 -262q-35 -39 -71 -77t-72 -77 q-31 -29 -54.5 -49.5t-23.5 -15.5q0 6 8 21t18.5 32.5t20.5 34t18 28.5q111 154 229.5 302.5t252.5 295.5q-154 -16 -308.5 -36.5t-326.5 -34.5q-80 -6 -163 -10.5t-169 -0.5q-2 0 -18.5 2.5t-12.5 6.5zM813 655q102 14 200.5 29.5t200.5 30.5q70 10 138.5 19.5t140.5 19.5 q2 10 14.5 38.5t27.5 68.5t34.5 85t37 87t33 77t23.5 55q25 55 56.5 125t66.5 140.5t69.5 138t63.5 121.5q-135 -102 -279.5 -225.5t-288 -257.5t-280.5 -274t-258 -278zM1927 1991q31 78 96.5 115.5t146.5 53t166 17.5t156 10q47 10 86 22.5t66 24.5q30 15 53 31 q-16 -35 -46 -60.5t-66.5 -44t-76.5 -30.5t-75 -21q-84 -23 -163 -34t-159 -29q-12 -4 -34.5 -8t-50 -11.5t-54 -15.5t-45.5 -20z" />
<glyph unicode="&#xc4;" d="M-461 453q2 6 24.5 11t49.5 10t51.5 8t34.5 5q166 27 333 50.5t359 54.5q59 10 118.5 18t119.5 19q41 43 81 87t81 85q162 172 330.5 333.5t355.5 321.5q92 78 184 155t188 148q57 45 118 89t126 85q27 18 58.5 21.5t54.5 -31.5q12 -18 12 -36.5t-8 -37t-21.5 -35 t-25.5 -32.5q-86 -123 -157 -261.5t-157 -314.5q-51 -109 -99 -216t-95 -218q51 8 100 13.5t100 11.5q2 0 24 2t43.5 2t35.5 -1t2 -7q-4 -4 -15.5 -8.5t-52.5 -16.5q-66 -16 -132 -32.5t-132 -28.5q-59 -141 -119.5 -290t-124.5 -317q-55 -152 -112.5 -301t-114.5 -309 q-23 -53 -39 -103.5t-45 -103.5q-2 -4 -5 -3t-3 5q18 125 47 254t68 264q31 109 63.5 214.5t67.5 211.5q37 115 75.5 226.5t79.5 222.5q-141 -20 -279 -47t-286 -49q-6 -2 -36.5 -6.5t-65.5 -10.5q-41 -8 -92 -16q-123 -129 -245 -256t-251 -262q-35 -39 -71 -77t-72 -77 q-31 -29 -54.5 -49.5t-23.5 -15.5q0 6 8 21t18.5 32.5t20.5 34t18 28.5q111 154 229.5 302.5t252.5 295.5q-154 -16 -308.5 -36.5t-326.5 -34.5q-80 -6 -163 -10.5t-169 -0.5q-2 0 -18.5 2.5t-12.5 6.5zM813 655q102 14 200.5 29.5t200.5 30.5q70 10 138.5 19.5t140.5 19.5 q2 10 14.5 38.5t27.5 68.5t34.5 85t37 87t33 77t23.5 55q25 55 56.5 125t66.5 140.5t69.5 138t63.5 121.5q-135 -102 -279.5 -225.5t-288 -257.5t-280.5 -274t-258 -278zM2023 2073q-12 29 4.5 56.5t38.5 43.5q12 6 28.5 12t35 8t34 -4t23.5 -20q6 -14 3 -29.5t-13 -30 t-22.5 -25.5t-24.5 -18q-20 -12 -56 -17t-51 24zM2284 2105q-12 27 4 53.5t39 43.5q10 6 26.5 12t32.5 8t31.5 -3t23.5 -19q12 -29 -10.5 -59t-42.5 -42q-23 -12 -56.5 -16t-47.5 22z" />
<glyph unicode="&#xc5;" d="M-461 453q2 6 24.5 11t49.5 10t51.5 8t34.5 5q166 27 333 50.5t359 54.5q59 10 118.5 18t119.5 19q41 43 81 87t81 85q162 172 330.5 333.5t355.5 321.5q92 78 184 155t188 148q57 45 118 89t126 85q27 18 58.5 21.5t54.5 -31.5q12 -18 12 -36.5t-8 -37t-21.5 -35 t-25.5 -32.5q-86 -123 -157 -261.5t-157 -314.5q-51 -109 -99 -216t-95 -218q51 8 100 13.5t100 11.5q2 0 24 2t43.5 2t35.5 -1t2 -7q-4 -4 -15.5 -8.5t-52.5 -16.5q-66 -16 -132 -32.5t-132 -28.5q-59 -141 -119.5 -290t-124.5 -317q-55 -152 -112.5 -301t-114.5 -309 q-23 -53 -39 -103.5t-45 -103.5q-2 -4 -5 -3t-3 5q18 125 47 254t68 264q31 109 63.5 214.5t67.5 211.5q37 115 75.5 226.5t79.5 222.5q-141 -20 -279 -47t-286 -49q-6 -2 -36.5 -6.5t-65.5 -10.5q-41 -8 -92 -16q-123 -129 -245 -256t-251 -262q-35 -39 -71 -77t-72 -77 q-31 -29 -54.5 -49.5t-23.5 -15.5q0 6 8 21t18.5 32.5t20.5 34t18 28.5q111 154 229.5 302.5t252.5 295.5q-154 -16 -308.5 -36.5t-326.5 -34.5q-80 -6 -163 -10.5t-169 -0.5q-2 0 -18.5 2.5t-12.5 6.5zM813 655q102 14 200.5 29.5t200.5 30.5q70 10 138.5 19.5t140.5 19.5 q2 10 14.5 38.5t27.5 68.5t34.5 85t37 87t33 77t23.5 55q25 55 56.5 125t66.5 140.5t69.5 138t63.5 121.5q-135 -102 -279.5 -225.5t-288 -257.5t-280.5 -274t-258 -278zM2163 2095q0 27 14 53.5t31 49.5q35 47 95 83.5t126 42.5q23 2 47.5 2.5t36.5 -20.5q-4 0 -8 2 q-4 0 -9.5 1t-15.5 1q-14 0 -26.5 -2t-22.5 -6q-47 -18 -85 -50t-62 -71q-10 -18 -20.5 -37.5t-10.5 -40.5q33 2 62.5 13.5t58.5 25.5q47 29 101 68t77 86q2 10 2 24v7.5t8 -0.5q19 -6 27 -31q10 -43 -15.5 -86t-68.5 -80t-93.5 -63.5t-91.5 -34.5q-23 -6 -45 -9.5t-45 0.5 q-31 4 -49 24.5t-18 47.5z" />
<glyph unicode="&#xc6;" horiz-adv-x="2949" d="M-479 483q4 4 23.5 8.5t44 9.5t48 9t39.5 6q53 10 108.5 17.5t109.5 15.5q170 29 337.5 52.5t337.5 49.5q39 41 77 83t79 83q158 166 321.5 324.5t337.5 306.5q88 76 176.5 148.5t180.5 142.5q47 35 93 68.5t93 66.5q18 14 42 30.5t48 22.5q18 4 38 -5t30 -26 q23 -33 6 -69q-18 -31 -47 -66q-27 -35 -50.5 -71.5t-45.5 -73.5q-41 -68 -79 -136.5t-73 -138.5q68 14 136.5 26.5t138.5 25.5q115 18 227 36.5t227 34.5q113 16 224.5 31.5t226.5 32.5q55 8 110.5 15t110.5 13q4 0 27.5 3.5t50 6.5t48 3t25.5 -6q2 -6 -16 -15.5t-45 -19.5 t-54.5 -19.5t-45.5 -13.5q-109 -35 -216.5 -63.5t-217.5 -55.5q-113 -27 -225.5 -50t-229.5 -46q-29 -6 -102.5 -16.5t-156.5 -22.5t-156 -21.5t-99 -11.5q-14 -2 -27.5 -3t-30.5 -1q-49 -104 -95 -206.5t-89 -206.5q8 0 51 6t104.5 15t131 18.5t131 18.5t103.5 14t51 7 q45 4 91 10.5t97 6.5q4 0 14.5 -2t-0.5 -8q-4 -4 -15 -7.5t-50 -15.5q-35 -10 -101.5 -22.5t-148.5 -26.5t-168 -27.5t-155.5 -25t-114.5 -18.5l-45 -7l-36 -82t-34 -84q-41 -104 -80 -207.5t-78 -208.5q-12 -33 -24.5 -64.5t-24.5 -66.5q59 12 116.5 23.5t117.5 21.5 q225 41 448 76t451 70q27 4 81 14t112.5 18.5t108.5 13.5t68 -1q4 -2 -3 -5t-9 -5q-119 -49 -247 -85t-259 -65t-263 -52.5t-257 -47.5q-27 -6 -96.5 -17.5t-148.5 -23.5t-151.5 -22.5t-105.5 -14.5q-16 -43 -29.5 -85t-29.5 -83q-16 -47 -33.5 -93t-34.5 -93 q-18 -49 -34.5 -100.5t-45.5 -98.5q-8 -8 -8 2q-4 25 2 52.5t10 54.5q20 98 45 195t54 196l12 43q-31 -4 -61.5 -5t-61.5 -3h-28.5t-44 2t-36 6t-3.5 14q8 8 24 14q25 10 56.5 18.5t84.5 22.5q25 6 48.5 12.5t48.5 10.5q20 70 40.5 138.5t43.5 135.5q35 111 72.5 217.5 t78.5 212.5q-135 -25 -270 -48t-273 -44q-43 -6 -94 -14t-92 -17l-10 -10l-85 -85t-93 -97q-74 -76 -145.5 -151.5t-143.5 -153.5q-35 -37 -68.5 -74t-68.5 -74q-29 -29 -52.5 -48t-23.5 -15q0 6 3 13t5 11q47 86 108.5 166t129.5 166q135 168 280 330q-154 -20 -305 -38.5 t-305 -29.5q-78 -6 -159 -13t-161 3q-2 0 -18 2t-12 6zM748 678q162 25 325.5 47t327.5 47q43 106 83 215t95 213h-2q-23 2 -45.5 4t-44.5 8q-10 2 -20.5 9.5t-0.5 17.5q10 14 32 22.5t38 14.5q23 6 44.5 13t43.5 11q68 145 145 285q-92 -70 -179 -142.5t-175 -146.5 q-174 -147 -339 -302.5t-328 -315.5z" />
<glyph unicode="&#xc7;" horiz-adv-x="1640" d="M2 -829q-4 10 9.5 18t19.5 12q39 29 77.5 54.5t77.5 54.5q51 39 100.5 85t84.5 101q16 27 30.5 57.5t16.5 71.5q-80 -10 -160 2.5t-143 65.5q-37 29 -61.5 67.5t-37.5 83.5q-27 98 -12.5 204t51.5 210t89.5 201.5t101.5 177.5q121 197 266 373t319 327q80 70 171.5 139.5 t190.5 124t205.5 89t217.5 39.5q47 0 92 -7.5t88 -29.5q47 -29 70.5 -79.5t25.5 -103.5q0 -76 -28.5 -147.5t-69.5 -132.5q-63 -94 -143 -158q-2 -2 -11.5 -9t-21.5 -15.5t-21.5 -13.5t-11.5 -1q-2 6 5 16.5t14 16.5q35 53 75.5 105.5t69.5 115.5q25 49 41 103.5t12 109.5 q-4 61 -42 91t-101 30q-49 2 -96 -7t-95 -26q-160 -53 -299 -153.5t-258 -212.5q-168 -156 -312 -337.5t-257 -379.5q-20 -33 -51 -92.5t-62.5 -131t-58.5 -150.5t-37 -150.5t1 -132t56 -95.5q45 -45 113 -50t146.5 16.5t162.5 62.5t160 86t139.5 87t102.5 66q94 61 182 130 t174 145q113 98 212 206.5t204 213.5q2 2 7 8t11 12t12.5 9.5t10.5 -1.5q0 -16 -10.5 -32.5t-18.5 -30.5q-49 -86 -108.5 -163t-122.5 -152q-70 -80 -145.5 -156t-157.5 -146q-86 -74 -178.5 -139t-190.5 -123q-92 -53 -191.5 -96t-203.5 -65q12 -41 6 -82 q-12 -86 -72.5 -155t-128.5 -118q-37 -27 -77 -48t-81 -40q-68 -23 -104.5 -31t-40.5 5z" />
<glyph unicode="&#xc8;" horiz-adv-x="1622" d="M-272.5 -227q-10.5 -47 5 -84t68.5 -56q53 -20 119 -18t133.5 15.5t131 33t116.5 33.5q248 70 486.5 159t474.5 187q78 35 152.5 66.5t150.5 70.5q4 2 15 10.5t9 12.5h-8q-90 -16 -176 -45t-172 -56q-248 -74 -493.5 -151.5t-497.5 -134.5q-90 -20 -179.5 -38t-181.5 -14 q82 125 173 243t188.5 231.5t196 224t194.5 225.5q84 98 166 194.5t166 196.5q139 39 279 69t280 71q6 2 36.5 10t64.5 19.5t60.5 22.5t24.5 19q-2 6 -30.5 6t-63.5 -3t-64.5 -8t-33.5 -5q-117 -16 -233 -39.5t-232 -48.5q47 55 89 110.5t83 114.5q2 4 11 19.5t17.5 31 t10.5 26.5t-7 7q-31 -12 -67.5 -46t-61.5 -56q-66 -59 -128 -122t-123 -128q-123 -29 -237 -58.5t-218 -74.5q-4 -2 -8 -5t-4 -5q0 -8 27.5 -8.5t62.5 3t65.5 8.5t34.5 5q43 6 87 13t87 17q-217 -227 -427 -455.5t-406 -473.5q-16 -20 -48 -58.5t-65 -85.5t-61.5 -99 t-39 -99zM694 1536q-4 -12 32 -16t92 -3t125 5t130.5 9t105.5 9t50 6q131 20 261 42t261 48q219 45 439 84t438 99q2 0 15 3t27.5 8t27 10t14.5 11q-4 4 -27 5.5t-50.5 -1t-51 -4.5t-27.5 -2q-260 -27 -517 -59.5t-517 -69.5q-131 -18 -260 -39.5t-261 -48.5 q-68 -14 -149.5 -31.5t-136.5 -46.5q-14 -8 -21 -18zM1525 2144.5q-5 16.5 5 24.5t30.5 9t38.5 -5q37 -6 80 -19.5t89.5 -30t91.5 -33.5t84 -32q39 -16 79.5 -30.5t76.5 -27.5t60.5 -23.5t30.5 -16.5q-6 2 -50 9t-106.5 17.5t-137 23.5t-142 27.5t-121 31t-73.5 34.5 q-31 25 -36 41.5z" />
<glyph unicode="&#xc9;" horiz-adv-x="1622" d="M-272.5 -227q10.5 47 39 99t61.5 99t64.5 85t48.5 59q197 246 406.5 474t426.5 455q-43 -10 -87 -17t-87 -13q-4 0 -34.5 -5t-65.5 -8.5t-62.5 -3.5t-27.5 9q0 2 4 5t8 5q104 45 218 74.5t237 58.5q61 66 123.5 128t127.5 122q25 23 62 56.5t67 45.5q8 4 6.5 -7 t-10 -26.5t-17.5 -31t-11 -19.5q-41 -59 -83 -114.5t-89 -110.5q117 25 232.5 48.5t232.5 39.5q4 0 33.5 5t64.5 8t63.5 3t30.5 -6q2 -8 -24.5 -19t-60.5 -22.5t-64.5 -19.5t-36.5 -10q-139 -41 -279.5 -71t-279.5 -69q-84 -100 -166 -196.5t-166 -194.5 q-96 -115 -194.5 -225.5t-196 -224t-188.5 -231.5t-173 -243q92 -4 181.5 13.5t179.5 38.5q252 57 497.5 135t493.5 151q86 27 172 55.5t176 45.5h8q2 -4 -9 -12.5t-15 -10.5q-76 -39 -151 -70.5t-152 -66.5q-236 -98 -474.5 -187t-486.5 -159q-53 -14 -116.5 -33.5 t-131 -33t-133 -15.5t-119.5 18q-53 18 -68.5 55.5t-5 84.5zM694 1536q6 10 21 18q55 29 137 46.5t149 31.5q131 27 260.5 48.5t260.5 39.5q260 37 517 70t517 59q4 0 27.5 2t51 4.5t50.5 1t27 -5.5q-2 -6 -14.5 -11t-27 -10t-27.5 -8t-15 -3q-217 -59 -437.5 -98.5 t-439.5 -84.5q-131 -27 -261 -48t-261 -42q-6 -2 -50 -6t-105.5 -9t-130.5 -9t-125 -5t-92 3t-32 16zM1503 1851q49 33 129 75t168 85t175 82t153 66q20 8 45 14t43 3t24 -16t-8 -42q-10 -20 -68.5 -49t-140 -60t-174 -61.5t-170 -54t-128 -36t-48.5 -6.5z" />
<glyph unicode="&#xca;" horiz-adv-x="1622" d="M-272.5 -227q10.5 47 39 99t61.5 99t64.5 85t48.5 59q197 246 406.5 474t426.5 455q-43 -10 -87 -17t-87 -13q-4 0 -34.5 -5t-65.5 -8.5t-62.5 -3.5t-27.5 9q0 2 4 5t8 5q104 45 218 74.5t237 58.5q61 66 123.5 128t127.5 122q25 23 62 56.5t67 45.5q8 4 6.5 -7 t-10 -26.5t-17.5 -31t-11 -19.5q-41 -59 -83 -114.5t-89 -110.5q117 25 232.5 48.5t232.5 39.5q4 0 33.5 5t64.5 8t63.5 3t30.5 -6q2 -8 -24.5 -19t-60.5 -22.5t-64.5 -19.5t-36.5 -10q-139 -41 -279.5 -71t-279.5 -69q-84 -100 -166 -196.5t-166 -194.5 q-96 -115 -194.5 -225.5t-196 -224t-188.5 -231.5t-173 -243q92 -4 181.5 13.5t179.5 38.5q252 57 497.5 135t493.5 151q86 27 172 55.5t176 45.5h8q2 -4 -9 -12.5t-15 -10.5q-76 -39 -151 -70.5t-152 -66.5q-236 -98 -474.5 -187t-486.5 -159q-53 -14 -116.5 -33.5 t-131 -33t-133 -15.5t-119.5 18q-53 18 -68.5 55.5t-5 84.5zM694 1536q6 10 21 18q55 29 137 46.5t149 31.5q131 27 260.5 48.5t260.5 39.5q260 37 517 70t517 59q4 0 27.5 2t51 4.5t50.5 1t27 -5.5q-2 -6 -14.5 -11t-27 -10t-27.5 -8t-15 -3q-217 -59 -437.5 -98.5 t-439.5 -84.5q-131 -27 -261 -48t-261 -42q-6 -2 -50 -6t-105.5 -9t-130.5 -9t-125 -5t-92 3t-32 16zM1378 1915q61 23 141 54.5t165 61t169 53t156 30.5q43 4 69.5 -13.5t43 -45t25 -58.5t12.5 -51v-8.5v-13.5t-2.5 -12t-4.5 -5q-10 4 -18 15t-16 17q-41 53 -59.5 73 t-41.5 24q-154 -33 -314.5 -72t-324.5 -49z" />
<glyph unicode="&#xcb;" horiz-adv-x="1622" d="M-272.5 -227q10.5 47 39 99t61.5 99t64.5 85t48.5 59q197 246 406.5 474t426.5 455q-43 -10 -87 -17t-87 -13q-4 0 -34.5 -5t-65.5 -8.5t-62.5 -3.5t-27.5 9q0 2 4 5t8 5q104 45 218 74.5t237 58.5q61 66 123.5 128t127.5 122q25 23 62 56.5t67 45.5q8 4 6.5 -7 t-10 -26.5t-17.5 -31t-11 -19.5q-41 -59 -83 -114.5t-89 -110.5q117 25 232.5 48.5t232.5 39.5q4 0 33.5 5t64.5 8t63.5 3t30.5 -6q2 -8 -24.5 -19t-60.5 -22.5t-64.5 -19.5t-36.5 -10q-139 -41 -279.5 -71t-279.5 -69q-84 -100 -166 -196.5t-166 -194.5 q-96 -115 -194.5 -225.5t-196 -224t-188.5 -231.5t-173 -243q92 -4 181.5 13.5t179.5 38.5q252 57 497.5 135t493.5 151q86 27 172 55.5t176 45.5h8q2 -4 -9 -12.5t-15 -10.5q-76 -39 -151 -70.5t-152 -66.5q-236 -98 -474.5 -187t-486.5 -159q-53 -14 -116.5 -33.5 t-131 -33t-133 -15.5t-119.5 18q-53 18 -68.5 55.5t-5 84.5zM694 1536q6 10 21 18q55 29 137 46.5t149 31.5q131 27 260.5 48.5t260.5 39.5q260 37 517 70t517 59q4 0 27.5 2t51 4.5t50.5 1t27 -5.5q-2 -6 -14.5 -11t-27 -10t-27.5 -8t-15 -3q-217 -59 -437.5 -98.5 t-439.5 -84.5q-131 -27 -261 -48t-261 -42q-6 -2 -50 -6t-105.5 -9t-130.5 -9t-125 -5t-92 3t-32 16zM1542 1892q-12 29 4.5 56.5t38.5 44.5q12 6 28.5 12t35 8t34 -4t23.5 -20q6 -14 3 -29.5t-13 -30t-22.5 -26t-24.5 -17.5q-20 -12 -56.5 -17t-50.5 23zM1802 1925 q-12 27 4.5 53.5t38.5 42.5q10 6 26.5 12.5t33 8.5t32 -3.5t23.5 -19.5q12 -29 -10.5 -58.5t-42.5 -41.5q-23 -12 -56.5 -16.5t-48.5 22.5z" />
<glyph unicode="&#xcc;" horiz-adv-x="1464" d="M-415 -395q-3 -6 5 -11q14 -8 45 -11t64 -4t63.5 0t49.5 3q166 12 334.5 38t335.5 59.5t332 72.5t323 80q6 2 36.5 10t65.5 19.5t62.5 23t25.5 17.5q0 4 -7 4h-11q-14 0 -30.5 -1t-42.5 -4t-66 -9.5t-101 -14.5q-168 -27 -334 -47t-331.5 -43t-330.5 -50.5t-329 -66.5 q-31 -8 -60.5 -16t-58.5 -21l-12 -6t-16.5 -10t-11.5 -12zM392 -116.5q-3 -12.5 14 -6.5q49 37 82.5 75t68.5 75q139 154 266 308t256 308q82 100 172 212t179.5 224.5t174.5 223t158 210.5q272 53 523 105.5t473 130.5q2 0 9 3t16 6t15.5 7.5t6.5 8.5t-8.5 5t-17.5 1 t-18 -1t-12 -1q-119 -16 -231.5 -35t-223 -37t-222 -34.5t-228.5 -29.5q2 6 8.5 20.5t8.5 27t-2.5 19.5t-20.5 -1q-29 -12 -54.5 -35.5t-47.5 -46.5q-2 0 -56.5 -7t-142.5 -20.5t-199.5 -31t-228.5 -37t-227.5 -38.5t-196.5 -38q-18 -4 -48 -10t-60.5 -15.5t-56 -19.5 t-36.5 -25q-10 -12 4.5 -17t26.5 -7q137 -10 273.5 0t271.5 29.5t270 45t271 48.5q-180 -205 -348.5 -415t-333.5 -427q-82 -109 -163 -216.5t-159 -217.5q-39 -53 -75 -105.5t-70 -105.5q-14 -23 -28.5 -46.5t-25.5 -45.5q-4 -8 -7 -20.5zM1598 2066.5q-5 16.5 5.5 24.5 t31 9t38.5 -5q37 -6 80 -19.5t89 -29.5t91 -33.5t84 -32.5q39 -16 80 -30.5t77 -27.5t60.5 -23.5t30.5 -16.5q-6 2 -50 9t-106.5 17.5t-137.5 24t-142.5 27.5t-121 30.5t-73.5 34.5q-31 25 -36 41.5z" />
<glyph unicode="&#xcd;" horiz-adv-x="1464" d="M-415 -395.5q3 6.5 11.5 12.5t16.5 10l12 6q29 12 58.5 20.5t60.5 16.5q164 39 329 66.5t330.5 50.5t331.5 43t334 47q61 8 101 14.5t66 9.5t42.5 4t30.5 1h11t7 -4q2 -6 -25.5 -17.5t-62.5 -23t-65.5 -19.5t-36.5 -10q-158 -41 -323 -80t-332 -72.5t-336 -59.5t-334 -38 q-18 -2 -49 -3t-64 0t-63.5 4t-45.5 11q-8 4 -5 10.5zM392.5 -116.5q2.5 12.5 6.5 20.5q10 23 24.5 46t29.5 46q35 53 70.5 105.5t74.5 105.5q78 111 159 218t163 216q166 217 333.5 427t348.5 415q-135 -23 -270.5 -48.5t-270.5 -45t-271.5 -29.5t-273.5 0q-12 2 -26.5 7 t-4.5 17q10 14 36 24.5t56.5 20t60.5 15.5t48 10q86 18 196.5 37.5t227.5 39t228.5 37t199.5 31t142.5 20.5t56.5 7q23 23 48 46.5t54 35.5q16 8 20.5 1t2.5 -19.5t-8.5 -26.5t-8.5 -21q117 12 228.5 29t222 35t223.5 36.5t231 35.5q2 0 11.5 1t18.5 1t17.5 -1t8.5 -5 t-6.5 -8.5t-15.5 -7.5t-16 -6t-9 -3q-221 -78 -472 -130t-524 -106q-74 -100 -158.5 -210.5t-174 -223t-179.5 -224.5t-172 -212q-129 -154 -256 -308.5t-266 -307.5q-35 -37 -68.5 -75t-82.5 -75q-16 -6 -13.5 6.5zM1665 1847q49 33 129 75t168 85t175 82t153 65 q20 8 44.5 14.5t43 3.5t24.5 -16t-8 -42q-10 -18 -68.5 -48t-140.5 -61t-174 -61.5t-170 -54t-128 -36t-48 -6.5z" />
<glyph unicode="&#xce;" horiz-adv-x="1464" d="M-415 -395.5q3 6.5 11.5 12.5t16.5 10l12 6q29 12 58.5 20.5t60.5 16.5q164 39 329 66.5t330.5 50.5t331.5 43t334 47q61 8 101 14.5t66 9.5t42.5 4t30.5 1h11t7 -4q2 -6 -25.5 -17.5t-62.5 -23t-65.5 -19.5t-36.5 -10q-158 -41 -323 -80t-332 -72.5t-336 -59.5t-334 -38 q-18 -2 -49 -3t-64 0t-63.5 4t-45.5 11q-8 4 -5 10.5zM392.5 -116.5q2.5 12.5 6.5 20.5q10 23 24.5 46t29.5 46q35 53 70.5 105.5t74.5 105.5q78 111 159 218t163 216q166 217 333.5 427t348.5 415q-135 -23 -270.5 -48.5t-270.5 -45t-271.5 -29.5t-273.5 0q-12 2 -26.5 7 t-4.5 17q10 14 36 24.5t56.5 20t60.5 15.5t48 10q86 18 196.5 37.5t227.5 39t228.5 37t199.5 31t142.5 20.5t56.5 7q23 23 48 46.5t54 35.5q16 8 20.5 1t2.5 -19.5t-8.5 -26.5t-8.5 -21q117 12 228.5 29t222 35t223.5 36.5t231 35.5q2 0 11.5 1t18.5 1t17.5 -1t8.5 -5 t-6.5 -8.5t-15.5 -7.5t-16 -6t-9 -3q-221 -78 -472 -130t-524 -106q-74 -100 -158.5 -210.5t-174 -223t-179.5 -224.5t-172 -212q-129 -154 -256 -308.5t-266 -307.5q-35 -37 -68.5 -75t-82.5 -75q-16 -6 -13.5 6.5zM1513 1882q61 23 141.5 54.5t165.5 61.5t169 53.5 t155 29.5q43 4 70 -13.5t43 -45t24.5 -58.5t12.5 -51v-8.5v-13.5t-2 -12t-4 -5q-10 4 -18.5 15.5t-16.5 17.5q-41 53 -59.5 72.5t-41.5 23.5q-154 -33 -314.5 -72t-324.5 -49z" />
<glyph unicode="&#xcf;" horiz-adv-x="1464" d="M-415 -395.5q3 6.5 11.5 12.5t16.5 10l12 6q29 12 58.5 20.5t60.5 16.5q164 39 329 66.5t330.5 50.5t331.5 43t334 47q61 8 101 14.5t66 9.5t42.5 4t30.5 1h11t7 -4q2 -6 -25.5 -17.5t-62.5 -23t-65.5 -19.5t-36.5 -10q-158 -41 -323 -80t-332 -72.5t-336 -59.5t-334 -38 q-18 -2 -49 -3t-64 0t-63.5 4t-45.5 11q-8 4 -5 10.5zM392.5 -116.5q2.5 12.5 6.5 20.5q10 23 24.5 46t29.5 46q35 53 70.5 105.5t74.5 105.5q78 111 159 218t163 216q166 217 333.5 427t348.5 415q-135 -23 -270.5 -48.5t-270.5 -45t-271.5 -29.5t-273.5 0q-12 2 -26.5 7 t-4.5 17q10 14 36 24.5t56.5 20t60.5 15.5t48 10q86 18 196.5 37.5t227.5 39t228.5 37t199.5 31t142.5 20.5t56.5 7q23 23 48 46.5t54 35.5q16 8 20.5 1t2.5 -19.5t-8.5 -26.5t-8.5 -21q117 12 228.5 29t222 35t223.5 36.5t231 35.5q2 0 11.5 1t18.5 1t17.5 -1t8.5 -5 t-6.5 -8.5t-15.5 -7.5t-16 -6t-9 -3q-221 -78 -472 -130t-524 -106q-74 -100 -158.5 -210.5t-174 -223t-179.5 -224.5t-172 -212q-129 -154 -256 -308.5t-266 -307.5q-35 -37 -68.5 -75t-82.5 -75q-16 -6 -13.5 6.5zM1800 1870q-12 29 4.5 56.5t38.5 43.5q12 6 28.5 12.5 t35 8.5t34 -4.5t23.5 -20.5q6 -14 3 -29.5t-13 -30t-22.5 -25.5t-24.5 -17q-20 -12 -56 -17.5t-51 23.5zM2060 1903q-12 27 4.5 53t38.5 43q10 6 26.5 12t33 8t32 -3t23.5 -19q12 -29 -10.5 -58.5t-42.5 -42.5q-23 -12 -56.5 -16t-48.5 23z" />
<glyph unicode="&#xd1;" horiz-adv-x="1492" d="M-519 -756q1 6 1 11q4 10 9 20t9 20q25 53 56.5 105.5t64.5 105.5q29 51 61.5 104.5t67.5 102.5q141 211 290.5 413t309.5 400q162 199 333 392.5t353 379.5q25 23 45.5 46.5t42.5 46.5q20 16 41 36.5t45 24.5q25 4 46.5 -7t27.5 -34q10 -29 -2 -57.5t-25 -53.5 q-53 -117 -104 -234.5t-96 -240.5q-47 -117 -87 -233.5t-75 -235.5q-33 -117 -57.5 -230.5t-28.5 -229.5q4 16 13 30.5t20 24.5q59 102 130.5 196.5t143.5 190.5q74 98 153 196.5t161 196.5q166 197 337.5 389.5t358.5 378.5q92 90 184 176t193 172q45 35 91 73t99 71 q23 14 46.5 28.5t45.5 22.5q12 8 24.5 13t29.5 11q18 9 43 9q8 -2 8 -5.5t-4 -6.5t-10.5 -6t-8.5 -5q-10 -4 -20.5 -11t-20.5 -16q-23 -14 -43 -31.5t-43 -33.5q-43 -43 -88 -85t-86 -87q-180 -182 -348 -374.5t-342 -383.5q-166 -195 -334 -385t-342 -383 q-78 -88 -157.5 -174t-165.5 -166q-14 -16 -30 -30.5t-32 -24.5q-4 -4 -6 -4q-4 0 -6 -2t-6 2q-8 10 -11.5 20.5t-7.5 20.5q-12 55 -12 114.5t4 116.5q8 121 34.5 237.5t57.5 233.5q68 246 160 477l-7 -7l-7 -7q-176 -190 -345 -380.5t-335 -387.5q-162 -197 -316.5 -393.5 t-308.5 -399.5q-35 -49 -73 -97t-76 -97q-10 -10 -17.5 -21.5t-17.5 -19.5q-16 -23 -31 -31q-8 -4 -7 2zM1432 1481q31 78 96 115.5t146 53t166 17.5t157 10q47 10 86 22.5t65 24.5q31 15 54 31q-43 -72 -115 -107.5t-152 -52t-159.5 -22.5t-139.5 -19q-25 -4 -54.5 -11 t-58 -17t-53 -21.5t-38.5 -23.5z" />
<glyph unicode="&#xd2;" horiz-adv-x="1710" d="M221 -102.5q6 -63.5 29.5 -120t73.5 -99.5q59 -45 129.5 -56t142.5 1q115 18 226.5 67.5t217 117t201.5 148.5t180 161q98 92 189.5 190.5t173.5 208.5q72 94 147.5 211t136 244t95 258t26.5 252q-6 68 -31.5 129t-72.5 106q-47 47 -106.5 67.5t-118.5 31.5 q-123 18 -248 -3.5t-242 -68.5q-117 -49 -222.5 -118t-197.5 -159q-61 -59 -120.5 -128.5t-100.5 -147.5q0 -2 -5 -12.5t3 -8.5q6 2 13.5 7.5t13.5 9.5q90 82 177 157.5t189 141.5q104 66 214 117t227 86q59 23 121.5 37t125.5 18q63 2 125 -13.5t113 -60.5q39 -37 55.5 -85 t15.5 -100t-14.5 -105.5t-31.5 -98.5q-70 -182 -181.5 -357t-246 -335t-276.5 -300.5t-273 -250.5q-90 -80 -185.5 -148.5t-203.5 -115.5q-61 -27 -130 -41.5t-135 8.5q-68 20 -94.5 73.5t-27.5 119t16.5 133t38.5 120.5q51 135 118.5 256t145.5 232q72 113 154.5 216 t175.5 195q84 88 176 164t192 135q23 12 42.5 22.5t41.5 23.5q2 4 15.5 11t5.5 11t-20.5 3t-22.5 -3q-55 -10 -109.5 -32.5t-103.5 -45.5q-104 -57 -197.5 -131t-179.5 -162q-98 -90 -184 -196.5t-160 -222.5q-72 -117 -129.5 -245t-89.5 -263q-14 -61 -21.5 -127 t-1.5 -129.5zM1787 2087q-5 16 5 24.5t30.5 9.5t39.5 -5q37 -6 80 -19.5t89 -30t91 -34t84 -31.5q39 -16 80 -30.5t76.5 -28t60 -23.5t31.5 -16q-6 2 -50.5 9t-107 17t-137 23.5t-142 28t-121 32t-73.5 33.5q-31 25 -36 41z" />
<glyph unicode="&#xd3;" horiz-adv-x="1710" d="M221 -102.5q-6 63.5 1 129t22 127.5q33 135 90 263t129 245q74 117 160 223t184 196q86 88 179 162t198 131q49 23 103 45.5t110 32.5q10 2 22.5 3t20.5 -3t-5.5 -11t-15.5 -11q-23 -12 -42 -22.5t-42 -23.5q-100 -59 -192 -134.5t-176 -164.5q-92 -92 -175 -195.5 t-155 -215.5q-78 -111 -145.5 -231.5t-118.5 -256.5q-20 -53 -38 -120.5t-17 -133t28 -119t94 -73.5q66 -23 134.5 -8.5t130.5 41.5q109 47 204 115.5t185 148.5q131 111 273 251t276.5 300t246 335t181.5 357q18 45 31.5 98.5t14.5 105.5t-15.5 100t-55.5 85 q-51 45 -112.5 60.5t-125.5 13.5q-63 -4 -125.5 -18.5t-121.5 -36.5q-117 -35 -226.5 -86.5t-214.5 -116.5q-102 -66 -189 -141.5t-177 -157.5q-6 -4 -13.5 -9.5t-13.5 -7.5q-8 -2 -3 8.5t5 12.5q41 78 100.5 147.5t120.5 128.5q92 90 197.5 159t222.5 118q117 47 242 68.5 t248 3.5q59 -10 118.5 -31t106.5 -68q47 -45 72.5 -106t31.5 -129q8 -121 -26.5 -252t-95 -258t-136.5 -244t-147 -211q-82 -111 -173 -209t-190 -190q-84 -80 -180 -161t-201.5 -148.5t-217 -116.5t-226.5 -68q-72 -12 -142.5 -1t-129.5 56q-49 43 -73 99.5t-30 120z M1708 1962q49 33 129 75t168 85t175 82t153 65q20 8 44.5 14.5t43 3.5t24.5 -16.5t-8 -42.5q-10 -20 -68.5 -49t-140.5 -59.5t-174 -61t-170 -54.5t-128 -36t-48 -6z" />
<glyph unicode="&#xd4;" horiz-adv-x="1710" d="M221 -102.5q-6 63.5 1 129t22 127.5q33 135 90 263t129 245q74 117 160 223t184 196q86 88 179 162t198 131q49 23 103 45.5t110 32.5q10 2 22.5 3t20.5 -3t-5.5 -11t-15.5 -11q-23 -12 -42 -22.5t-42 -23.5q-100 -59 -192 -134.5t-176 -164.5q-92 -92 -175 -195.5 t-155 -215.5q-78 -111 -145.5 -231.5t-118.5 -256.5q-20 -53 -38 -120.5t-17 -133t28 -119t94 -73.5q66 -23 134.5 -8.5t130.5 41.5q109 47 204 115.5t185 148.5q131 111 273 251t276.5 300t246 335t181.5 357q18 45 31.5 98.5t14.5 105.5t-15.5 100t-55.5 85 q-51 45 -112.5 60.5t-125.5 13.5q-63 -4 -125.5 -18.5t-121.5 -36.5q-117 -35 -226.5 -86.5t-214.5 -116.5q-102 -66 -189 -141.5t-177 -157.5q-6 -4 -13.5 -9.5t-13.5 -7.5q-8 -2 -3 8.5t5 12.5q41 78 100.5 147.5t120.5 128.5q92 90 197.5 159t222.5 118q117 47 242 68.5 t248 3.5q59 -10 118.5 -31t106.5 -68q47 -45 72.5 -106t31.5 -129q8 -121 -26.5 -252t-95 -258t-136.5 -244t-147 -211q-82 -111 -173 -209t-190 -190q-84 -80 -180 -161t-201.5 -148.5t-217 -116.5t-226.5 -68q-72 -12 -142.5 -1t-129.5 56q-49 43 -73 99.5t-30 120z M1516 1913q61 23 141 54.5t165 61t169 53t155 29.5q43 4 70 -13t43 -45t24.5 -58.5t12.5 -50.5v-8.5v-13.5t-2 -12t-4 -5q-10 4 -18.5 15t-16.5 17q-41 53 -59.5 73t-41.5 24q-154 -33 -314.5 -72t-323.5 -49z" />
<glyph unicode="&#xd5;" horiz-adv-x="1710" d="M221 -102.5q-6 63.5 1 129t22 127.5q33 135 90 263t129 245q74 117 160 223t184 196q86 88 179 162t198 131q49 23 103 45.5t110 32.5q10 2 22.5 3t20.5 -3t-5.5 -11t-15.5 -11q-23 -12 -42 -22.5t-42 -23.5q-100 -59 -192 -134.5t-176 -164.5q-92 -92 -175 -195.5 t-155 -215.5q-78 -111 -145.5 -231.5t-118.5 -256.5q-20 -53 -38 -120.5t-17 -133t28 -119t94 -73.5q66 -23 134.5 -8.5t130.5 41.5q109 47 204 115.5t185 148.5q131 111 273 251t276.5 300t246 335t181.5 357q18 45 31.5 98.5t14.5 105.5t-15.5 100t-55.5 85 q-51 45 -112.5 60.5t-125.5 13.5q-63 -4 -125.5 -18.5t-121.5 -36.5q-117 -35 -226.5 -86.5t-214.5 -116.5q-102 -66 -189 -141.5t-177 -157.5q-6 -4 -13.5 -9.5t-13.5 -7.5q-8 -2 -3 8.5t5 12.5q41 78 100.5 147.5t120.5 128.5q92 90 197.5 159t222.5 118q117 47 242 68.5 t248 3.5q59 -10 118.5 -31t106.5 -68q47 -45 72.5 -106t31.5 -129q8 -121 -26.5 -252t-95 -258t-136.5 -244t-147 -211q-82 -111 -173 -209t-190 -190q-84 -80 -180 -161t-201.5 -148.5t-217 -116.5t-226.5 -68q-72 -12 -142.5 -1t-129.5 56q-49 43 -73 99.5t-30 120z M1714 1907q31 78 96.5 115.5t146.5 53t166 17.5t156 10q47 10 86 22.5t66 24.5q30 15 53 31q-43 -72 -114.5 -107.5t-151.5 -52t-160 -22.5t-139 -19q-25 -4 -54.5 -11t-58 -17t-53 -21.5t-39.5 -23.5z" />
<glyph unicode="&#xd6;" horiz-adv-x="1710" d="M221 -102.5q-6 63.5 1 129t22 127.5q33 135 90 263t129 245q74 117 160 223t184 196q86 88 179 162t198 131q49 23 103 45.5t110 32.5q10 2 22.5 3t20.5 -3t-5.5 -11t-15.5 -11q-23 -12 -42 -22.5t-42 -23.5q-100 -59 -192 -134.5t-176 -164.5q-92 -92 -175 -195.5 t-155 -215.5q-78 -111 -145.5 -231.5t-118.5 -256.5q-20 -53 -38 -120.5t-17 -133t28 -119t94 -73.5q66 -23 134.5 -8.5t130.5 41.5q109 47 204 115.5t185 148.5q131 111 273 251t276.5 300t246 335t181.5 357q18 45 31.5 98.5t14.5 105.5t-15.5 100t-55.5 85 q-51 45 -112.5 60.5t-125.5 13.5q-63 -4 -125.5 -18.5t-121.5 -36.5q-117 -35 -226.5 -86.5t-214.5 -116.5q-102 -66 -189 -141.5t-177 -157.5q-6 -4 -13.5 -9.5t-13.5 -7.5q-8 -2 -3 8.5t5 12.5q41 78 100.5 147.5t120.5 128.5q92 90 197.5 159t222.5 118q117 47 242 68.5 t248 3.5q59 -10 118.5 -31t106.5 -68q47 -45 72.5 -106t31.5 -129q8 -121 -26.5 -252t-95 -258t-136.5 -244t-147 -211q-82 -111 -173 -209t-190 -190q-84 -80 -180 -161t-201.5 -148.5t-217 -116.5t-226.5 -68q-72 -12 -142.5 -1t-129.5 56q-49 43 -73 99.5t-30 120z M1722 1968q-12 29 4.5 56.5t38.5 43.5q12 6 28.5 12.5t35 8.5t34 -4.5t23.5 -20.5q6 -14 3 -29.5t-13 -29.5t-22.5 -25.5t-24.5 -17.5q-20 -12 -56 -17.5t-51 23.5zM1982 2001q-12 27 4.5 53.5t38.5 42.5q10 6 26.5 12.5t33 8.5t32 -3.5t23.5 -19.5q12 -29 -10.5 -58.5 t-42.5 -41.5q-23 -12 -56.5 -16.5t-48.5 22.5z" />
<glyph unicode="&#xd8;" horiz-adv-x="1710" d="M-6 -295q2 10 12 21.5t17 19.5q33 45 68.5 85t76.5 79q-6 63 1 127.5t21 124.5q35 139 94.5 268t135.5 246q152 244 354 432q90 86 186.5 162t204.5 131q53 27 108.5 47t112.5 29q10 2 23.5 3t22.5 -3q8 -4 -5.5 -10.5t-15.5 -8.5q-23 -12 -44 -22.5t-44 -22.5 q-104 -59 -200.5 -137t-182.5 -166q-94 -94 -179 -198.5t-163 -217.5q-78 -117 -149.5 -238.5t-122.5 -256.5q-16 -37 -28.5 -84t-21.5 -95q25 27 50.5 51.5t52.5 51.5q98 96 199.5 186t205.5 183q209 184 423 359t433 341q94 72 189.5 139.5t193.5 132.5q29 18 54.5 35 t54.5 35q-4 47 -19.5 89t-50.5 77q-53 45 -117.5 59.5t-129.5 12.5q-66 -4 -131.5 -17.5t-129.5 -32.5q-117 -39 -231.5 -92t-222.5 -121q-104 -63 -195.5 -138t-183.5 -161q-6 -4 -13.5 -10t-15.5 -8t-3 9t7 16q41 80 102.5 150.5t123.5 125.5q197 182 438 279 q121 51 249 72.5t257 2.5q63 -8 124.5 -30.5t110.5 -69.5q35 -33 59.5 -78t34.5 -96q25 16 52.5 29.5t54.5 27.5q45 23 60.5 27t11.5 -3t-23.5 -24.5t-44.5 -38.5q-25 -20 -50.5 -38.5t-49.5 -41.5q2 -2 2 -6q8 -123 -28 -255t-98.5 -260t-140 -245.5t-153.5 -212.5 q-86 -113 -180.5 -213t-194.5 -192q-88 -80 -188.5 -162t-209 -150.5t-224 -119.5t-234.5 -70q-72 -10 -147.5 1.5t-135.5 60.5q-70 57 -92 145q-41 -33 -80 -64.5t-79 -56.5q-2 -2 -15.5 -9t-13.5 3zM270 -94q6 -55 34 -97t89 -63q70 -23 140.5 -8.5t136.5 41.5 q111 47 211 116.5t192 147.5q135 113 283.5 256t287 306t254 340.5t187.5 359.5q27 70 39 143q-31 -25 -61.5 -49.5t-63.5 -50.5q-106 -86 -211 -170t-211 -172q-215 -180 -426 -357.5t-422 -355.5q-104 -88 -206.5 -175t-207.5 -173q-20 -20 -45 -39z" />
<glyph unicode="&#xd9;" horiz-adv-x="1556" d="M-42 -198.5q-1 -30.5 15 -51.5q18 -25 42 -32t49.5 -5t51 12.5t48.5 20.5q59 27 112.5 61.5t106.5 69.5q111 72 215 148.5t209 156.5q193 147 374 301t357 320q-154 -211 -304.5 -421t-297.5 -423q-72 -106 -145.5 -212.5t-133.5 -223.5q-2 -4 -1 -9.5t8 -0.5 q14 10 26 23t25 28q18 20 36.5 40.5t36.5 41.5q166 193 322 387t313 393q166 205 326 407.5t317 413.5q76 100 150 199.5t145 202.5q59 78 114.5 162.5t98.5 173.5q4 10 7 22t-5 18q-6 4 -16 -1t-16 -9q-41 -23 -78 -57.5t-72 -72.5t-66.5 -78t-62.5 -74 q-84 -98 -164 -195.5t-157 -198.5q-61 -80 -120 -155.5t-118 -155.5q-2 -4 -13.5 -14t-24.5 -22.5t-28.5 -25t-25.5 -20.5q-193 -166 -391 -317q-205 -160 -415 -312.5t-429 -293.5q-63 -41 -128 -80t-134 -70q29 59 61.5 114.5t67.5 110.5q88 137 152.5 237.5t113.5 175.5 t87 133t73 114q98 156 186 319.5t156 337.5q23 55 34 116.5t-12 108.5q-4 10 -11 20.5t-17 16.5q-2 2 -9.5 3t-5.5 -5q0 -4 2 -10t4 -10q14 -35 5 -77t-28.5 -86t-44 -84t-38.5 -67q-63 -111 -133 -217t-142 -213q-143 -213 -288.5 -426t-274.5 -436q-27 -45 -51 -92 t-39 -96q-6 -29 -7 -59.5zM1355 2023.5q-5 16.5 5 24.5t30.5 9t39.5 -5q37 -6 79.5 -19.5t89 -29.5t91.5 -33.5t84 -32.5q39 -16 79.5 -30.5t76.5 -27.5t60.5 -23.5t30.5 -16.5q-6 2 -50 9t-106.5 17.5t-137 24t-142 27.5t-121 31.5t-73.5 33.5q-31 25 -36 41.5z" />
<glyph unicode="&#xda;" horiz-adv-x="1556" d="M-42 -199q1 31 7 60q14 49 39 96t51 92q129 223 274.5 436t288.5 426q72 106 141.5 213t133.5 217q14 27 38.5 67t44 84t29 86t-5.5 77q-2 4 -4 10t-2 10q-2 6 5.5 5t9.5 -3q10 -6 17 -16t11 -21q23 -47 11.5 -108.5t-33.5 -116.5q-68 -174 -156 -338t-186 -319 q-35 -55 -73 -113.5t-87 -133.5t-113.5 -175t-152.5 -238q-35 -55 -68 -110.5t-61 -114.5q70 31 134 70t128 80q219 141 429 293.5t415 312.5q199 152 391 317q10 8 25.5 20.5t28.5 25t24.5 22.5t13.5 14q59 80 117.5 156t120.5 155q78 100 157.5 197.5t163.5 196.5 q31 35 62.5 74.5t66.5 77.5t72 73t78 57q6 4 16 9t16 1q8 -6 5 -18t-7 -22q-43 -88 -98 -173.5t-115 -162.5q-72 -102 -145.5 -201.5t-149.5 -200.5q-158 -211 -317.5 -413.5t-325.5 -407.5q-158 -199 -313.5 -393.5t-321.5 -386.5q-18 -20 -36.5 -41t-36.5 -41 q-12 -14 -24.5 -27.5t-26.5 -23.5q-6 -4 -7.5 1t0.5 9q59 117 133 223.5t146 212.5q147 213 297.5 423t304.5 421q-176 -166 -357.5 -319.5t-373.5 -301.5q-104 -80 -208.5 -156.5t-215.5 -148.5q-53 -35 -106.5 -69.5t-112.5 -61.5q-23 -10 -48.5 -20.5t-51 -12.5t-49 5.5 t-42.5 31.5q-16 20 -15 51zM1448 1763q49 33 129 75t168 85t175 82t153 66q20 8 44.5 14t43 3t24.5 -16t-8 -42q-10 -20 -68.5 -49t-140.5 -60t-174 -61.5t-170 -54t-128 -36t-48 -6.5z" />
<glyph unicode="&#xdb;" horiz-adv-x="1556" d="M-42 -199q1 31 7 60q14 49 39 96t51 92q129 223 274.5 436t288.5 426q72 106 141.5 213t133.5 217q14 27 38.5 67t44 84t29 86t-5.5 77q-2 4 -4 10t-2 10q-2 6 5.5 5t9.5 -3q10 -6 17 -16t11 -21q23 -47 11.5 -108.5t-33.5 -116.5q-68 -174 -156 -338t-186 -319 q-35 -55 -73 -113.5t-87 -133.5t-113.5 -175t-152.5 -238q-35 -55 -68 -110.5t-61 -114.5q70 31 134 70t128 80q219 141 429 293.5t415 312.5q199 152 391 317q10 8 25.5 20.5t28.5 25t24.5 22.5t13.5 14q59 80 117.5 156t120.5 155q78 100 157.5 197.5t163.5 196.5 q31 35 62.5 74.5t66.5 77.5t72 73t78 57q6 4 16 9t16 1q8 -6 5 -18t-7 -22q-43 -88 -98 -173.5t-115 -162.5q-72 -102 -145.5 -201.5t-149.5 -200.5q-158 -211 -317.5 -413.5t-325.5 -407.5q-158 -199 -313.5 -393.5t-321.5 -386.5q-18 -20 -36.5 -41t-36.5 -41 q-12 -14 -24.5 -27.5t-26.5 -23.5q-6 -4 -7.5 1t0.5 9q59 117 133 223.5t146 212.5q147 213 297.5 423t304.5 421q-176 -166 -357.5 -319.5t-373.5 -301.5q-104 -80 -208.5 -156.5t-215.5 -148.5q-53 -35 -106.5 -69.5t-112.5 -61.5q-23 -10 -48.5 -20.5t-51 -12.5t-49 5.5 t-42.5 31.5q-16 20 -15 51zM1350 1790q61 23 141 54.5t165 61t169 53t155 30.5q43 4 70 -13.5t43 -45t24.5 -58.5t12.5 -51v-8.5v-13.5t-2 -12t-4 -5q-10 4 -18.5 15t-16.5 18q-41 53 -59.5 72.5t-40.5 23.5q-154 -33 -315 -72t-324 -49z" />
<glyph unicode="&#xdc;" horiz-adv-x="1556" d="M-42 -199q1 31 7 60q14 49 39 96t51 92q129 223 274.5 436t288.5 426q72 106 141.5 213t133.5 217q14 27 38.5 67t44 84t29 86t-5.5 77q-2 4 -4 10t-2 10q-2 6 5.5 5t9.5 -3q10 -6 17 -16t11 -21q23 -47 11.5 -108.5t-33.5 -116.5q-68 -174 -156 -338t-186 -319 q-35 -55 -73 -113.5t-87 -133.5t-113.5 -175t-152.5 -238q-35 -55 -68 -110.5t-61 -114.5q70 31 134 70t128 80q219 141 429 293.5t415 312.5q199 152 391 317q10 8 25.5 20.5t28.5 25t24.5 22.5t13.5 14q59 80 117.5 156t120.5 155q78 100 157.5 197.5t163.5 196.5 q31 35 62.5 74.5t66.5 77.5t72 73t78 57q6 4 16 9t16 1q8 -6 5 -18t-7 -22q-43 -88 -98 -173.5t-115 -162.5q-72 -102 -145.5 -201.5t-149.5 -200.5q-158 -211 -317.5 -413.5t-325.5 -407.5q-158 -199 -313.5 -393.5t-321.5 -386.5q-18 -20 -36.5 -41t-36.5 -41 q-12 -14 -24.5 -27.5t-26.5 -23.5q-6 -4 -7.5 1t0.5 9q59 117 133 223.5t146 212.5q147 213 297.5 423t304.5 421q-176 -166 -357.5 -319.5t-373.5 -301.5q-104 -80 -208.5 -156.5t-215.5 -148.5q-53 -35 -106.5 -69.5t-112.5 -61.5q-23 -10 -48.5 -20.5t-51 -12.5t-49 5.5 t-42.5 31.5q-16 20 -15 51zM1544 1720q-12 29 4.5 56.5t38.5 44.5q12 6 28.5 12t35 8t34 -4t23.5 -20q6 -14 3 -29.5t-13 -30t-22.5 -26t-24.5 -17.5q-20 -12 -56 -17t-51 23zM1804 1753q-12 27 4.5 53.5t38.5 42.5q10 6 26.5 12.5t33 8.5t32 -3.5t23.5 -19.5 q12 -29 -10.5 -58.5t-42.5 -41.5q-23 -12 -56.5 -16.5t-48.5 22.5z" />
<glyph unicode="&#xdd;" horiz-adv-x="1652" d="M-637 -829q4 4 19.5 7t33 5t33.5 4t25 2q127 14 248.5 42t240.5 73q250 96 467 249.5t410 337.5q203 193 380 403t343 433q156 209 302 420t294 422q-59 -61 -120 -119.5t-122 -118.5q-201 -188 -407.5 -365.5t-422.5 -349.5q-160 -127 -326.5 -255t-350.5 -220 q-23 -12 -48.5 -22t-51 -13.5t-49 4t-42.5 31.5q-16 29 -16 57.5t10 57.5q12 41 30.5 79t41.5 73q47 80 101 155.5t108 151.5q78 111 157.5 216t157.5 214q45 63 92 127.5t92 130t84 135.5t70 141q10 27 15 54.5t-3 54.5q-2 6 -5 13t-3 11q0 6 6 4.5t10 -4.5 q18 -10 26.5 -29.5t11.5 -42t0 -45t-5 -38.5q-25 -121 -87 -236.5t-126 -218.5q-109 -178 -225.5 -346t-233.5 -340q-41 -57 -77.5 -114.5t-69.5 -116.5q78 43 153.5 92t149.5 100q303 205 591 426t568 455q147 123 291.5 250t269.5 274q14 16 28.5 32.5t31.5 33.5q2 2 10 9 t12 3q6 -4 0 -17.5t-8 -17.5q-84 -182 -194.5 -354t-223.5 -357q-143 -233 -295.5 -456t-324.5 -436q-174 -215 -364.5 -411t-413.5 -360q-211 -156 -450 -268t-503 -139q-78 -8 -154.5 -7t-154.5 15q-2 0 -9 2t-14.5 5l-12.5 5t-1 7zM1593 1825q49 33 129 75t168 85 t175 81.5t153 65.5q20 8 45 14t43 3t24 -16t-8 -42q-10 -20 -68.5 -49t-140 -59.5t-174 -61.5t-170 -54.5t-128 -35.5t-48.5 -6z" />
<glyph unicode="&#xe0;" horiz-adv-x="675" d="M-60 51q1 -28 23 -45q16 -12 34.5 -12t36 7t35 19.5t29.5 22.5q49 37 94.5 74t90.5 78q29 23 57.5 49t58.5 53q-31 -47 -56.5 -92t-47.5 -96q-10 -23 -15.5 -47.5t11.5 -45.5q14 -18 40.5 -23t43.5 11q4 4 21.5 17.5t25.5 19.5q33 29 60.5 56.5t62.5 52.5q109 90 203 157 q29 23 57.5 45.5t52.5 46.5q6 9 6 11q-4 4 -20.5 -4.5t-20.5 -12.5q-63 -33 -122.5 -68.5t-116.5 -74.5q-18 -14 -50 -34.5t-51 -33.5l36 45t66 81t77.5 95.5t72.5 85.5q2 4 11.5 14.5t19.5 23t18.5 22.5t8.5 14q4 14 -6.5 25.5t-26.5 7.5q-6 0 -21.5 -11.5t-35 -24.5 t-39 -28.5t-31.5 -25.5q-45 -37 -93 -71t-89 -68q-86 -63 -177.5 -132t-173.5 -122q29 61 67 119.5t79 110.5t84 95t80 74q43 33 88 68.5t94 60.5t100 35t107 -4q6 -2 2 5t-6 9q-16 23 -51 31t-64 8q-55 0 -115.5 -18.5t-118 -48t-107.5 -66.5t-87 -72q-12 -10 -53 -49 t-90.5 -97.5t-95.5 -129t-66 -142.5q-8 -23 -7 -51zM363 1049q-5 16 5.5 24t31 9t38.5 -5q37 -6 80 -19.5t89 -29.5t91 -33.5t84 -31.5q39 -16 80 -30.5t77 -28t60.5 -24t30.5 -16.5q-6 2 -50 9.5t-106.5 17.5t-137 23.5t-142.5 27.5t-121.5 31t-73.5 35q-31 25 -36 41z" />
<glyph unicode="&#xe1;" horiz-adv-x="675" d="M-60.5 51q-0.5 29 7.5 51q20 72 66 142.5t95.5 129t90.5 97.5t53 49q37 35 87 72t107.5 66.5t118 48t115.5 18.5q29 0 63.5 -8t51.5 -31q2 -2 6 -9t-2 -5q-55 14 -106.5 4t-100.5 -35t-94 -60.5t-88 -68.5q-37 -31 -80 -74t-84 -95t-79 -110.5t-67 -119.5 q82 53 173.5 121.5t177.5 132.5q41 35 89 68.5t93 70.5q12 10 31.5 25.5t39 28.5t35 24.5t21.5 11.5q16 4 26.5 -7t6.5 -26q0 -4 -8.5 -14t-18.5 -22.5t-19.5 -22.5t-11.5 -15q-33 -37 -72.5 -86t-77.5 -95t-65.5 -80.5t-36.5 -45.5q18 12 50 33t51 35q57 39 116.5 74.5 t122.5 68.5q4 4 20.5 12.5t20.5 4.5q0 -2 -6 -11q-25 -25 -53.5 -47t-56.5 -45q-94 -68 -203 -157q-35 -25 -62.5 -52.5t-60.5 -56.5q-8 -6 -25.5 -19.5t-21.5 -17.5q-16 -16 -43 -11t-41 23q-16 20 -11 45t15 48q23 51 48.5 96t55.5 92q-31 -27 -59.5 -53.5t-56.5 -48.5 q-45 -41 -90.5 -78t-94.5 -74q-12 -10 -29.5 -22.5t-35 -19.5t-35.5 -7t-35 12q-23 16 -23.5 45zM399 817q49 33 129 75t168 85t175 82t153 65q20 8 45 14.5t43 3.5t24 -16.5t-8 -42.5q-10 -20 -68.5 -48.5t-140 -59.5t-174 -61.5t-170 -54t-128 -36t-48.5 -6.5z" />
<glyph unicode="&#xe2;" horiz-adv-x="675" d="M-60.5 51q-0.5 29 7.5 51q20 72 66 142.5t95.5 129t90.5 97.5t53 49q37 35 87 72t107.5 66.5t118 48t115.5 18.5q29 0 63.5 -8t51.5 -31q2 -2 6 -9t-2 -5q-55 14 -106.5 4t-100.5 -35t-94 -60.5t-88 -68.5q-37 -31 -80 -74t-84 -95t-79 -110.5t-67 -119.5 q82 53 173.5 121.5t177.5 132.5q41 35 89 68.5t93 70.5q12 10 31.5 25.5t39 28.5t35 24.5t21.5 11.5q16 4 26.5 -7t6.5 -26q0 -4 -8.5 -14t-18.5 -22.5t-19.5 -22.5t-11.5 -15q-33 -37 -72.5 -86t-77.5 -95t-65.5 -80.5t-36.5 -45.5q18 12 50 33t51 35q57 39 116.5 74.5 t122.5 68.5q4 4 20.5 12.5t20.5 4.5q0 -2 -6 -11q-25 -25 -53.5 -47t-56.5 -45q-94 -68 -203 -157q-35 -25 -62.5 -52.5t-60.5 -56.5q-8 -6 -25.5 -19.5t-21.5 -17.5q-16 -16 -43 -11t-41 23q-16 20 -11 45t15 48q23 51 48.5 96t55.5 92q-31 -27 -59.5 -53.5t-56.5 -48.5 q-45 -41 -90.5 -78t-94.5 -74q-12 -10 -29.5 -22.5t-35 -19.5t-35.5 -7t-35 12q-23 16 -23.5 45zM244 825q61 23 141 54.5t165 61.5t169 53.5t155 29.5q43 4 70 -13.5t43.5 -45t24.5 -58.5t12 -51v-8v-13.5t-2 -12.5t-4 -5q-10 4 -18.5 15.5t-16.5 17.5q-41 53 -59.5 72.5 t-40.5 23.5q-154 -33 -314.5 -71.5t-324.5 -49.5z" />
<glyph unicode="&#xe3;" horiz-adv-x="675" d="M-60.5 51q-0.5 29 7.5 51q20 72 66 142.5t95.5 129t90.5 97.5t53 49q37 35 87 72t107.5 66.5t118 48t115.5 18.5q29 0 63.5 -8t51.5 -31q2 -2 6 -9t-2 -5q-55 14 -106.5 4t-100.5 -35t-94 -60.5t-88 -68.5q-37 -31 -80 -74t-84 -95t-79 -110.5t-67 -119.5 q82 53 173.5 121.5t177.5 132.5q41 35 89 68.5t93 70.5q12 10 31.5 25.5t39 28.5t35 24.5t21.5 11.5q16 4 26.5 -7t6.5 -26q0 -4 -8.5 -14t-18.5 -22.5t-19.5 -22.5t-11.5 -15q-33 -37 -72.5 -86t-77.5 -95t-65.5 -80.5t-36.5 -45.5q18 12 50 33t51 35q57 39 116.5 74.5 t122.5 68.5q4 4 20.5 12.5t20.5 4.5q0 -2 -6 -11q-25 -25 -53.5 -47t-56.5 -45q-94 -68 -203 -157q-35 -25 -62.5 -52.5t-60.5 -56.5q-8 -6 -25.5 -19.5t-21.5 -17.5q-16 -16 -43 -11t-41 23q-16 20 -11 45t15 48q23 51 48.5 96t55.5 92q-31 -27 -59.5 -53.5t-56.5 -48.5 q-45 -41 -90.5 -78t-94.5 -74q-12 -10 -29.5 -22.5t-35 -19.5t-35.5 -7t-35 12q-23 16 -23.5 45zM410 809q31 78 96 116t146 53t166 17t157 11q47 10 86 22t65 25q31 14 54 30q-16 -35 -46 -60.5t-67 -43.5t-77 -30.5t-75 -20.5q-84 -23 -162.5 -34t-158.5 -30 q-12 -4 -34.5 -8t-50.5 -11t-54.5 -15.5t-44.5 -20.5z" />
<glyph unicode="&#xe4;" horiz-adv-x="675" d="M-60.5 51q-0.5 29 7.5 51q20 72 66 142.5t95.5 129t90.5 97.5t53 49q37 35 87 72t107.5 66.5t118 48t115.5 18.5q29 0 63.5 -8t51.5 -31q2 -2 6 -9t-2 -5q-55 14 -106.5 4t-100.5 -35t-94 -60.5t-88 -68.5q-37 -31 -80 -74t-84 -95t-79 -110.5t-67 -119.5 q82 53 173.5 121.5t177.5 132.5q41 35 89 68.5t93 70.5q12 10 31.5 25.5t39 28.5t35 24.5t21.5 11.5q16 4 26.5 -7t6.5 -26q0 -4 -8.5 -14t-18.5 -22.5t-19.5 -22.5t-11.5 -15q-33 -37 -72.5 -86t-77.5 -95t-65.5 -80.5t-36.5 -45.5q18 12 50 33t51 35q57 39 116.5 74.5 t122.5 68.5q4 4 20.5 12.5t20.5 4.5q0 -2 -6 -11q-25 -25 -53.5 -47t-56.5 -45q-94 -68 -203 -157q-35 -25 -62.5 -52.5t-60.5 -56.5q-8 -6 -25.5 -19.5t-21.5 -17.5q-16 -16 -43 -11t-41 23q-16 20 -11 45t15 48q23 51 48.5 96t55.5 92q-31 -27 -59.5 -53.5t-56.5 -48.5 q-45 -41 -90.5 -78t-94.5 -74q-12 -10 -29.5 -22.5t-35 -19.5t-35.5 -7t-35 12q-23 16 -23.5 45zM522 879q-12 29 4.5 56.5t38.5 43.5q12 6 28.5 12t35 8t34 -4t23.5 -20q6 -14 3 -29.5t-13 -30t-22.5 -25.5t-24.5 -18q-20 -12 -56 -17t-51 24zM782 911q-12 27 4.5 53.5 t38.5 43.5q10 6 26.5 12t33 8t32 -3t23.5 -19q12 -29 -10.5 -58.5t-42.5 -42.5q-23 -12 -56.5 -16t-48.5 22z" />
<glyph unicode="&#xe5;" horiz-adv-x="675" d="M-60.5 51q-0.5 29 7.5 51q20 72 66 142.5t95.5 129t90.5 97.5t53 49q37 35 87 72t107.5 66.5t118 48t115.5 18.5q29 0 63.5 -8t51.5 -31q2 -2 6 -9t-2 -5q-55 14 -106.5 4t-100.5 -35t-94 -60.5t-88 -68.5q-37 -31 -80 -74t-84 -95t-79 -110.5t-67 -119.5 q82 53 173.5 121.5t177.5 132.5q41 35 89 68.5t93 70.5q12 10 31.5 25.5t39 28.5t35 24.5t21.5 11.5q16 4 26.5 -7t6.5 -26q0 -4 -8.5 -14t-18.5 -22.5t-19.5 -22.5t-11.5 -15q-33 -37 -72.5 -86t-77.5 -95t-65.5 -80.5t-36.5 -45.5q18 12 50 33t51 35q57 39 116.5 74.5 t122.5 68.5q4 4 20.5 12.5t20.5 4.5q0 -2 -6 -11q-25 -25 -53.5 -47t-56.5 -45q-94 -68 -203 -157q-35 -25 -62.5 -52.5t-60.5 -56.5q-8 -6 -25.5 -19.5t-21.5 -17.5q-16 -16 -43 -11t-41 23q-16 20 -11 45t15 48q23 51 48.5 96t55.5 92q-31 -27 -59.5 -53.5t-56.5 -48.5 q-45 -41 -90.5 -78t-94.5 -74q-12 -10 -29.5 -22.5t-35 -19.5t-35.5 -7t-35 12q-23 16 -23.5 45zM580 893q0 27 14 53.5t31 48.5q35 47 95 84t126 43q23 2 47.5 2t36.5 -20q-4 0 -8 2q-4 0 -9.5 1t-15.5 1q-14 0 -26.5 -2t-22.5 -6q-47 -18 -85 -50t-63 -71 q-10 -18 -20 -37.5t-10 -40.5q33 2 62.5 13.5t58.5 25.5q47 29 101 68t77 86q2 10 2 24v7t8 -1q19 -5 27 -30q10 -43 -15.5 -86t-68.5 -80t-93.5 -63.5t-91.5 -35.5q-23 -6 -45 -9t-45 1q-31 4 -49 24.5t-18 47.5z" />
<glyph unicode="&#xe6;" horiz-adv-x="854" d="M-1 118q5 32 21.5 66.5t34.5 65.5q61 90 143.5 175t174.5 148q41 29 85 54.5t91 46.5q49 23 104.5 33t110.5 -2q16 -4 30.5 -12.5t24.5 -20.5q2 -2 6 -10q16 10 34 17t36 17q37 14 85 19.5t79 -29.5q18 -23 18 -47.5t-9 -49t-26.5 -47t-31.5 -38.5q-49 -59 -118 -101.5 t-149 -80.5q-45 -23 -91 -43.5t-93 -34.5q-12 -4 -16 -4q-4 -6 -15 -17q-23 -25 -41 -51.5t-34 -54.5q-2 -6 -4.5 -10.5t-2.5 -8.5q31 -4 62 5.5t59 19.5q23 10 44.5 19.5t43.5 19.5q57 29 112.5 59.5t109.5 65.5q37 25 73.5 49t75.5 53q18 12 32.5 22.5t24.5 18.5 q21 14 21 12q4 0 -12 -20q-8 -10 -20.5 -23.5t-29.5 -29.5q-47 -43 -96 -86t-102 -84q-55 -43 -113.5 -83t-126.5 -75q-35 -16 -72.5 -28.5t-91.5 -16.5q-27 0 -50 9t-40 32q-16 23 -17 49.5t6 53t20.5 51t25.5 45.5q-6 -4 -16 -15q-14 -14 -28.5 -27.5t-29.5 -27.5 q-29 -29 -57.5 -56.5t-60.5 -52.5q-14 -12 -32 -24.5t-37.5 -19.5t-40 -8t-38.5 9q-33 16 -42 44t-4 60zM109 100q25 0 57.5 16.5t66 40t64.5 48.5t51 41q16 12 30.5 24.5t31.5 26.5q14 12 27.5 25.5t27.5 25.5q76 92 162 170t188 137q-10 4 -19.5 6.5t-19.5 4.5 q-53 4 -96 -14.5t-94 -49.5q-109 -68 -207 -165t-184 -201q-23 -29 -46.5 -66t-39.5 -70zM561 260q57 29 117.5 63.5t116 76.5t101.5 92.5t77 111.5q-104 -53 -182 -120.5t-162 -151.5q-16 -18 -33.5 -35.5t-34.5 -36.5z" />
<glyph unicode="&#xe7;" horiz-adv-x="563" d="M-20 -342q-2 6 12 14.5t18 12.5q41 27 81 56.5t75 63.5q23 23 42 46.5t32 52.5q14 29 14 53q0 4 -1 12t-1 17q-6 2 -12.5 2t-14.5 2q-31 8 -48 27.5t-23.5 45t-3 54t11.5 53.5q16 61 48 117.5t69 105.5q37 51 82 94t94 82q49 37 103 71t116 50q25 8 52.5 6t49 -13 t32.5 -33.5t3 -57.5q-8 -29 -24.5 -53.5t-36.5 -46.5q-47 -47 -97 -82q-25 -18 -51.5 -36t-54.5 -32q-2 0 -12.5 -5t-8.5 -1q2 6 28 32.5t57.5 62.5t59 76t34.5 71q-35 -16 -68 -39t-62 -47q-31 -25 -60.5 -49.5t-57.5 -53.5q-55 -53 -111.5 -119.5t-85.5 -138.5 q-4 -10 -9 -25.5t1 -25.5q4 -6 15.5 -6t25.5 3t26.5 6t18.5 5q57 16 110.5 46t104.5 61q59 35 115.5 74.5t111.5 80.5l56 43q2 2 8 7.5t13 11.5t14.5 9t9.5 1q6 -6 -25 -38t-69.5 -68.5t-74.5 -67.5t-38 -33q-53 -43 -106.5 -83t-112.5 -75q-35 -20 -75 -40.5t-83 -26.5 q14 -23 14 -56q2 -45 -20.5 -86t-58 -75.5t-82 -61t-89.5 -41.5q-4 -2 -16 -6t-25.5 -8t-25.5 -4t-14 6z" />
<glyph unicode="&#xe8;" horiz-adv-x="573" d="M-18 96q-6 -53 31.5 -84.5t86.5 -31.5q57 2 110.5 25.5t102.5 51.5q102 57 188.5 126t168.5 141q4 4 24.5 23.5t42 42t37.5 41t12 22.5l-22 -15q-21 -14 -46.5 -33.5t-48 -36t-26.5 -18.5q-57 -37 -127 -83t-141.5 -88t-143 -69.5t-131.5 -27.5q20 72 66 131 q84 23 149.5 50.5t130.5 64.5q92 55 166 135q18 20 35 40.5t33 43.5q35 53 39 103t-45 79q-25 12 -53.5 11t-53.5 -9q-53 -16 -102 -41.5t-94 -58.5q-47 -33 -90 -69t-82 -77q-78 -84 -141.5 -178t-75.5 -211zM205 266q14 20 25.5 36.5t31.5 39.5q86 92 174 174t197 133 q-25 -72 -69 -133t-100 -110.5t-123 -85t-136 -54.5zM384 1049q-5 16 5 24t30.5 9t39.5 -5q37 -6 80 -19.5t89 -29.5t91 -33.5t84 -31.5q39 -16 80 -30.5t76.5 -28t60 -24t31.5 -16.5q-6 2 -50.5 9.5t-107 17.5t-137 23.5t-142 27.5t-121 31t-73.5 35q-31 25 -36 41z" />
<glyph unicode="&#xe9;" horiz-adv-x="573" d="M-18 96q12 117 75.5 211t141.5 178q39 41 82 77t90 69q45 33 94 58.5t102 41.5q25 8 53.5 9t53.5 -11q49 -29 45 -79t-39 -103q-16 -23 -32.5 -43.5t-35.5 -40.5q-74 -80 -166 -135q-66 -37 -131 -64.5t-149 -50.5q-45 -59 -66 -131q59 0 131 27.5t143.5 69.5t141.5 88 t127 83q4 2 26.5 18.5t48 36t36.5 26.5l32 22q4 -4 -12 -22.5t-37.5 -41t-42 -42t-24.5 -23.5q-82 -72 -168 -140.5t-189 -126.5q-49 -29 -102 -52t-111 -25q-49 0 -87 31.5t-31 84.5zM205 266q70 18 136.5 54t122.5 85.5t100 111t69 132.5q-109 -51 -197 -133t-174 -174 q-20 -23 -31.5 -39t-25.5 -37zM420 817q49 33 129 75t168 85t175 82t152 65q20 8 45 14.5t43.5 3.5t24.5 -16.5t-8 -42.5q-10 -20 -68.5 -48.5t-140.5 -59.5t-174 -61.5t-170 -54t-128 -36t-48 -6.5z" />
<glyph unicode="&#xea;" horiz-adv-x="573" d="M-18 96q12 117 75.5 211t141.5 178q39 41 82 77t90 69q45 33 94 58.5t102 41.5q25 8 53.5 9t53.5 -11q49 -29 45 -79t-39 -103q-16 -23 -32.5 -43.5t-35.5 -40.5q-74 -80 -166 -135q-66 -37 -131 -64.5t-149 -50.5q-45 -59 -66 -131q59 0 131 27.5t143.5 69.5t141.5 88 t127 83q4 2 26.5 18.5t48 36t36.5 26.5l32 22q4 -4 -12 -22.5t-37.5 -41t-42 -42t-24.5 -23.5q-82 -72 -168 -140.5t-189 -126.5q-49 -29 -102 -52t-111 -25q-49 0 -87 31.5t-31 84.5zM205 266q70 18 136.5 54t122.5 85.5t100 111t69 132.5q-109 -51 -197 -133t-174 -174 q-20 -23 -31.5 -39t-25.5 -37zM264 825q61 23 141 54.5t165 61.5t169 53.5t156 29.5q43 4 69.5 -13.5t43 -45t24.5 -58.5t12 -51v-8v-13.5t-2 -12.5t-4 -5q-10 4 -18 15.5t-16 17.5q-41 53 -59.5 72.5t-41.5 23.5q-154 -33 -314.5 -71.5t-324.5 -49.5z" />
<glyph unicode="&#xeb;" horiz-adv-x="573" d="M-18 96q12 117 75.5 211t141.5 178q39 41 82 77t90 69q45 33 94 58.5t102 41.5q25 8 53.5 9t53.5 -11q49 -29 45 -79t-39 -103q-16 -23 -32.5 -43.5t-35.5 -40.5q-74 -80 -166 -135q-66 -37 -131 -64.5t-149 -50.5q-45 -59 -66 -131q59 0 131 27.5t143.5 69.5t141.5 88 t127 83q4 2 26.5 18.5t48 36t36.5 26.5l32 22q4 -4 -12 -22.5t-37.5 -41t-42 -42t-24.5 -23.5q-82 -72 -168 -140.5t-189 -126.5q-49 -29 -102 -52t-111 -25q-49 0 -87 31.5t-31 84.5zM205 266q70 18 136.5 54t122.5 85.5t100 111t69 132.5q-109 -51 -197 -133t-174 -174 q-20 -23 -31.5 -39t-25.5 -37zM518 879q-12 29 4.5 56.5t38.5 43.5q12 6 28.5 12t35 8t34 -4t23.5 -20q6 -14 3 -29.5t-13 -30t-22.5 -25.5t-24.5 -18q-20 -12 -56.5 -17t-50.5 24zM778 911q-12 27 4.5 53.5t38.5 43.5q10 6 26.5 12t33 8t32 -3t23.5 -19q12 -29 -10.5 -58.5 t-42.5 -42.5q-23 -12 -56.5 -16t-48.5 22z" />
<glyph unicode="&#xec;" horiz-adv-x="333" d="M-64.5 48.5q-5.5 -28.5 11.5 -44.5q18 -16 35.5 -18t35 5t33 18t27.5 22q31 29 79 74t81 73q78 66 156.5 126.5t154.5 129.5q6 6 6 7v3q-2 4 -19.5 -4t-21.5 -12q-63 -35 -120.5 -73t-117.5 -76q-18 -12 -48.5 -34t-49.5 -36q43 70 89 136.5t89 129t80 119.5t64 106 q4 8 1 12.5t-7 6.5q-8 4 -23 -2q-12 -4 -49 -37t-88 -84t-109.5 -115.5t-113 -132t-97.5 -132t-63 -116.5q-10 -23 -15.5 -51.5zM370 1049q-5 16 5 24t30.5 9t38.5 -5q37 -6 80 -19.5t89 -29.5t91.5 -33.5t83.5 -31.5q39 -16 80 -30.5t77 -28t60.5 -24t30.5 -16.5 q-6 2 -50 9.5t-106.5 17.5t-137 23.5t-142.5 27.5t-121 31t-73 35q-31 25 -36 41z" />
<glyph unicode="&#xed;" horiz-adv-x="333" d="M-64 49q5 29 15 51q20 51 63 116t97.5 132.5t113 132t109.5 115.5t88 84t49 37q14 6 23 2q4 -2 7 -6t-1 -13q-27 -49 -64 -106t-80 -119.5t-89 -129t-89 -136.5q18 14 49 35.5t49 34.5q59 39 117 76.5t121 72.5q4 4 21.5 12.5t19.5 3.5v-3t-6 -7q-76 -70 -155 -130 t-156 -126q-33 -29 -81 -74t-79 -73q-12 -10 -27.5 -21.5t-33 -18.5t-35 -5t-35.5 18q-16 16 -11 45zM406 817q49 33 128.5 75t168 85t175.5 82t152 65q20 8 45 14.5t43.5 3.5t24.5 -16.5t-8 -42.5q-10 -20 -68.5 -48.5t-140.5 -59.5t-174.5 -61.5t-170 -54t-128 -36 t-47.5 -6.5z" />
<glyph unicode="&#xee;" horiz-adv-x="333" d="M-64 49q5 29 15 51q20 51 63 116t97.5 132.5t113 132t109.5 115.5t88 84t49 37q14 6 23 2q4 -2 7 -6t-1 -13q-27 -49 -64 -106t-80 -119.5t-89 -129t-89 -136.5q18 14 49 35.5t49 34.5q59 39 117 76.5t121 72.5q4 4 21.5 12.5t19.5 3.5v-3t-6 -7q-76 -70 -155 -130 t-156 -126q-33 -29 -81 -74t-79 -73q-12 -10 -27.5 -21.5t-33 -18.5t-35 -5t-35.5 18q-16 16 -11 45zM31 825q61 23 141 54.5t165 61.5t169 53.5t156 29.5q43 4 69.5 -13.5t43 -45t24.5 -58.5t12 -51v-8v-13.5t-2 -12.5t-4 -5q-10 4 -18.5 15.5t-16.5 17.5 q-41 53 -59.5 72.5t-40.5 23.5q-154 -33 -314.5 -71.5t-324.5 -49.5z" />
<glyph unicode="&#xef;" horiz-adv-x="333" d="M-64 49q5 29 15 51q20 51 63 116t97.5 132.5t113 132t109.5 115.5t88 84t49 37q14 6 23 2q4 -2 7 -6t-1 -13q-27 -49 -64 -106t-80 -119.5t-89 -129t-89 -136.5q18 14 49 35.5t49 34.5q59 39 117 76.5t121 72.5q4 4 21.5 12.5t19.5 3.5v-3t-6 -7q-76 -70 -155 -130 t-156 -126q-33 -29 -81 -74t-79 -73q-12 -10 -27.5 -21.5t-33 -18.5t-35 -5t-35.5 18q-16 16 -11 45zM395 920q-12 29 4.5 56.5t38.5 43.5q12 6 28.5 12t35 8t34 -4t23.5 -20q6 -14 3 -29.5t-13 -30t-22.5 -25.5t-24.5 -18q-20 -12 -56 -17t-51 24zM655 952q-12 27 4.5 53.5 t38.5 43.5q10 6 26.5 12t33 8t32 -3t23.5 -19q12 -29 -10.5 -59t-42.5 -42q-23 -12 -56.5 -16t-48.5 22z" />
<glyph unicode="&#xf1;" horiz-adv-x="729" d="M-72 43q-4 33 36 105.5t107.5 161.5t154.5 185.5t180 174.5q20 16 44.5 35.5t43.5 23.5q4 0 -3.5 -12t-19.5 -29.5t-25.5 -36t-21.5 -30.5q-39 -53 -63.5 -88t-47 -68t-50 -71t-75.5 -99q72 57 153 123.5t161 130t152.5 115t129.5 77.5q29 12 60 -4q23 -12 29 -37.5 t-11 -46.5q-31 -47 -85 -100t-97 -102t-83 -100.5t-75 -106.5q-20 -33 -41.5 -68t-34.5 -74q41 33 84 63t86 58q6 4 28 18.5t51.5 34t62.5 41t61.5 38t48 25.5t21.5 5t-8.5 -14.5t-23.5 -21.5t-26.5 -21.5t-15.5 -12.5q-23 -18 -46.5 -36.5t-47.5 -36.5 q-66 -53 -139.5 -103.5t-139.5 -115.5q-10 -8 -21 -17.5t-24.5 -15.5t-27 -6t-27.5 12q-25 16 -24 53t14.5 79t32 81t30.5 61q29 55 76 121t84 115q-70 -43 -130 -79t-121.5 -85t-127 -119.5t-141.5 -185.5q-8 -10 -16.5 -21.5t-20.5 -15.5q-23 -10 -46.5 3t-23.5 40z M385 809q31 78 96.5 116t146.5 53t166 17t156 11q47 10 86 22t66 25q30 14 53 30q-16 -35 -46 -60.5t-66.5 -43.5t-76.5 -30.5t-75 -20.5q-84 -23 -163 -34t-159 -30q-12 -4 -34.5 -8t-50 -11t-54.5 -15.5t-45 -20.5z" />
<glyph unicode="&#xf2;" horiz-adv-x="604" d="M0 137q-6 -41 10.5 -82t57.5 -57q49 -16 104 0q82 20 183.5 81.5t186.5 145.5t133 182.5t23 190.5q-6 25 -21 42t-18 9q0 -2 5 -14q6 -23 4 -42.5t-11 -39.5q-23 -63 -84 -140t-137 -145.5t-155.5 -119t-139.5 -58.5q0 57 38 128t88 135.5t99.5 113.5t67.5 65 q41 33 81 63t79 51.5t78 32.5t78 7q20 -2 31.5 -5t17.5 -5q2 -2 -14.5 17.5t-43.5 27.5q-57 16 -119.5 5t-126 -40t-126 -73t-116.5 -92t-97 -97t-72 -90q-33 -47 -54.5 -95.5t-29.5 -101.5zM384 1049q-5 16 5 24t30.5 9t39.5 -5q37 -6 80 -19.5t89 -29.5t91 -33.5t84 -31.5 q39 -16 80 -30.5t76.5 -28t60 -24t31.5 -16.5q-6 2 -50.5 9.5t-107 17.5t-137 23.5t-142 27.5t-121 31t-73.5 35q-31 25 -36 41z" />
<glyph unicode="&#xf3;" horiz-adv-x="604" d="M0 137q8 53 29.5 101.5t54.5 95.5q29 41 72 90t97 97t116.5 92t126 73t126 40t119.5 -5q27 -8 43.5 -27.5t14.5 -17.5q-6 2 -17.5 5t-31.5 5q-39 4 -78 -7t-78 -32.5t-79 -51.5t-81 -63q-18 -16 -67.5 -65t-99.5 -113.5t-88 -135.5t-38 -128q59 8 139 58.5t156 119 t137.5 145t83.5 140.5q8 20 10.5 39.5t-3.5 42.5q-4 12 -5 14q2 8 17.5 -9t21.5 -42q25 -92 -23 -190.5t-133 -182.5t-186.5 -145.5t-183.5 -81.5q-55 -16 -104 0q-41 16 -57.5 57t-10.5 82zM420 817q49 33 129 75t168 85t175 82t152 65q20 8 45 14.5t43.5 3.5t24.5 -16.5 t-8 -42.5q-10 -20 -68.5 -48.5t-140.5 -59.5t-174 -61.5t-170 -54t-128 -36t-48 -6.5z" />
<glyph unicode="&#xf4;" horiz-adv-x="604" d="M0 137q8 53 29.5 101.5t54.5 95.5q29 41 72 90t97 97t116.5 92t126 73t126 40t119.5 -5q27 -8 43.5 -27.5t14.5 -17.5q-6 2 -17.5 5t-31.5 5q-39 4 -78 -7t-78 -32.5t-79 -51.5t-81 -63q-18 -16 -67.5 -65t-99.5 -113.5t-88 -135.5t-38 -128q59 8 139 58.5t156 119 t137.5 145t83.5 140.5q8 20 10.5 39.5t-3.5 42.5q-4 12 -5 14q2 8 17.5 -9t21.5 -42q25 -92 -23 -190.5t-133 -182.5t-186.5 -145.5t-183.5 -81.5q-55 -16 -104 0q-41 16 -57.5 57t-10.5 82zM264 825q61 23 141 54.5t165 61.5t169 53.5t156 29.5q43 4 69.5 -13.5t43 -45 t24.5 -58.5t12 -51v-8v-13.5t-2 -12.5t-4 -5q-10 4 -18 15.5t-16 17.5q-41 53 -59.5 72.5t-41.5 23.5q-154 -33 -314.5 -71.5t-324.5 -49.5z" />
<glyph unicode="&#xf5;" horiz-adv-x="604" d="M0 137q8 53 29.5 101.5t54.5 95.5q29 41 72 90t97 97t116.5 92t126 73t126 40t119.5 -5q27 -8 43.5 -27.5t14.5 -17.5q-6 2 -17.5 5t-31.5 5q-39 4 -78 -7t-78 -32.5t-79 -51.5t-81 -63q-18 -16 -67.5 -65t-99.5 -113.5t-88 -135.5t-38 -128q59 8 139 58.5t156 119 t137.5 145t83.5 140.5q8 20 10.5 39.5t-3.5 42.5q-4 12 -5 14q2 8 17.5 -9t21.5 -42q25 -92 -23 -190.5t-133 -182.5t-186.5 -145.5t-183.5 -81.5q-55 -16 -104 0q-41 16 -57.5 57t-10.5 82zM430 809q31 78 96.5 116t146.5 53t166 17t156 11q47 10 86 22t66 25q30 14 53 30 q-16 -35 -46 -60.5t-66.5 -43.5t-76.5 -30.5t-75 -20.5q-84 -23 -163 -34t-159 -30q-12 -4 -34.5 -8t-50 -11t-54 -15.5t-45.5 -20.5z" />
<glyph unicode="&#xf6;" horiz-adv-x="604" d="M0 137q8 53 29.5 101.5t54.5 95.5q29 41 72 90t97 97t116.5 92t126 73t126 40t119.5 -5q27 -8 43.5 -27.5t14.5 -17.5q-6 2 -17.5 5t-31.5 5q-39 4 -78 -7t-78 -32.5t-79 -51.5t-81 -63q-18 -16 -67.5 -65t-99.5 -113.5t-88 -135.5t-38 -128q59 8 139 58.5t156 119 t137.5 145t83.5 140.5q8 20 10.5 39.5t-3.5 42.5q-4 12 -5 14q2 8 17.5 -9t21.5 -42q25 -92 -23 -190.5t-133 -182.5t-186.5 -145.5t-183.5 -81.5q-55 -16 -104 0q-41 16 -57.5 57t-10.5 82zM543 879q-12 29 4 56.5t39 43.5q12 6 28.5 12t35 8t34 -4t23.5 -20q6 -14 3 -29.5 t-13.5 -30t-22.5 -25.5t-25 -18q-20 -12 -56 -17t-50 24zM803 911q-12 27 4 53.5t39 43.5q10 6 26.5 12t33 8t32 -3t23.5 -19q12 -29 -10.5 -58.5t-43.5 -42.5q-23 -12 -56.5 -16t-47.5 22z" />
<glyph unicode="&#xf7;" horiz-adv-x="1081" d="M420 555q-6 14 20.5 25.5t64.5 20.5t72.5 15.5t43.5 8.5q135 20 270 30q31 4 68.5 5.5t113.5 1.5q6 -2 23.5 -3.5t17.5 -9.5q2 -8 -12.5 -13t-18.5 -9q-72 -23 -108.5 -33t-65.5 -19q-66 -16 -131 -27t-131 -18q-16 -2 -51 -4t-72 -1t-66.5 7.5t-37.5 22.5zM555 279 q-12 33 8.5 62.5t46.5 45.5q12 6 32 11t39 5t35.5 -6t22.5 -24q6 -16 1 -32.5t-16 -32t-26.5 -28t-27.5 -18.5t-28.5 -10t-34 -4t-32 7t-20.5 24zM809 807q-12 33 8.5 62.5t46.5 45.5q12 6 31.5 11.5t39 5.5t36 -6.5t22.5 -24.5q6 -16 1 -32.5t-16 -32t-26.5 -27.5 t-27.5 -18t-28.5 -10.5t-34 -4.5t-32 7.5t-20.5 23.5z" />
<glyph unicode="&#xf8;" horiz-adv-x="604" d="M-1 -13.5q5 9.5 7 11.5q18 29 43 52.5t49 45.5q-2 10 -3 21.5t1 21.5q4 53 24.5 101.5t49.5 95.5q25 41 67 90t93 97t110.5 92t122 73t125 40t119.5 -5q27 -8 44 -27.5t15 -17.5q-6 2 -17 5t-32 5q-41 4 -79 -7t-75.5 -32.5t-75.5 -51.5t-77 -62q-12 -10 -38 -36 t-56.5 -63t-63.5 -82t-59 -90q78 61 156.5 119.5t160.5 114.5q31 20 63 40.5t64 41.5q6 31 -4 57q-4 12 -4 14q0 8 16.5 -9t24.5 -42q27 14 53 27.5t51 25.5q2 2 12.5 6.5t21 8.5t18.5 6t10 -2t-6 -12.5t-18.5 -17.5t-21.5 -16.5t-13 -9.5q-25 -16 -48.5 -34.5t-48.5 -34.5 q6 -88 -43 -177t-127 -165t-169 -131.5t-165 -73.5q-55 -16 -104 0q-35 14 -55 49q-20 -14 -39 -27.5t-41 -25.5q-6 -4 -15.5 -10t-19.5 -9q-8 0 -3 9.5zM240 92q51 8 117.5 48t131 96.5t121 122t90.5 126.5q-35 -27 -66.5 -51t-64.5 -49q-82 -61 -162.5 -122.5 t-162.5 -121.5q-4 -14 -4 -25.5v-23.5z" />
<glyph unicode="&#xf9;" horiz-adv-x="708" d="M-30 71q-1 -38 26 -59q16 -12 34.5 -12t36 8t35 20.5t29.5 22.5q47 37 92 76t90 80q53 47 106.5 94t110.5 94q-55 -70 -92 -123t-67 -114q-14 -25 -26.5 -54.5t-8.5 -56.5q4 -25 24.5 -40t45.5 -11q12 4 22 10t21 14l49 43q51 47 103 94.5t106 90.5q90 68 182 145 q4 4 20.5 17.5t12.5 19.5t-33 -8t-70 -40t-88 -57.5t-87 -60t-68.5 -48t-30.5 -21.5q6 12 30.5 46.5t58.5 80t71.5 94.5t71.5 92t57.5 73.5t29.5 39.5q6 8 22.5 28.5t18.5 28.5q4 14 -6 25.5t-27 9.5q-14 -4 -49 -31t-59 -47q-174 -139 -337 -278.5t-329 -245.5 q37 55 76 114.5t80 118.5t83 115.5t85 105.5q20 23 39.5 43.5t42.5 38.5q10 10 19 16.5t18 16.5q6 6 2 7t-11.5 1t-14.5 -2t-9 -2q-53 -16 -100.5 -47t-88.5 -66q-74 -59 -140 -131.5t-120 -154.5l-34.5 -57.5t-38 -78t-16.5 -78.5zM359 1049q-5 16 5.5 24t31 9t38.5 -5 q37 -6 80 -19.5t89 -29.5t91 -33.5t84 -31.5q39 -16 80 -30.5t77 -28t60.5 -24t30.5 -16.5q-6 2 -50 9.5t-106.5 17.5t-137.5 23.5t-142.5 27.5t-121 31t-73.5 35q-31 25 -36 41z" />
<glyph unicode="&#xfa;" horiz-adv-x="708" d="M-30 70.5q1 38.5 16.5 79t38 77.5t34.5 58q53 82 120 154.5t140 131.5q41 35 88.5 66t100.5 47q2 0 9 2t14.5 2t11.5 -1t-2 -7q-8 -10 -17.5 -16.5t-19.5 -16.5q-23 -18 -42.5 -38.5t-39.5 -43.5q-43 -49 -85 -105.5t-83 -115.5t-80 -118.5t-76 -114.5q166 106 329 245.5 t337 278.5q25 20 59.5 47t48.5 31q16 2 26.5 -9.5t6.5 -25.5q-2 -8 -18.5 -28.5t-22.5 -28.5t-29.5 -39t-57.5 -74t-71.5 -92t-71.5 -94.5t-58.5 -80t-30.5 -46.5q2 2 30.5 21.5t68.5 48t87 60t88 57.5t70 40t33 8t-12.5 -19.5t-20.5 -17.5q-92 -78 -182 -145 q-53 -43 -105.5 -90t-103.5 -95l-49 -43q-10 -8 -20.5 -14t-22.5 -10q-25 -4 -45.5 11.5t-24.5 39.5q-4 27 8 56.5t27 54.5q31 61 67.5 114.5t91.5 122.5q-57 -47 -110 -94t-107 -94q-45 -41 -90 -80t-92 -76q-12 -10 -29.5 -22.5t-35 -20.5t-36 -8t-34.5 12 q-27 20 -26 58.5zM479 813q49 33 129 75t168 85t175 82t153 65q20 8 45 14.5t43 3.5t24 -16.5t-8 -42.5q-10 -20 -68.5 -49t-140 -59.5t-174 -61t-170 -54.5t-128 -36t-48.5 -6z" />
<glyph unicode="&#xfb;" horiz-adv-x="708" d="M-30 70.5q1 38.5 16.5 79t38 77.5t34.5 58q53 82 120 154.5t140 131.5q41 35 88.5 66t100.5 47q2 0 9 2t14.5 2t11.5 -1t-2 -7q-8 -10 -17.5 -16.5t-19.5 -16.5q-23 -18 -42.5 -38.5t-39.5 -43.5q-43 -49 -85 -105.5t-83 -115.5t-80 -118.5t-76 -114.5q166 106 329 245.5 t337 278.5q25 20 59.5 47t48.5 31q16 2 26.5 -9.5t6.5 -25.5q-2 -8 -18.5 -28.5t-22.5 -28.5t-29.5 -39t-57.5 -74t-71.5 -92t-71.5 -94.5t-58.5 -80t-30.5 -46.5q2 2 30.5 21.5t68.5 48t87 60t88 57.5t70 40t33 8t-12.5 -19.5t-20.5 -17.5q-92 -78 -182 -145 q-53 -43 -105.5 -90t-103.5 -95l-49 -43q-10 -8 -20.5 -14t-22.5 -10q-25 -4 -45.5 11.5t-24.5 39.5q-4 27 8 56.5t27 54.5q31 61 67.5 114.5t91.5 122.5q-57 -47 -110 -94t-107 -94q-45 -41 -90 -80t-92 -76q-12 -10 -29.5 -22.5t-35 -20.5t-36 -8t-34.5 12 q-27 20 -26 58.5zM240 825q61 23 141 54.5t165 61.5t169 53.5t155 29.5q43 4 70 -13.5t43 -45t24.5 -58.5t12.5 -51v-8v-13.5t-2 -12.5t-4 -5q-10 4 -18.5 15.5t-16.5 17.5q-41 53 -59.5 72.5t-40.5 23.5q-154 -33 -315 -71.5t-324 -49.5z" />
<glyph unicode="&#xfc;" horiz-adv-x="708" d="M-30 70.5q1 38.5 16.5 79t38 77.5t34.5 58q53 82 120 154.5t140 131.5q41 35 88.5 66t100.5 47q2 0 9 2t14.5 2t11.5 -1t-2 -7q-8 -10 -17.5 -16.5t-19.5 -16.5q-23 -18 -42.5 -38.5t-39.5 -43.5q-43 -49 -85 -105.5t-83 -115.5t-80 -118.5t-76 -114.5q166 106 329 245.5 t337 278.5q25 20 59.5 47t48.5 31q16 2 26.5 -9.5t6.5 -25.5q-2 -8 -18.5 -28.5t-22.5 -28.5t-29.5 -39t-57.5 -74t-71.5 -92t-71.5 -94.5t-58.5 -80t-30.5 -46.5q2 2 30.5 21.5t68.5 48t87 60t88 57.5t70 40t33 8t-12.5 -19.5t-20.5 -17.5q-92 -78 -182 -145 q-53 -43 -105.5 -90t-103.5 -95l-49 -43q-10 -8 -20.5 -14t-22.5 -10q-25 -4 -45.5 11.5t-24.5 39.5q-4 27 8 56.5t27 54.5q31 61 67.5 114.5t91.5 122.5q-57 -47 -110 -94t-107 -94q-45 -41 -90 -80t-92 -76q-12 -10 -29.5 -22.5t-35 -20.5t-36 -8t-34.5 12 q-27 20 -26 58.5zM518 879q-12 29 4.5 56.5t38.5 43.5q12 6 28.5 12t35 8t34 -4t23.5 -20q6 -14 3 -29.5t-13 -30t-22.5 -25.5t-24.5 -18q-20 -12 -56.5 -17t-50.5 24zM778 911q-12 27 4.5 53.5t38.5 43.5q10 6 26.5 12t33 8t32 -3t23.5 -19q12 -29 -10.5 -58.5t-42.5 -42.5 q-23 -12 -56.5 -16t-48.5 22z" />
<glyph unicode="&#xfd;" horiz-adv-x="641" d="M-1051 -1092q-4 4 14.5 11.5t22.5 9.5q41 10 81 25.5t79 31.5q123 51 234.5 124t213 159t194.5 183t179 196q92 104 176 212.5t164 223.5q49 66 95.5 137.5t105.5 155.5q-53 -45 -105.5 -91t-105.5 -93q-45 -41 -90 -80t-92 -76q-12 -10 -28.5 -22.5t-35 -20.5t-37 -8 t-34.5 12q-23 18 -23 47t6 55q12 45 32.5 87t47.5 83q53 82 119.5 155t140.5 132q43 35 89 65.5t100 47.5q2 0 9 2t14 2t11 -1t-2 -7q-8 -10 -17 -16.5t-20 -16.5q-23 -18 -42 -39t-37 -43q-88 -98 -161 -206.5t-145 -219.5q31 20 61 40.5t58 41.5q57 41 112.5 81t108.5 81 q6 6 33 28.5t62.5 54t76.5 68.5t80 71t72 62.5t49 42.5q4 4 16.5 14.5t27.5 22.5t30.5 22.5t23.5 16.5q4 2 19.5 9t17.5 -5q0 -10 -6 -20.5t-10 -20.5q-8 -14 -15.5 -27.5t-17.5 -27.5q-12 -20 -53 -79.5t-98.5 -139.5t-120 -167t-116.5 -162t-91 -124t-39 -53 q-160 -219 -341 -422t-402 -362q-109 -78 -227 -142.5t-249 -99.5q-41 -10 -84 -18.5t-86 -8.5h-23t-22 6zM403 817q49 33 129 75t168 85t175.5 82t152.5 65q20 8 45 14.5t43.5 3.5t24.5 -16.5t-8 -42.5q-10 -20 -68.5 -48.5t-140.5 -59.5t-174.5 -61.5t-170 -54t-128 -36 t-48.5 -6.5z" />
<glyph unicode="&#xff;" horiz-adv-x="641" d="M-1051 -1092q-4 4 14.5 11.5t22.5 9.5q41 10 81 25.5t79 31.5q123 51 234.5 124t213 159t194.5 183t179 196q92 104 176 212.5t164 223.5q49 66 95.5 137.5t105.5 155.5q-53 -45 -105.5 -91t-105.5 -93q-45 -41 -90 -80t-92 -76q-12 -10 -28.5 -22.5t-35 -20.5t-37 -8 t-34.5 12q-23 18 -23 47t6 55q12 45 32.5 87t47.5 83q53 82 119.5 155t140.5 132q43 35 89 65.5t100 47.5q2 0 9 2t14 2t11 -1t-2 -7q-8 -10 -17 -16.5t-20 -16.5q-23 -18 -42 -39t-37 -43q-88 -98 -161 -206.5t-145 -219.5q31 20 61 40.5t58 41.5q57 41 112.5 81t108.5 81 q6 6 33 28.5t62.5 54t76.5 68.5t80 71t72 62.5t49 42.5q4 4 16.5 14.5t27.5 22.5t30.5 22.5t23.5 16.5q4 2 19.5 9t17.5 -5q0 -10 -6 -20.5t-10 -20.5q-8 -14 -15.5 -27.5t-17.5 -27.5q-12 -20 -53 -79.5t-98.5 -139.5t-120 -167t-116.5 -162t-91 -124t-39 -53 q-160 -219 -341 -422t-402 -362q-109 -78 -227 -142.5t-249 -99.5q-41 -10 -84 -18.5t-86 -8.5h-23t-22 6zM516 879q-12 29 4.5 56.5t38.5 43.5q12 6 28.5 12t35 8t34 -4t23.5 -20q6 -14 3 -29.5t-13.5 -30t-22.5 -25.5t-24 -18q-20 -12 -56.5 -17t-50.5 24zM776 911 q-12 27 4.5 53.5t38.5 43.5q10 6 26.5 12t33 8t32 -3t23.5 -19q12 -29 -10.5 -58.5t-42.5 -42.5q-23 -12 -56.5 -16t-48.5 22z" />
<glyph unicode="&#x152;" horiz-adv-x="3174" d="M87 20.5q-7 59.5 1 121t23 116.5q35 129 96 248t139 227q160 225 365 400q92 80 192.5 149.5t210.5 120.5q53 25 110.5 44t116.5 28q10 2 23.5 3t21.5 -3t-5 -10.5t-15 -8.5q-23 -10 -45.5 -20.5t-44.5 -20.5q-109 -55 -206 -126.5t-187 -153.5q-197 -178 -353 -385 q-82 -106 -154.5 -220t-125.5 -237q-23 -49 -41.5 -113.5t-17 -126t29 -110.5t98.5 -70q72 -23 146 -8.5t139 39.5q115 41 217.5 106.5t198.5 136.5q113 86 235.5 189.5t243.5 222.5q154 174 313 350q59 74 108.5 151t90.5 154q-16 -4 -31.5 -6t-31.5 -4q-4 0 -35 -5t-66 -8 t-62.5 -3t-27.5 8q0 2 4 5t8 5q66 29 137.5 50.5t145.5 41.5q18 45 34.5 94.5t19.5 99.5t-12 97t-58 90q-53 41 -121 55.5t-133 12.5q-68 -4 -134.5 -16.5t-131.5 -30.5q-123 -35 -241 -84t-228 -111q-109 -59 -202 -128.5t-190 -147.5q-6 -4 -13 -10.5t-15 -8.5t-3 9.5 t7 13.5q41 74 104.5 138.5t128.5 117.5q201 168 449 258q125 47 258 66.5t264 3.5q57 -8 114.5 -24.5t104.5 -51.5q2 2 4 2t4 2q55 29 137 46t150 32q131 27 260 48t260 40q260 37 517 69.5t517 59.5q4 0 28 2t51.5 4t50 1t26.5 -5q-2 -6 -14 -11.5t-26.5 -10.5t-28 -8 t-15.5 -3q-92 -25 -181 -43t-181 -39q-129 -27 -257 -52.5t-257 -47.5q-131 -27 -261.5 -48.5t-261.5 -41.5q-8 -2 -65 -8.5t-133 -12.5t-155 -10t-128 0q41 -41 63.5 -93.5t28.5 -111.5q6 -86 -12 -174l49 12q61 66 123.5 128.5t128.5 121.5q25 23 61.5 56.5t67.5 46.5 q8 4 6 -7.5t-10 -27t-17.5 -30.5t-11.5 -19q-41 -59 -83 -114.5t-89 -111.5q117 25 232.5 48.5t232.5 39.5q4 0 34 5.5t64.5 8.5t63.5 3t31 -6q2 -8 -25 -19.5t-60.5 -23t-64.5 -19.5t-37 -10q-139 -41 -277 -70.5t-280 -66.5q-2 0 -2 -2q-127 -168 -270.5 -333t-287.5 -328 t-279.5 -325.5t-245.5 -328.5q92 -4 181 13.5t179 37.5q252 57 498 135t493 152q86 27 172.5 55.5t176.5 44.5h8q2 -4 -9.5 -12t-15.5 -10q-76 -39 -150.5 -71t-152.5 -67q-236 -98 -474.5 -187t-485.5 -159q-53 -14 -117 -33.5t-131.5 -33t-133 -15.5t-118.5 19 q-70 25 -77 78t20 116q-139 -92 -292 -162.5t-313 -93.5q-74 -10 -150.5 0.5t-139.5 55.5q-53 39 -78 91t-32 111.5z" />
<glyph unicode="&#x153;" horiz-adv-x="923" d="M25 137q4 53 24.5 101.5t48.5 95.5q25 41 67 90t93 97t110.5 92t122 73t125 40t119.5 -5q27 -8 44.5 -27.5t15.5 -17.5q-6 2 -17.5 5t-32.5 5q-41 4 -78.5 -7t-75.5 -32.5t-76 -51.5t-77 -63q-18 -16 -64 -65t-93.5 -113.5t-82 -135.5t-30.5 -128q59 8 137 58.5 t149.5 119t129 145t75.5 140.5q6 20 8.5 39.5t-5.5 42.5q-4 12 -5 14q0 8 16.5 -9t24.5 -42q4 -16 7.5 -29.5t3.5 -29.5q86 76 174 131q20 12 52 29.5t65.5 27.5t66.5 8t57 -26q31 -31 27 -68t-28.5 -75t-64.5 -74.5t-83 -69.5t-82 -57.5t-64 -38.5q-47 -29 -103 -51.5 t-110 -38.5q-23 -29 -50 -70t-44 -78q53 0 106.5 23.5t106.5 52.5q74 39 142.5 85t140.5 95q37 29 73.5 53.5t71.5 59.5q23 22 25 12q0 -4 -19.5 -27.5t-42.5 -46.5q-43 -47 -92 -92t-104 -90q-51 -43 -109.5 -87t-130.5 -85q-35 -16 -75 -32.5t-93 -20.5q-27 -2 -51.5 6 t-44.5 31q-12 14 -16 32.5t-4 36.5q-53 -35 -104.5 -60.5t-96.5 -35.5q-55 -16 -105 0q-41 16 -60.5 57t-14.5 82zM635 260q55 33 116.5 69t118 80t101.5 96t69 118q-57 -25 -103 -63t-89 -79q-53 -47 -110.5 -106.5t-102.5 -114.5z" />
<glyph unicode="&#x178;" horiz-adv-x="1652" d="M-637 -829q4 4 19.5 7t33 5t33.5 4t25 2q127 14 248.5 42t240.5 73q250 96 467 249.5t410 337.5q203 193 380 403t343 433q156 209 302 420t294 422q-59 -61 -120 -119.5t-122 -118.5q-201 -188 -407.5 -365.5t-422.5 -349.5q-160 -127 -326.5 -255t-350.5 -220 q-23 -12 -48.5 -22t-51 -13.5t-49 4t-42.5 31.5q-16 29 -16 57.5t10 57.5q12 41 30.5 79t41.5 73q47 80 101 155.5t108 151.5q78 111 157.5 216t157.5 214q45 63 92 127.5t92 130t84 135.5t70 141q10 27 15 54.5t-3 54.5q-2 6 -5 13t-3 11q0 6 6 4.5t10 -4.5 q18 -10 26.5 -29.5t11.5 -42t0 -45t-5 -38.5q-25 -121 -87 -236.5t-126 -218.5q-109 -178 -225.5 -346t-233.5 -340q-41 -57 -77.5 -114.5t-69.5 -116.5q78 43 153.5 92t149.5 100q303 205 591 426t568 455q147 123 291.5 250t269.5 274q14 16 28.5 32.5t31.5 33.5q2 2 10 9 t12 3q6 -4 0 -17.5t-8 -17.5q-84 -182 -194.5 -354t-223.5 -357q-143 -233 -295.5 -456t-324.5 -436q-174 -215 -364.5 -411t-413.5 -360q-211 -156 -450 -268t-503 -139q-78 -8 -154.5 -7t-154.5 15q-2 0 -9 2t-14.5 5l-12.5 5t-1 7zM1632 1874q-12 29 4.5 56.5t38.5 43.5 q12 6 28.5 12.5t35 8.5t34 -4.5t23.5 -20.5q6 -14 3 -29.5t-13 -30t-22.5 -25.5t-24.5 -17q-20 -12 -56 -17.5t-51 23.5zM1892 1907q-12 27 4.5 53.5t38.5 42.5q10 6 26.5 12t33 8t32 -3t23.5 -19q12 -29 -10.5 -58.5t-42.5 -41.5q-23 -12 -56.5 -16.5t-48.5 22.5z" />
<glyph unicode="&#x2c6;" horiz-adv-x="565" d="M-123 825q0 2 30 13.5t71.5 27t84.5 31.5t70 27q76 27 154 49t157 41q14 4 31 6t33 4q43 4 69.5 -13.5t43 -45t24.5 -58.5t12 -51v-8v-13.5t-2 -12.5t-4 -5q-10 4 -18 15.5t-17 17.5q-41 53 -59 72.5t-41 23.5q-78 -18 -159 -37.5t-160 -36.5q-47 -8 -90.5 -16t-86.5 -16 q-6 0 -28.5 -3t-47 -7.5t-45 -6.5t-22.5 2z" />
<glyph unicode="&#x2dc;" horiz-adv-x="555" d="M-66 809q31 78 96.5 116t146.5 53t166 17t157 11q47 10 86 22t65 25q31 14 54 30q-16 -35 -46 -60.5t-67 -43.5t-77 -30.5t-75 -20.5q-84 -23 -162.5 -34t-158.5 -30q-12 -4 -35 -8t-50.5 -11t-54 -15.5t-45.5 -20.5z" />
<glyph unicode="&#x2000;" horiz-adv-x="1189" />
<glyph unicode="&#x2001;" horiz-adv-x="2379" />
<glyph unicode="&#x2002;" horiz-adv-x="1189" />
<glyph unicode="&#x2003;" horiz-adv-x="2379" />
<glyph unicode="&#x2004;" horiz-adv-x="793" />
<glyph unicode="&#x2005;" horiz-adv-x="594" />
<glyph unicode="&#x2006;" horiz-adv-x="396" />
<glyph unicode="&#x2007;" horiz-adv-x="396" />
<glyph unicode="&#x2008;" horiz-adv-x="297" />
<glyph unicode="&#x2009;" horiz-adv-x="475" />
<glyph unicode="&#x200a;" horiz-adv-x="132" />
<glyph unicode="&#x2010;" horiz-adv-x="1081" d="M291 324q-6 14 20.5 25t64.5 20.5t72.5 15.5t43.5 8q135 20 270 31q12 0 48 2t75 3t69.5 -1t30.5 -10q2 -8 -18.5 -16.5t-67.5 -24.5q-29 -10 -59.5 -17.5t-59.5 -15.5q-66 -16 -131 -27.5t-131 -17.5q-33 -4 -64.5 -5t-62.5 1q-12 0 -27.5 1t-30 4t-26.5 8t-16 16z" />
<glyph unicode="&#x2011;" horiz-adv-x="1081" d="M291 324q-6 14 20.5 25t64.5 20.5t72.5 15.5t43.5 8q135 20 270 31q12 0 48 2t75 3t69.5 -1t30.5 -10q2 -8 -18.5 -16.5t-67.5 -24.5q-29 -10 -59.5 -17.5t-59.5 -15.5q-66 -16 -131 -27.5t-131 -17.5q-33 -4 -64.5 -5t-62.5 1q-12 0 -27.5 1t-30 4t-26.5 8t-16 16z" />
<glyph unicode="&#x2012;" horiz-adv-x="1081" d="M291 324q-6 14 20.5 25t64.5 20.5t72.5 15.5t43.5 8q135 20 270 31q12 0 48 2t75 3t69.5 -1t30.5 -10q2 -8 -18.5 -16.5t-67.5 -24.5q-29 -10 -59.5 -17.5t-59.5 -15.5q-66 -16 -131 -27.5t-131 -17.5q-33 -4 -64.5 -5t-62.5 1q-12 0 -27.5 1t-30 4t-26.5 8t-16 16z" />
<glyph unicode="&#x2013;" horiz-adv-x="1081" d="M213 555q-6 14 20.5 25.5t64.5 20.5t73 15.5t43 8.5q33 6 83 12t102 12t101.5 11.5t83.5 7.5q31 4 69 5t114 1q6 -2 23.5 -3t17.5 -9q2 -8 -12.5 -13.5t-18.5 -9.5q-139 -45 -270.5 -70.5t-266.5 -38.5q-16 -2 -51 -4t-71.5 -1t-66.5 7.5t-38 22.5z" />
<glyph unicode="&#x2014;" horiz-adv-x="1331" d="M213 555q-6 14 20.5 25.5t64.5 20.5t73 15.5t43 8.5q23 4 67.5 10t102 12t119 14.5t119 14.5t102.5 10t67 6q31 4 69 5t114 1q6 -2 23 -3t17 -9q2 -8 -12 -13t-18 -9q-188 -59 -372.5 -88t-371.5 -46q-16 -2 -51 -4t-71.5 -1t-66.5 7.5t-38 22.5z" />
<glyph unicode="&#x2018;" horiz-adv-x="368" d="M796 1271q3 7 7 17t10 20.5t8 14.5q29 57 67 113.5t79 109.5q43 59 95 117.5t107 105.5q2 2 20.5 16.5t38 26t32 12.5t6.5 -24q-8 -31 -28.5 -60.5t-41.5 -53.5q-78 -98 -160 -177t-153 -166q-18 -18 -45 -47.5t-41 -31.5q-4 0 -1 7z" />
<glyph unicode="&#x2019;" horiz-adv-x="368" d="M796 1271q3 7 7 17t10 20.5t8 14.5q29 57 67 113.5t79 109.5q43 59 95 117.5t107 105.5q2 2 20.5 16.5t38 26t32 12.5t6.5 -24q-8 -31 -28.5 -60.5t-41.5 -53.5q-78 -98 -160 -177t-153 -166q-18 -18 -45 -47.5t-41 -31.5q-4 0 -1 7z" />
<glyph unicode="&#x201c;" horiz-adv-x="1075" d="M616.5 1238q-0.5 7 4 18.5t9.5 21.5l7 14q66 129 155 246t199 209q4 2 21.5 15.5t35 22.5t30 8t5.5 -26q-8 -27 -29.5 -55.5t-41.5 -54.5q-76 -98 -157 -177t-155 -163q-6 -6 -15 -18.5t-20.5 -25.5t-22.5 -24.5t-19 -13.5q-6 -4 -6.5 3zM904 1334q3 7 7 17.5t10.5 20.5 t8.5 14q29 57 66.5 113.5t78.5 110.5q43 59 95.5 117.5t107.5 105.5q2 2 20.5 16.5t38 25.5t31.5 12t6 -23q-8 -31 -28.5 -60.5t-40.5 -54.5q-78 -98 -160 -177t-154 -165q-18 -18 -44.5 -48t-41.5 -32q-4 0 -1 7z" />
<glyph unicode="&#x201d;" horiz-adv-x="1075" d="M616.5 1238q-0.5 7 4 18.5t9.5 21.5l7 14q66 129 155 246t199 209q4 2 21.5 15.5t35 22.5t30 8t5.5 -26q-8 -27 -29.5 -55.5t-41.5 -54.5q-76 -98 -157 -177t-155 -163q-6 -6 -15 -18.5t-20.5 -25.5t-22.5 -24.5t-19 -13.5q-6 -4 -6.5 3zM904 1334q3 7 7 17.5t10.5 20.5 t8.5 14q29 57 66.5 113.5t78.5 110.5q43 59 95.5 117.5t107.5 105.5q2 2 20.5 16.5t38 25.5t31.5 12t6 -23q-8 -31 -28.5 -60.5t-40.5 -54.5q-78 -98 -160 -177t-154 -165q-18 -18 -44.5 -48t-41.5 -32q-4 0 -1 7z" />
<glyph unicode="&#x202f;" horiz-adv-x="475" />
<glyph unicode="&#x205f;" horiz-adv-x="594" />
<glyph unicode="&#x20ac;" horiz-adv-x="1449" d="M-122 612q3 4 11.5 7.5t17.5 5.5t11 2q57 12 113.5 19t113.5 16q31 4 62 7t61 7q16 27 32.5 52.5t33.5 51.5q-70 -2 -138.5 -3t-136.5 9q-2 0 -12 1t-20.5 4.5t-15.5 7.5t3 10q25 12 82.5 23.5t120 21.5t116.5 17.5t73 11.5q29 45 66.5 88t78.5 90q45 47 90 93t94 89 q100 86 215 160t244 108q57 14 121.5 15.5t115 -20t79 -67.5t16.5 -126q-10 -59 -41 -113.5t-70 -101.5q-6 -8 -24.5 -25.5t-38 -34t-36 -28t-20.5 -6.5q-4 4 6.5 19t14.5 19q35 47 66.5 96.5t50.5 104.5q27 80 11.5 122t-56.5 57.5t-99.5 6t-113.5 -29.5 q-61 -25 -119 -59.5t-111 -75.5q-104 -78 -195.5 -171.5t-172.5 -195.5q150 23 305 39t346 33q82 6 163 12t162 6h15.5t25 -1t23.5 -3t10 -8q0 -10 -31.5 -20.5t-73.5 -21.5t-81 -19.5t-53 -10.5q-117 -23 -234 -40t-233 -32q-47 -6 -102.5 -12t-112 -12t-111.5 -11t-100 -8 q-8 -8 -19.5 -24t-46.5 -70q43 4 103.5 10.5t130 12.5t147.5 12t158 12q16 0 47 2t63.5 3.5t59 0t37.5 -7.5q4 -2 -3.5 -6t-18.5 -9t-22.5 -8t-15.5 -5q-29 -8 -54.5 -14.5t-53.5 -10.5q-238 -45 -486 -68l-141 -12q-23 -23 -48.5 -65.5t-47 -96t-35.5 -111t-16.5 -107.5 t13 -89t54.5 -55q57 -27 128 -14.5t126 32.5q127 43 241.5 112t219.5 150q102 78 193 167t182 184q16 18 33.5 36.5t35.5 34.5q4 4 11.5 7.5t3.5 -7.5q-31 -80 -90.5 -162.5t-133 -160.5t-152.5 -148.5t-149 -122.5q-104 -78 -220 -140t-243 -91q-49 -12 -102 -13t-102.5 12 t-88 44t-61.5 84q-29 61 -25.5 130t19.5 132q16 66 42 127.5t56 120.5q-35 -2 -79 -5t-91 -3t-92 3t-78 13q-10 4 -7 8z" />
<glyph unicode="&#x2122;" horiz-adv-x="1521" d="M154 1464q2 8 21.5 16.5t44 16.5t50 13.5t37.5 7.5q90 20 180.5 30.5t182.5 26.5q10 6 27.5 23.5t31.5 13.5q8 -4 3 -17.5t-7 -17.5q29 4 56.5 6t56.5 4q2 0 15 1t26.5 1h24.5t11 -2q-2 -4 -14 -12q27 4 45.5 -13.5t14.5 -43.5q-10 -59 -36 -115.5t-55 -108.5 q59 61 122 120t130 112q23 18 49.5 38.5t55.5 28.5q20 4 36.5 -6t20.5 -31q0 -33 -14.5 -67.5t-28.5 -65.5q-25 -57 -56.5 -111.5t-66.5 -105.5q-18 -27 -36.5 -52.5t-41.5 -47.5q-2 -4 -10 -14.5t-18.5 -20.5t-20.5 -17t-12 -3q-4 6 0 18t6 16q16 37 34.5 74t39.5 78 q29 55 56.5 111.5t51.5 113.5q-109 -74 -213 -152.5t-198 -172.5q-2 -2 -7.5 -5.5t-10.5 -6.5t-8 -3t-3 6q4 23 13.5 44.5t19.5 41.5q23 53 45 107.5t43 110.5q-10 -10 -18.5 -17.5t-16.5 -15.5q-98 -90 -191.5 -180.5t-191.5 -176.5q-10 -10 -18.5 -17t-18.5 -15 q-8 -6 -16 -13.5t-19 -11.5q-6 -4 -3 4t5 10q35 61 84.5 116.5t96.5 113.5q45 51 90 100t92 98l48.5 48.5t49.5 46.5q16 12 32.5 25.5t35.5 23.5q-12 -6 -25.5 -10.5t-29.5 -8.5q-29 -8 -60 -16t-80 -20q-66 -86 -136 -173t-138 -167q-18 -23 -36.5 -43.5t-35.5 -40.5 l-86 -99q-18 -18 -35.5 -38.5t-40.5 -34.5q-16 -10 -8 10q16 39 42 72.5t48 70.5q76 109 156 214.5t168 203.5q-41 -8 -79 -15.5t-79 -13.5q-33 -4 -64.5 -8t-64.5 -6q-16 -2 -42.5 -3t-51.5 1t-42 6t-15 12z" />
<glyph unicode="&#x25fc;" horiz-adv-x="788" d="M0 0v788h788v-788h-788z" />
</font>
</defs>
</svg>
